NotoFangsongKSSRotated.glyphspackage
{
glyphname = comma;
layers = (
{
layerId = master01;
shapes = (
{
closed = 1;
nodes = (
(30,-154,l),
(149,-119,o),
(194,-43,o),
(194,42,cs),
(194,98,o),
(158,129,o),
(117,129,cs),
(80,129,o),
(52,108,o),
(52,70,cs),
(52,9,o),
(125,18,o),
(125,-22,cs),
(125,-61,o),
(95,-91,o),
(30,-112,c)
);
}
);
width = 250;
}
);
unicode = 44;
}
{
glyphname = hyphen;
layers = (
{
layerId = master01;
shapes = (
{
closed = 1;
nodes = (
(285,235,l),
(285,310,l),
(25,310,l),
(25,235,l),
(25,235,l)
);
}
);
width = 310;
}
);
unicode = 45;
}
{
glyphname = six;
layers = (
{
layerId = master01;
shapes = (
{
closed = 1;
nodes = (
(429,-10,o),
(508,88,o),
(508,229,cs),
(508,357,o),
(429,434,o),
(307,434,cs),
(242,434,o),
(197,409,o),
(164,382,c),
(171,575,o),
(222,676,o),
(322,676,cs),
(386,676,o),
(410,624,o),
(410,559,c),
(460,559,o),
(487,581,o),
(487,619,cs),
(487,673,o),
(433,724,o),
(322,724,cs),
(145,724,o),
(61,550,o),
(61,360,cs),
(61,97,o),
(160,-10,o),
(293,-10,cs)
);
},
{
closed = 1;
nodes = (
(216,45,o),
(165,125,o),
(163,325,c),
(190,353,o),
(235,383,o),
(287,383,cs),
(364,383,o),
(406,333,o),
(406,219,cs),
(406,98,o),
(367,45,o),
(296,45,cs)
);
}
);
width = 559;
}
);
unicode = 54;
}
{
glyphname = eight;
layers = (
{
layerId = master01;
shapes = (
{
closed = 1;
nodes = (
(419,-10,o),
(513,64,o),
(513,191,cs),
(513,278,o),
(446,336,o),
(347,383,c),
(428,423,o),
(482,464,o),
(482,552,cs),
(482,652,o),
(410,724,o),
(285,724,cs),
(131,724,o),
(69,637,o),
(69,545,cs),
(69,461,o),
(122,405,o),
(198,362,c),
(111,320,o),
(46,275,o),
(46,179,cs),
(46,74,o),
(123,-10,o),
(273,-10,cs)
);
},
{
closed = 1;
nodes = (
(209,447,o),
(163,485,o),
(163,557,cs),
(163,626,o),
(204,677,o),
(279,677,cs),
(363,677,o),
(393,615,o),
(393,554,cs),
(393,484,o),
(373,443,o),
(298,406,c)
);
},
{
closed = 1;
nodes = (
(189,36,o),
(143,92,o),
(143,175,cs),
(143,250,o),
(183,304,o),
(246,338,c),
(375,282,o),
(422,237,o),
(422,169,cs),
(422,92,o),
(365,36,o),
(278,36,cs)
);
}
);
width = 559;
}
);
unicode = 56;
}
{
glyphname = uni4EFF;
layers = (
{
layerId = master01;
shapes = (
{
closed = 1;
nodes = (
(596.333,301.667,o),
(667.333,310.667,o),
(714,320,cs),
(760.667,329.333,o),
(794.667,345,o),
(816,367,cs),
(820,371,o),
(824,371,o),
(828,367,cs),
(886,304,ls),
(889.333,300.667,o),
(889,297,o),
(885,293,cs),
(862,272,ls),
(853.178,264.942,o),
(852,259.957,o),
(852,255,c),
(821.333,114.333,o),
(787,2.333,o),
(749,-81,cs),
(737,-110.333,o),
(710,-141,o),
(686,-153,c),
(682,-154.333,o),
(679.667,-155,o),
(679,-155,cs),
(675.667,-155,o),
(673,-153.333,o),
(671,-150,cs),
(643,-104,o),
(601,-50.667,o),
(545,10,c),
(559,28,l),
(672,-52,ls),
(676.667,-55.333,o),
(680,-57,o),
(682,-57,cs),
(684.667,-57,o),
(687.667,-53.333,o),
(691,-46,cs),
(728.333,28.667,o),
(762,142,o),
(786,258,cs),
(786.667,262,o),
(787,266.333,o),
(787,271,cs),
(787,276.333,o),
(785,278.333,o),
(777,277,cs),
(538,246,l),
(551,299,l),
(551,299,l)
);
},
{
closed = 1;
nodes = (
(418.333,-13.667,o),
(497.667,146.667,o),
(527,360,cs),
(531.667,387.333,o),
(534,413,o),
(534,437,cs),
(534,463,o),
(531,481,o),
(525,491,c),
(558,493,l),
(613,441,l),
(602.333,402.333,o),
(593.333,351.333,o),
(592,342,cs),
(550.667,107.333,o),
(455,-49,o),
(295,-161,c),
(277,-139,l),
(277,-139,l)
);
},
{
closed = 1;
nodes = (
(147.333,402,o),
(264.667,555.333,o),
(306,666,cs),
(312,684,o),
(315,703.333,o),
(315,724,cs),
(315,738,o),
(313.667,750.667,o),
(311,762,c),
(324,768,l),
(398,653,l),
(380.667,633,o),
(366.667,615,o),
(356,599,cs),
(270.667,475,o),
(167.667,365,o),
(47,269,c),
(26,294,l),
(26,294,l)
);
},
{
closed = 1;
nodes = (
(269.667,410,o),
(267,375.667,o),
(267,335,cs),
(267,278,ls),
(266.333,239.333,o),
(266,122.667,o),
(266,-72,c),
(252,-78,l),
(189,-10,ls),
(187,-8,o),
(187,-5,o),
(189,-1,cs),
(199,20.333,o),
(204,42,o),
(204,64,cs),
(205.333,142.667,o),
(206,209.667,o),
(206,265,cs),
(206,321,o),
(205.667,361,o),
(205,385,cs),
(205,401,o),
(201.667,421.667,o),
(195,447,c),
(222,482,l),
(275,438,l),
(275,438,l)
);
},
{
closed = 1;
nodes = (
(466,463.667,o),
(434.333,459.333,o),
(403,454,c),
(337,508,l),
(342,520,l),
(375.333,516.667,o),
(400.667,515,o),
(418,515,cs),
(429.333,515,o),
(445,515.667,o),
(465,517,cs),
(563.667,521,o),
(709.333,535.333,o),
(796,546,cs),
(824.667,549.333,o),
(851,557,o),
(875,569,cs),
(877.667,570.333,o),
(880.667,570,o),
(884,568,cs),
(966,522,l),
(963,505,l),
(811,495.667,o),
(656,483,o),
(498,467,cs)
);
},
{
closed = 1;
nodes = (
(634.667,708.333,o),
(693.667,642,o),
(715,610,cs),
(717.667,606.667,o),
(718,602.333,o),
(716,597,cs),
(678,509,ls),
(676,503,o),
(673.667,500,o),
(671,500,cs),
(668.333,500,o),
(665.667,503.667,o),
(663,511,cs),
(641.667,583,o),
(599.667,681.667,o),
(561,747,c),
(580,763,l),
(580,763,l)
);
}
);
width = 1000;
}
);
unicode = 20223;
}
{
glyphname = u18B00;
layers = (
{
layerId = master01;
shapes = (
{
closed = 1;
nodes = (
(318,232,l),
(446,175.333,o),
(558.333,117.333,o),
(655,58,c),
(658.333,56.667,o),
(660.333,53,o),
(661,47,cs),
(680,-66,l),
(666,-75,l),
(575.333,17,o),
(443.667,121.333,o),
(305,204,c)
);
},
{
closed = 1;
nodes = (
(338,673,l),
(446,639,o),
(545,602,o),
(635,562,cs),
(638.333,560,o),
(640.333,556.333,o),
(641,551,cs),
(663,447,l),
(648,437,l),
(553.333,519.667,o),
(468.333,575.667,o),
(327,649,c)
);
}
);
width = 1000;
}
);
unicode = 101120;
}
{
glyphname = u18B05;
layers = (
{
layerId = master01;
shapes = (
{
closed = 1;
nodes = (
(304,594.667,o),
(263.333,588.667,o),
(220,580,c),
(144,635,l),
(149,648,l),
(179.667,644.667,o),
(212.333,643,o),
(247,643,cs),
(260.333,643,o),
(280.333,643.667,o),
(307,645,cs),
(412.333,653.667,o),
(499.333,661,o),
(568,667,cs),
(612,671,ls),
(676,676.333,o),
(709,682.333,o),
(741,701,cs),
(743.667,702.333,o),
(745.667,702.5,o),
(747,701.5,cs),
(748.333,700.5,o),
(749.333,700,o),
(750,700,c),
(841,650,l),
(838,635,l),
(685.333,626.333,o),
(520,614,o),
(342,598,cs)
);
},
{
closed = 1;
nodes = (
(361.333,279.333,o),
(320.667,273,o),
(272,263,c),
(196,318,l),
(201,331,l),
(239.667,327.667,o),
(270.333,326,o),
(293,326,cs),
(315,326,o),
(337,327,o),
(359,329,cs),
(450.333,335.667,o),
(524,341.667,o),
(580,347,cs),
(644,352.333,o),
(677.333,358,o),
(708,378,c),
(711.333,379.333,o),
(714.333,379,o),
(717,377,c),
(809,328,l),
(806,313,l),
(669,303,ls),
(556.333,295,o),
(464.667,288,o),
(394,282,cs)
);
},
{
closed = 1;
nodes = (
(541,578,l),
(535,546.667,o),
(532,512.333,o),
(532,475,cs),
(532,-20,l),
(472,-27,l),
(472,258,ls),
(472,414.667,o),
(471.667,506,o),
(471,532,cs),
(469.667,562.667,o),
(460.333,598.667,o),
(443,628,c),
(467,639,l),
(467,639,l)
);
},
{
closed = 1;
nodes = (
(194.667,-66.333,o),
(154,-72,o),
(116,-80,c),
(40,-25,l),
(45,-12,l),
(72.333,-14.667,o),
(101,-16,o),
(131,-16,cs),
(146.333,-16,o),
(170,-15.333,o),
(202,-14,cs),
(272.667,-9.333,o),
(341,-5,o),
(407,-1,cs),
(473,3,o),
(538.333,7.333,o),
(603,12,cs),
(756,23,ls),
(801.333,25.667,o),
(844.333,36.333,o),
(885,55,cs),
(889.667,57,o),
(893,57,o),
(895,55,cs),
(958,-6,ls),
(960.667,-8.667,o),
(960.667,-11,o),
(958,-13,c),
(938,-35.667,o),
(815.333,-151.667,o),
(778,-181,c),
(754,-157,l),
(799.333,-111.667,o),
(850,-49,o),
(862,-29,cs),
(865.333,-23.667,o),
(864.333,-21,o),
(859,-21,cs),
(639,-33,o),
(432,-47,o),
(238,-63,cs)
);
}
);
width = 1000;
}
);
unicode = 101125;
}
{
glyphname = u18B07;
layers = (
{
layerId = master01;
shapes = (
{
closed = 1;
nodes = (
(562.667,41.333,o),
(565,-11.667,o),
(567,-43,cs),
(568.333,-57.667,o),
(566.667,-70.667,o),
(562,-82,c),
(553.333,-112,o),
(542.667,-136,o),
(530,-154,c),
(526.667,-157.333,o),
(522.667,-159,o),
(518,-159,cs),
(512,-159,o),
(506.667,-156.333,o),
(502,-151,c),
(450.667,-103.667,o),
(399.667,-63.333,o),
(349,-30,c),
(362,-7,l),
(474,-48,ls),
(478,-49.333,o),
(481,-50,o),
(483,-50,cs),
(489,-50,o),
(492,-45.667,o),
(492,-37,cs),
(495.333,77,o),
(497,202,o),
(497,338,cs),
(496,632,l),
(555,641,l),
(555,544,ls),
(555,452.667,o),
(556.667,310,o),
(560,116,cs)
);
},
{
closed = 1;
nodes = (
(544,457,l),
(656.667,357.667,o),
(782,226.333,o),
(920,63,cs),
(922.667,59,o),
(923,58.333,o),
(923,53,cs),
(923,51.667,o),
(923,50.5,o),
(923,49.5,cs),
(923,48.5,o),
(922.667,47,o),
(922,45,cs),
(897,-59,l),
(883,-59,l),
(791.667,115,o),
(671.667,279.333,o),
(523,434,c)
);
},
{
closed = 1;
nodes = (
(533,270,l),
(328.333,112,o),
(199,8,o),
(145,-42,c),
(47,-10,l),
(47,5,l),
(159.667,60.333,o),
(315.333,158.333,o),
(514,299,c)
);
},
{
closed = 1;
nodes = (
(241.333,590.667,o),
(200.333,584.333,o),
(159,575,c),
(81,632,l),
(86,645,l),
(116,643,o),
(143.333,642,o),
(168,642,cs),
(194.667,642,o),
(220.667,643,o),
(246,645,cs),
(358.667,652.333,o),
(484,663,o),
(622,677,cs),
(636,679,o),
(649.5,680.5,o),
(662.5,681.5,cs),
(675.5,682.5,o),
(687.667,683.667,o),
(699,685,cs),
(768.333,693,o),
(797,697.333,o),
(829,716,cs),
(831.667,717.333,o),
(834.667,717,o),
(838,715,cs),
(931,663,l),
(928,648,l),
(768,637.333,o),
(579,621.667,o),
(361,601,cs),
(326.333,598.333,o),
(300,596,o),
(282,594,cs)
);
},
{
closed = 1;
nodes = (
(555,514,ls),
(555,280.667,o),
(558.333,109.667,o),
(565,1,cs),
(565.667,-19.667,o),
(564.333,-41.333,o),
(561,-64,cs),
(553,-106.667,o),
(542.333,-128.333,o),
(525,-155,cs),
(520.333,-161.667,o),
(515.333,-162.333,o),
(510,-157,cs),
(456,-104.333,o),
(401,-61.333,o),
(345,-28,c),
(358,-3,l),
(475,-50,ls),
(477,-50.667,o),
(479.333,-51,o),
(482,-51,cs),
(488.667,-51,o),
(492.667,-45,o),
(494,-33,cs),
(497.333,11,o),
(499,104.667,o),
(499,248,cs),
(499,306,o),
(498,426,o),
(496,608,cs),
(496,636,l),
(555,642,l),
(555,642,l)
);
},
{
closed = 1;
nodes = (
(171,481,l),
(247.667,453.667,o),
(307.667,428,o),
(351,404,c),
(355,400.667,o),
(357.667,395,o),
(359,387,cs),
(368,296,l),
(355,290,l),
(308.333,348.667,o),
(225.333,421.667,o),
(160,459,c)
);
}
);
width = 1000;
}
);
unicode = 101127;
}
{
glyphname = u18B08;
layers = (
{
layerId = master01;
shapes = (
{
closed = 1;
nodes = (
(810.667,97.667,o),
(842.5,66.333,o),
(884.5,45,cs),
(905.5,34.333,o),
(935,22.667,o),
(973,10,c),
(972,-13,l),
(810,-23,l),
(806,-23,ls),
(798.667,-23,o),
(793.333,-20.333,o),
(790,-15,cs),
(759,42,ls),
(734.333,86,o),
(723.333,105.667,o),
(726,101,cs),
(676.667,186.333,o),
(623,260,o),
(527,388,c),
(528,446,l),
(642,306,ls),
(690.667,247.333,o),
(727.333,202.333,o),
(752,171,cs)
);
},
{
closed = 1;
nodes = (
(303.667,420,o),
(342.667,436.333,o),
(368,459,cs),
(371.333,462.333,o),
(374.667,462.333,o),
(378,459,cs),
(434,399,l),
(437.333,396.333,o),
(437.333,393.333,o),
(434,390,cs),
(413,368,ls),
(407,362,o),
(402.333,355.333,o),
(399,348,cs),
(324.333,165.333,o),
(212.333,32.667,o),
(47,-86,c),
(29,-63,l),
(172.333,58.333,o),
(272.333,196,o),
(329,350,c),
(331,359,l),
(331,367,o),
(325.333,370,o),
(314,368,cs),
(260.667,360.667,o),
(191,348,o),
(105,330,c),
(42,383,l),
(47,395,l),
(61.667,393,o),
(77.333,392,o),
(94,392,cs),
(140.667,392,o),
(193,398,o),
(251,410,cs)
);
},
{
closed = 1;
nodes = (
(270.667,593.667,o),
(239.667,589,o),
(213,583,c),
(146,637,l),
(151,649,l),
(175,646.333,o),
(197.667,645,o),
(219,645,cs),
(232.333,645,o),
(250.333,645.667,o),
(273,647,cs),
(397,655,o),
(611,672.667,o),
(675,682,cs),
(704.333,686.667,o),
(730,694.333,o),
(752,705,cs),
(754.667,706.333,o),
(757.667,706,o),
(761,704,cs),
(844,659,l),
(841,642,l),
(778.333,638,o),
(426,607.667,o),
(306,597,cs)
);
},
{
closed = 1;
nodes = (
(535,515,ls),
(535,287.667,o),
(538.333,119.667,o),
(545,11,cs),
(545.667,-9.667,o),
(544.333,-31.333,o),
(541,-54,cs),
(533,-96.667,o),
(522.333,-118.333,o),
(505,-145,cs),
(500.333,-151.667,o),
(495.333,-152.333,o),
(490,-147,cs),
(442.667,-97.667,o),
(388.333,-50.667,o),
(327,-6,c),
(340,17,l),
(455,-40,l),
(459,-41.333,o),
(461.333,-42,o),
(462,-42,cs),
(468.667,-42,o),
(472.667,-35.667,o),
(474,-23,cs),
(477.333,21,o),
(479,113.333,o),
(479,254,cs),
(479,307.333,o),
(478,424,o),
(476,604,cs),
(476,636,l),
(535,642,l),
(535,642,l)
);
},
{
closed = 1;
nodes = (
(614,306,l),
(684.667,355.333,o),
(742,419,o),
(770,471,cs),
(787.333,499.667,o),
(796,526.667,o),
(796,552,c),
(811,554,l),
(859,450,l),
(840,433,ls),
(819.333,413.667,o),
(805,401,o),
(797,395,cs),
(743.667,351,o),
(688,313.333,o),
(630,282,c)
);
}
);
width = 1000;
}
);
unicode = 101128;
}
{
glyphname = u18B0A;
layers = (
{
layerId = master01;
shapes = (
{
closed = 1;
nodes = (
(969,-87,l),
(819,-104,l),
(814,-104,ls),
(808.667,-104,o),
(805,-102.667,o),
(803,-100,cs),
(712.333,2.667,o),
(593.333,119.333,o),
(484,214,c),
(501,260,l),
(559,209,ls),
(634.333,143,o),
(695,90.667,o),
(741,52,cs),
(826.333,-20,o),
(890,-51.667,o),
(970,-61,c)
);
},
{
closed = 1;
nodes = (
(506,641,l),
(506,479.667,o),
(508,117.667,o),
(512,15,cs),
(512.667,-5.667,o),
(511.333,-27.333,o),
(508,-50,cs),
(500,-94,o),
(491.333,-112,o),
(474,-140,c),
(466.667,-147.333,o),
(461.667,-151,o),
(459,-151,cs),
(456.333,-151,o),
(453,-149,o),
(449,-145,cs),
(403.667,-95,o),
(344,-45.333,o),
(270,4,c),
(283,26,l),
(420,-34,ls),
(424,-36,o),
(427.333,-37,o),
(430,-37,cs),
(434.667,-37,o),
(437.667,-32.333,o),
(439,-23,cs),
(445,28.333,o),
(448,144,o),
(448,324,cs),
(448,490.667,o),
(446.333,594,o),
(443,634,c)
);
},
{
closed = 1;
nodes = (
(479,476,l),
(523,478.667,o),
(625,490,o),
(689,498,cs),
(735,504.667,o),
(770,520,o),
(794,544,cs),
(797.333,547.333,o),
(800.333,547.333,o),
(803,544,cs),
(861,485,ls),
(864.333,482.333,o),
(864.333,479.333,o),
(861,476,cs),
(846.333,463.333,o),
(832.333,449,o),
(819,433,cs),
(727,325,o),
(650.333,272,o),
(509,216,c),
(492,250,l),
(622.667,310,o),
(675.667,356.333,o),
(749,439,cs),
(753.667,444.333,o),
(756,448.333,o),
(756,451,cs),
(756,454.333,o),
(751.667,455.333,o),
(743,454,cs),
(501,423,l),
(501,423,l)
);
},
{
closed = 1;
nodes = (
(277.333,205.667,o),
(245.333,104,o),
(180,12,cs),
(147.333,-34,o),
(104.333,-76.333,o),
(51,-115,c),
(32,-94,l),
(165.333,24.667,o),
(219,163.667,o),
(235,357,cs),
(235.667,361.667,o),
(236,368.667,o),
(236,378,cs),
(236,420.667,o),
(224.667,454,o),
(198,490,c),
(210,502,l),
(314,418,l),
(306,396.667,o),
(301.333,356.333,o),
(300,347,cs)
);
},
{
closed = 1;
nodes = (
(242.333,590.667,o),
(201.333,584.333,o),
(160,575,c),
(82,632,l),
(87,645,l),
(117,643,o),
(144.333,642,o),
(169,642,cs),
(195.667,642,o),
(221.667,643,o),
(247,645,cs),
(359.667,652.333,o),
(485,663,o),
(623,677,cs),
(637,679,o),
(650.5,680.5,o),
(663.5,681.5,cs),
(676.5,682.5,o),
(688.667,683.667,o),
(700,685,cs),
(769.333,693,o),
(798,697.333,o),
(830,716,cs),
(832.667,717.333,o),
(835.667,717,o),
(839,715,cs),
(932,663,l),
(929,648,l),
(769,637.333,o),
(580,621.667,o),
(362,601,cs),
(327.333,598.333,o),
(301,596,o),
(283,594,cs)
);
}
);
width = 1000;
}
);
unicode = 101130;
}
{
glyphname = u18B10;
layers = (
{
layerId = master01;
shapes = (
{
closed = 1;
nodes = (
(59,-137,l),
(296.333,-38.333,o),
(405.333,90,o),
(440,238,cs),
(457.333,312,o),
(466,404.333,o),
(466,515,cs),
(466,557.667,o),
(454.333,615,o),
(433,647,c),
(445,656,l),
(547,583,l),
(541.667,551,o),
(537.667,509,o),
(535,457,cs),
(521.667,206.333,o),
(455,59.167,o),
(327,-37.5,cs),
(263,-85.833,o),
(177.667,-129,o),
(71,-167,c)
);
},
{
closed = 1;
nodes = (
(960,-128,l),
(771,-142,l),
(767,-142,ls),
(761.667,-142,o),
(757.333,-140.333,o),
(754,-137,cs),
(663.333,-25.667,o),
(564.667,88,o),
(458,204,c),
(487,232,l),
(590.333,127.333,o),
(663.333,56,o),
(706,18,cs),
(795.333,-63.333,o),
(861,-88.667,o),
(961,-102,c)
);
},
{
closed = 1;
nodes = (
(199,551,l),
(275.667,492.333,o),
(331.333,443.333,o),
(366,404,cs),
(368.667,401.333,o),
(370,398.333,o),
(370,395,cs),
(370,391.667,o),
(369,387.333,o),
(367,382,cs),
(342,309,l),
(327,311,l),
(293.667,383,o),
(234.333,478,o),
(181,534,c)
);
},
{
closed = 1;
nodes = (
(197,189.667,o),
(155,184,o),
(115,176,c),
(37,234,l),
(42,247,l),
(74,243.667,o),
(107.667,242,o),
(143,242,cs),
(170.333,242,o),
(190.667,242.333,o),
(204,243,cs),
(379,255,ls),
(485.667,261.667,o),
(601,270.333,o),
(725,281,cs),
(793,286.333,o),
(823.667,291.333,o),
(857,310,cs),
(859,311.333,o),
(862,310.667,o),
(866,308,cs),
(959,256,l),
(956,241,l),
(670.667,224.333,o),
(432.333,208.333,o),
(241,193,cs)
);
},
{
closed = 1;
nodes = (
(268.667,610.667,o),
(238,606,o),
(212,600,c),
(144,653,l),
(149,665,l),
(169.667,662.333,o),
(190,661,o),
(210,661,cs),
(220.667,661,o),
(232,661.5,o),
(244,662.5,cs),
(256,663.5,o),
(265,664,o),
(271,664,cs),
(377.667,672,o),
(585,691,o),
(649,699,cs),
(677.667,704.333,o),
(703,712.333,o),
(725,723,cs),
(727.667,724.333,o),
(730.667,724,o),
(734,722,cs),
(818,678,l),
(815,661,l),
(676.333,650.333,o),
(341.333,619.333,o),
(304,614,cs)
);
},
{
closed = 1;
nodes = (
(573,341,l),
(637,398.333,o),
(686.333,461,o),
(709,513,cs),
(723,544.333,o),
(729,572,o),
(727,596,c),
(742,600,l),
(798,500,l),
(780,481,ls),
(754,453,o),
(741.333,439.333,o),
(742,440,cs),
(696.667,396,o),
(655,360.333,o),
(591,319,c)
);
}
);
width = 1000;
}
);
unicode = 101136;
}
{
glyphname = u18B11;
layers = (
{
layerId = master01;
shapes = (
{
closed = 1;
nodes = (
(59,-139,l),
(295,-40.333,o),
(402.333,91.5,o),
(437,241.5,cs),
(454.333,316.5,o),
(463,409.333,o),
(463,520,cs),
(463,562.667,o),
(451.333,618,o),
(430,650,c),
(442,659,l),
(540,594,l),
(537.333,572.667,o),
(535.333,542,o),
(534,502,cs),
(526,220.667,o),
(461.833,63.667,o),
(334.5,-35,cs),
(270.833,-84.333,o),
(183.333,-129,o),
(72,-169,c)
);
},
{
closed = 1;
nodes = (
(261,178,ls),
(216.333,173.333,o),
(174.667,167.333,o),
(136,160,c),
(57,217,l),
(62,230,l),
(102,226.667,o),
(133.667,225,o),
(157,225,cs),
(179.667,225,o),
(202,226,o),
(224,228,cs),
(397.333,242,o),
(559.333,256.333,o),
(710,271,cs),
(774,277.667,o),
(809,284.333,o),
(841,303,cs),
(843.667,304.333,o),
(846.667,304,o),
(850,302,cs),
(944,250,l),
(941,235,l),
(791,224.333,o),
(613.333,209.667,o),
(408,191,cs)
);
},
{
closed = 1;
nodes = (
(275.667,389.667,o),
(244.667,385,o),
(218,379,c),
(151,433,l),
(156,445,l),
(180,442.333,o),
(202.667,441,o),
(224,441,cs),
(237.333,441,o),
(255.333,441.667,o),
(278,443,cs),
(387.333,449.667,o),
(583,466.667,o),
(651,476,cs),
(680.333,480.667,o),
(706,488.333,o),
(728,499,cs),
(730.667,500.333,o),
(733.667,500,o),
(737,498,cs),
(820,453,l),
(817,436,l),
(755.667,432,o),
(425.667,403.667,o),
(311,393,cs)
);
},
{
closed = 1;
nodes = (
(267.667,610.667,o),
(236.667,606,o),
(210,600,c),
(143,654,l),
(148,666,l),
(172,663.333,o),
(194.667,662,o),
(216,662,cs),
(229.333,662,o),
(247.333,662.667,o),
(270,664,cs),
(379.333,670.667,o),
(585.333,688,o),
(648,696,cs),
(677.333,700.667,o),
(703,708.333,o),
(725,719,cs),
(727.667,720.333,o),
(730.667,720,o),
(734,718,cs),
(817,673,l),
(814,656,l),
(751.333,652,o),
(417.667,624.667,o),
(303,614,cs)
);
},
{
closed = 1;
nodes = (
(538,118,l),
(695.333,54,o),
(789,10.667,o),
(901,-56,c),
(904.333,-57.333,o),
(906,-60,o),
(906,-64,cs),
(910,-164,l),
(894,-169,l),
(802,-77,o),
(669.667,17,o),
(527,93,c)
);
}
);
width = 1000;
}
);
unicode = 101137;
}
{
glyphname = u18B14;
layers = (
{
layerId = master01;
shapes = (
{
closed = 1;
nodes = (
(658,449,l),
(759.333,342.333,o),
(851.667,232.333,o),
(935,119,cs),
(937.667,115,o),
(938.333,113.667,o),
(937,107,cs),
(911,1,l),
(894,-2,l),
(836,133.333,o),
(750.333,277,o),
(637,429,c)
);
},
{
closed = 1;
nodes = (
(43,-1,l),
(169.667,117.667,o),
(276.667,261.667,o),
(314,371,cs),
(319.333,388.333,o),
(322,405.667,o),
(322,423,cs),
(322,437.667,o),
(320,452,o),
(316,466,c),
(329,473,l),
(403,368,l),
(398.333,362,o),
(390.333,350,o),
(379,332,cs),
(366,310,ls),
(282,183.333,o),
(195.667,84.667,o),
(65,-26,c)
);
},
{
closed = 1;
nodes = (
(218.333,590,o),
(176.667,584.333,o),
(134,577,c),
(55,635,l),
(60,648,l),
(93.333,644,o),
(130.333,642,o),
(171,642,cs),
(193.667,642,o),
(210.667,642.333,o),
(222,643,cs),
(416,657,ls),
(557.333,667,o),
(653.667,674.333,o),
(705,679,cs),
(777,684.333,o),
(808.667,689.667,o),
(842,707,cs),
(844,708.333,o),
(846.667,708,o),
(850,706,cs),
(944,652,l),
(941,638,l),
(750.333,628,o),
(523,613.333,o),
(259,594,cs)
);
},
{
closed = 1;
nodes = (
(561,588,l),
(554.333,559.333,o),
(551,525,o),
(551,485,cs),
(550,168,ls),
(548.667,24,o),
(548,-81.667,o),
(548,-149,c),
(535,-155,l),
(470,-87,ls),
(468.667,-85.667,o),
(468.667,-82.667,o),
(470,-78,cs),
(478,-60,o),
(482.667,-38.333,o),
(484,-13,cs),
(487.333,71.667,o),
(489,193,o),
(489,351,cs),
(489,441.667,o),
(488.333,505.333,o),
(487,542,cs),
(485.667,577.333,o),
(479,607.667,o),
(467,633,c),
(496,645,l),
(496,645,l)
);
}
);
width = 1000;
}
);
unicode = 101140;
}
{
glyphname = u18B18;
layers = (
{
layerId = master01;
shapes = (
{
closed = 1;
nodes = (
(282,422,ls),
(547.333,440.667,o),
(690.333,451.667,o),
(711,455,cs),
(758.333,464.333,o),
(793.333,480.333,o),
(816,503,cs),
(819.333,506.333,o),
(822.667,506.333,o),
(826,503,cs),
(886,440,l),
(889.333,437.333,o),
(889.333,434.333,o),
(886,431,cs),
(861,408,ls),
(853,401.333,o),
(851,399,o),
(851,391,cs),
(851,253,o),
(849.5,153.333,o),
(846.5,92,cs),
(843.5,30.667,o),
(837,-21.667,o),
(827,-65,cs),
(819.667,-97,o),
(808,-120.667,o),
(792,-136,cs),
(790,-138,o),
(788,-139,o),
(786,-139,cs),
(782.667,-139,o),
(779.667,-137.333,o),
(777,-134,cs),
(751.667,-103.333,o),
(702.333,-62,o),
(629,-10,c),
(640,10,l),
(748,-38,ls),
(752,-40,o),
(755,-41,o),
(757,-41,cs),
(760.333,-41,o),
(762.667,-37.333,o),
(764,-30,cs),
(778,20.667,o),
(785,115.333,o),
(785,254,cs),
(785,316.667,o),
(784.333,365,o),
(783,399,cs),
(783,408.333,o),
(779.667,411.333,o),
(773,410,c),
(718.333,405.333,o),
(632.667,398.667,o),
(516,390,cs),
(348.667,377.333,o),
(242.667,368.667,o),
(198,364,c),
(194,416,l),
(194,416,l)
);
},
{
closed = 1;
nodes = (
(229,413,l),
(223.667,385,o),
(221,350.667,o),
(221,310,cs),
(221,-128,l),
(207,-134,l),
(144,-66,ls),
(142,-64,o),
(142,-61,o),
(144,-57,cs),
(154,-36.333,o),
(159,-14.667,o),
(159,8,cs),
(160.333,78.667,o),
(161,137.667,o),
(161,185,cs),
(161,232.333,o),
(160.333,290.667,o),
(159,360,cs),
(157.667,400,o),
(144,454,o),
(116,486,c),
(128,497,l),
(128,497,l)
);
},
{
closed = 1;
nodes = (
(236.333,609.333,o),
(194.667,603.333,o),
(156,596,c),
(77,651,l),
(82,664,l),
(109.333,661.333,o),
(137,660,o),
(165,660,cs),
(184.333,660,o),
(210.667,660.667,o),
(244,662,cs),
(440,677,ls),
(559.333,685.667,o),
(643,692.333,o),
(691,697,cs),
(755,702.333,o),
(789,708.667,o),
(821,726,cs),
(823.667,727.333,o),
(826.667,727,o),
(830,725,cs),
(924,675,l),
(921,661,l),
(741.667,650.333,o),
(528.333,634.667,o),
(281,614,cs)
);
},
{
closed = 1;
nodes = (
(545,593,l),
(538.333,564.333,o),
(535,530,o),
(535,490,cs),
(534,175,ls),
(532.667,31,o),
(532,-74.333,o),
(532,-141,c),
(519,-147,l),
(456,-79,ls),
(454.667,-77.667,o),
(454.667,-74.667,o),
(456,-70,cs),
(464,-52,o),
(468.667,-30.333,o),
(470,-5,cs),
(473.333,73.667,o),
(475,185.667,o),
(475,331,cs),
(475,414.333,o),
(474,486.333,o),
(472,547,cs),
(470.667,585,o),
(461.333,618.333,o),
(444,647,c),
(462,661,l),
(462,661,l)
);
},
{
closed = 1;
nodes = (
(445.667,167.333,o),
(433.333,166,o),
(432,166,cs),
(418.667,164.667,o),
(356.333,158.667,o),
(331,152,c),
(261,204,l),
(266,217,l),
(290.667,214.333,o),
(314.667,213,o),
(338,213,cs),
(353.333,213,o),
(371.667,213.667,o),
(393,215,cs),
(405,216.333,o),
(424.333,217.667,o),
(451,219,cs),
(523.667,223,o),
(569,226.667,o),
(587,230,cs),
(609,233.333,o),
(625,237.333,o),
(635,242,cs),
(645,246.667,o),
(651.333,249.667,o),
(654,251,cs),
(656.667,252.333,o),
(659.667,252.333,o),
(663,251,cs),
(749,209,l),
(746,191,l),
(656.667,185.667,o),
(541,176.667,o),
(469,170,cs)
);
}
);
width = 1000;
}
);
unicode = 101144;
}
{
glyphname = u18B1E;
layers = (
{
layerId = master01;
shapes = (
{
closed = 1;
nodes = (
(297,416,l),
(351,471.333,o),
(392.667,522.667,o),
(422,570,cs),
(444,604.667,o),
(455.333,635,o),
(456,661,c),
(478,665,l),
(515,567,l),
(511.667,564.333,o),
(500.333,553.333,o),
(481,534,cs),
(423.667,475.333,o),
(390.333,445,o),
(341,409,c)
);
},
{
closed = 1;
nodes = (
(208,417,l),
(514.667,440.333,o),
(679.333,454,o),
(702,458,cs),
(749.333,467.333,o),
(784.333,483.333,o),
(807,506,cs),
(810.333,509.333,o),
(813.667,509.333,o),
(817,506,cs),
(877,443,l),
(880.333,440.333,o),
(880.333,437.333,o),
(877,434,cs),
(852,411,ls),
(844,404.333,o),
(842,402,o),
(842,394,cs),
(842,256,o),
(840.5,156.833,o),
(837.5,96.5,cs),
(834.5,36.167,o),
(828,-16,o),
(818,-60,cs),
(810,-96,o),
(798.333,-121,o),
(783,-135,cs),
(781,-137,o),
(779,-138,o),
(777,-138,cs),
(773.667,-138,o),
(770.667,-136.333,o),
(768,-133,cs),
(738.667,-97,o),
(687,-50.667,o),
(627,-8,c),
(638,12,l),
(739,-33,ls),
(743,-35,o),
(746,-36,o),
(748,-36,cs),
(751.333,-36,o),
(753.667,-32.333,o),
(755,-25,cs),
(769,26.333,o),
(776,120,o),
(776,256,cs),
(776,318.667,o),
(775.333,367.333,o),
(774,402,cs),
(774,411.333,o),
(770.667,414.333,o),
(764,413,c),
(492,389,ls),
(392,381,o),
(298.667,373,o),
(212,365,c)
);
},
{
closed = 1;
nodes = (
(247,413,l),
(241.667,385,o),
(239,350.667,o),
(239,310,cs),
(239,-133,l),
(225,-139,l),
(162,-71,ls),
(160,-69,o),
(160,-66,o),
(162,-62,cs),
(172,-41.333,o),
(177,-19.667,o),
(177,3,cs),
(178.333,75,o),
(179,134.667,o),
(179,182,cs),
(179,231.333,o),
(178.333,290.667,o),
(177,360,cs),
(175.667,400,o),
(162,454,o),
(134,486,c),
(146,497,l),
(146,497,l)
);
},
{
closed = 1;
nodes = (
(235.333,607.333,o),
(193.667,601.333,o),
(155,594,c),
(76,652,l),
(81,665,l),
(112.333,661.667,o),
(146,660,o),
(182,660,cs),
(209.333,660,o),
(229.667,660.333,o),
(243,661,cs),
(429,675.667,o),
(578.667,688,o),
(692,698,cs),
(756,703.333,o),
(790,709.667,o),
(822,727,cs),
(824.667,728.333,o),
(827.667,728,o),
(831,726,cs),
(925,673,l),
(922,659,l),
(706,647,o),
(506.667,630.667,o),
(280,612,cs)
);
},
{
closed = 1;
nodes = (
(530,244,l),
(530,208.667,o),
(529.667,178.667,o),
(529,154,cs),
(528,-113,l),
(514,-119,l),
(453,-51,ls),
(451,-49,o),
(451,-46,o),
(453,-42,cs),
(463,-21.333,o),
(468,0.333,o),
(468,23,cs),
(468.667,53,o),
(469,102.667,o),
(469,172,cs),
(469,238,l),
(469,238,l)
);
},
{
closed = 1;
nodes = (
(404,204.333,o),
(372,199.333,o),
(338,192,c),
(267,244,l),
(272,257,l),
(306.667,253.667,o),
(333.333,252,o),
(352,252,cs),
(364.667,252,o),
(380.333,252.667,o),
(399,254,cs),
(454,258,ls),
(517.333,262,o),
(559.667,265.333,o),
(581,268,cs),
(603,271.333,o),
(619.333,275.333,o),
(630,280,cs),
(640.667,284.667,o),
(647,287.667,o),
(649,289,cs),
(651.667,290.333,o),
(654.667,290.333,o),
(658,289,cs),
(743,246,l),
(740,228,l),
(669.333,225.333,o),
(511.333,213.667,o),
(434,207,cs)
);
}
);
width = 1000;
}
);
unicode = 101150;
}
{
glyphname = u18B21;
layers = (
{
layerId = master01;
shapes = (
{
closed = 1;
nodes = (
(187,416,l),
(510.333,440.667,o),
(687.333,455.667,o),
(718,461,cs),
(765.333,470.333,o),
(800.333,486.333,o),
(823,509,cs),
(826.333,512.333,o),
(829.667,512.333,o),
(833,509,cs),
(893,446,l),
(896.333,443.333,o),
(896.333,440.333,o),
(893,437,cs),
(868,414,ls),
(860,407.333,o),
(858,405,o),
(858,397,cs),
(858,260.333,o),
(856,160.5,o),
(852,97.5,cs),
(848,34.5,o),
(840.667,-20.667,o),
(830,-68,cs),
(822.667,-100,o),
(811,-123.667,o),
(795,-139,cs),
(793,-141,o),
(791,-142,o),
(789,-142,cs),
(785.667,-142,o),
(782.667,-140.333,o),
(780,-137,cs),
(746.667,-95.667,o),
(716,-66,o),
(660,-26,c),
(672,-4,l),
(755,-41,ls),
(759,-43,o),
(762,-44,o),
(764,-44,cs),
(767.333,-44,o),
(769.667,-40.333,o),
(771,-33,cs),
(785.667,21,o),
(793,114.667,o),
(793,248,cs),
(793,296.667,o),
(792,349,o),
(790,405,cs),
(790,414.333,o),
(786.667,417.333,o),
(780,416,c),
(676,406.667,o),
(604.333,400.667,o),
(565,398,cs),
(527,394.667,o),
(466,389.333,o),
(382,382,cs),
(298,374.667,o),
(234.333,368.667,o),
(191,364,c)
);
},
{
closed = 1;
nodes = (
(222,413,l),
(216.667,385,o),
(214,350.667,o),
(214,310,cs),
(214,-133,l),
(200,-139,l),
(137,-71,ls),
(135,-69,o),
(135,-66,o),
(137,-62,cs),
(147,-41.333,o),
(152,-19.667,o),
(152,3,cs),
(153.333,75,o),
(154,134.667,o),
(154,182,cs),
(154,231.333,o),
(153.333,290.667,o),
(152,360,cs),
(150.667,400,o),
(137,454,o),
(109,486,c),
(121,497,l),
(121,497,l)
);
},
{
closed = 1;
nodes = (
(423,414,l),
(421.667,208.667,o),
(421,56.333,o),
(421,-43,c),
(407,-49,l),
(346,19,ls),
(344.667,20.333,o),
(344.667,23.333,o),
(346,28,cs),
(354,46,o),
(358.667,67.667,o),
(360,93,cs),
(362.667,157.667,o),
(364.667,260.667,o),
(366,402,cs),
(366,407,l),
(366,407,l)
);
},
{
closed = 1;
nodes = (
(621,424,l),
(619.667,218.667,o),
(619,63,o),
(619,-43,c),
(605,-49,l),
(544,19,ls),
(542.667,20.333,o),
(542.667,23.333,o),
(544,28,cs),
(552,46,o),
(556.667,67.667,o),
(558,93,cs),
(560.667,157,o),
(562.667,265,o),
(564,417,c)
);
},
{
closed = 1;
nodes = (
(319,408,l),
(372.333,466,o),
(414.333,523.667,o),
(445,581,cs),
(463,611,o),
(472.667,637.333,o),
(474,660,c),
(504,661,l),
(540,581,l),
(535.333,577.667,o),
(524.333,566.333,o),
(507,547,cs),
(444.333,475,o),
(415,443,o),
(359,403,c)
);
},
{
closed = 1;
nodes = (
(218.333,608.333,o),
(176.667,602.333,o),
(138,595,c),
(59,653,l),
(64,666,l),
(95.333,662.667,o),
(129,661,o),
(165,661,cs),
(192.333,661,o),
(212.667,661.333,o),
(226,662,cs),
(434,678,ls),
(538.667,685.333,o),
(628,692.333,o),
(702,699,cs),
(764.667,704.333,o),
(798.667,711.667,o),
(832,729,cs),
(834.667,730.333,o),
(837.667,730,o),
(841,728,cs),
(935,675,l),
(932,661,l),
(712,647.667,o),
(489,631.667,o),
(263,613,cs)
);
}
);
width = 1000;
}
);
unicode = 101153;
}
{
glyphname = u18B24;
layers = (
{
layerId = master01;
shapes = (
{
closed = 1;
nodes = (
(197.333,231.333,o),
(155.667,225.333,o),
(117,218,c),
(38,275,l),
(43,288,l),
(72.333,285.333,o),
(101.333,284,o),
(130,284,cs),
(156,284,o),
(181,285,o),
(205,287,cs),
(233,289.667,o),
(253.333,291.333,o),
(266,292,cs),
(302,295.333,o),
(344.667,299.167,o),
(394,303.5,cs),
(443.333,307.833,o),
(502.333,313.333,o),
(571,320,cs),
(637.667,326.667,o),
(670,332.333,o),
(702,351,cs),
(704.667,352.333,o),
(707.667,352,o),
(711,350,cs),
(805,298,l),
(802,283,l),
(530,264.333,o),
(479.333,260,o),
(242,236,cs)
);
},
{
closed = 1;
nodes = (
(242,588,o),
(211.333,583,o),
(192,579,c),
(124,632,l),
(129,644,l),
(154.333,642,o),
(175.667,641,o),
(193,641,cs),
(207.667,641,o),
(227,641.667,o),
(251,643,cs),
(365.667,652.333,o),
(494.333,662.667,o),
(561,672,cs),
(589.667,677.333,o),
(615,685.333,o),
(637,696,cs),
(639.667,697.333,o),
(642.667,697,o),
(646,695,cs),
(730,651,l),
(727,634,l),
(661,630,o),
(513.333,616.667,o),
(284,594,cs)
);
},
{
closed = 1;
nodes = (
(800,631,l),
(852,560.333,o),
(908.667,467.667,o),
(942,401,c),
(943.333,396.333,o),
(943.333,392.333,o),
(942,389,cs),
(902,310,l),
(884,310,l),
(860,422,o),
(833.667,502.333,o),
(779,617,c)
);
},
{
closed = 1;
nodes = (
(477,565,l),
(470.333,539.667,o),
(467,505.667,o),
(467,463,cs),
(467,-2,ls),
(467,-43.333,o),
(472.667,-54.667,o),
(502,-56,cs),
(536,-58,o),
(575.333,-59,o),
(620,-59,cs),
(701.333,-59,o),
(789.667,-55.333,o),
(827,-50,cs),
(848.333,-47.333,o),
(852.667,-42.333,o),
(854,-21,cs),
(863,130,l),
(887,130,l),
(893.667,63.333,o),
(911,-35.667,o),
(927,-81,c),
(927.667,-81.667,o),
(928,-83,o),
(928,-85,cs),
(928,-88.333,o),
(926.333,-90.667,o),
(923,-92,cs),
(894.333,-104.667,o),
(857,-112.333,o),
(811,-115,cs),
(743,-119.667,o),
(680.333,-122,o),
(623,-122,cs),
(592.333,-122,o),
(547.667,-120.667,o),
(489,-118,cs),
(427.667,-115.333,o),
(403,-85.667,o),
(403,-15,cs),
(403,518,ls),
(403,558.667,o),
(392,595,o),
(370,627,c),
(397,631,l),
(397,631,l)
);
}
);
width = 1000;
}
);
unicode = 101156;
}
{
glyphname = u18B25;
layers = (
{
layerId = master01;
shapes = (
{
closed = 1;
nodes = (
(459,618,l),
(483,287.333,o),
(592.333,12,o),
(827,-68,cs),
(833,-70,o),
(837.667,-71,o),
(841,-71,cs),
(846.333,-71,o),
(847,-67,o),
(847,-63,cs),
(850,128,l),
(874,129,l),
(884.667,22.333,o),
(905.667,-85.667,o),
(927,-143,c),
(927.667,-143.667,o),
(928,-144.667,o),
(928,-146,cs),
(928,-149.333,o),
(925.667,-151.333,o),
(921,-152,cs),
(901,-153,ls),
(831,-153,o),
(762.667,-128.667,o),
(696,-80,cs),
(572,10.667,o),
(496.167,138.167,o),
(451.5,301.5,cs),
(429.167,383.167,o),
(410.333,481.333,o),
(395,596,c)
);
},
{
closed = 1;
nodes = (
(62,-40,l),
(390,80,o),
(627,274.333,o),
(763,457,cs),
(785,486.333,o),
(795,520.667,o),
(793,560,c),
(808,562,l),
(858,448,l),
(848.667,439.333,o),
(832,421.667,o),
(808,395,cs),
(780,364,ls),
(608,172,o),
(350,3.667,o),
(74,-71,c)
);
},
{
closed = 1;
nodes = (
(280,535,ls),
(240,525,o),
(199.667,513.333,o),
(159,500,c),
(73,546,l),
(76,560,l),
(120.667,561.333,o),
(174.333,567.333,o),
(237,578,c),
(331.667,599.333,o),
(451,626.667,o),
(595,660,cs),
(633,669,ls),
(691.667,682.333,o),
(726.333,694.667,o),
(757,716,c),
(759,718,o),
(762,718.333,o),
(766,717,cs),
(867,677,l),
(866,663,l),
(752,640.333,o),
(599,607.333,o),
(407,564,cs)
);
}
);
width = 1000;
}
);
unicode = 101157;
}
{
glyphname = u18B2C;
layers = (
{
layerId = master01;
shapes = (
{
closed = 1;
nodes = (
(350,-106.333,o),
(310.667,-111.667,o),
(276,-119,c),
(202,-64,l),
(207,-51,l),
(237.667,-54.333,o),
(269,-56,o),
(301,-56,cs),
(313,-56,o),
(332.333,-55.333,o),
(359,-54,cs),
(392,-52,ls),
(446,-49.333,o),
(484,-46.667,o),
(506,-44,cs),
(554,-37.333,o),
(581,-32.667,o),
(613,-14,c),
(616.333,-12.667,o),
(619.333,-13,o),
(622,-15,cs),
(713,-67,l),
(710,-82,l),
(594.667,-88.667,o),
(489.333,-95.667,o),
(394,-103,cs)
);
},
{
closed = 1;
nodes = (
(437,-86,l),
(437,-4.667,o),
(435.667,73,o),
(433,147,cs),
(431.667,187,o),
(420,235,o),
(392,267,c),
(402,279,l),
(509,193,l),
(502.333,164.333,o),
(499,130,o),
(499,90,cs),
(499,-79,l),
(499,-79,l)
);
},
{
closed = 1;
nodes = (
(315.667,198.333,o),
(213.333,3.333,o),
(64,-158,c),
(40,-138,l),
(177.333,38,o),
(278.333,251.333,o),
(313,462,cs),
(315,473.333,o),
(316,485.333,o),
(316,498,cs),
(316,525.333,o),
(310,550.667,o),
(298,574,c),
(311,584,l),
(406,493,l),
(395.333,473,o),
(385,442.333,o),
(373,397,cs)
);
},
{
closed = 1;
nodes = (
(224.333,316.333,o),
(182.667,310.333,o),
(144,303,c),
(65,360,l),
(70,373,l),
(100,370.333,o),
(130.667,369,o),
(162,369,cs),
(178,369,o),
(201.333,369.667,o),
(232,371,cs),
(390.667,383,o),
(542,396,o),
(686,410,cs),
(756.667,418,o),
(785,421.333,o),
(817,440,cs),
(819.667,441.333,o),
(822.667,441,o),
(826,439,cs),
(920,387,l),
(917,372,l),
(710.333,358,o),
(494.333,341,o),
(269,321,cs)
);
},
{
closed = 1;
nodes = (
(325.667,627.667,o),
(294.667,623,o),
(268,617,c),
(201,671,l),
(206,683,l),
(230,680.333,o),
(252.667,679,o),
(274,679,cs),
(287.333,679,o),
(305.333,679.667,o),
(328,681,cs),
(442,687.667,o),
(537,696.333,o),
(613,707,cs),
(642.333,711.667,o),
(668,719.333,o),
(690,730,cs),
(692.667,731.333,o),
(695.667,731,o),
(699,729,cs),
(782,684,l),
(779,667,l),
(716.333,663,o),
(457,640.333,o),
(361,631,cs)
);
},
{
closed = 1;
nodes = (
(561.667,545.333,o),
(543.333,574,o),
(502,598,c),
(508,614,l),
(604,588,l),
(608,557.333,o),
(611,541.667,o),
(627,495,cs),
(671.667,364.333,o),
(716.667,240.667,o),
(762,124,cs),
(803.333,17.333,o),
(828.5,-30.167,o),
(866.5,-61.5,cs),
(885.5,-77.167,o),
(910.667,-90.333,o),
(942,-101,c),
(940,-124,l),
(796,-134,l),
(792,-134,ls),
(786,-134,o),
(781.667,-131.667,o),
(779,-127,c),
(750.333,-38.333,o),
(729,27.333,o),
(715,70,cs),
(641,298.667,o),
(594.333,443.333,o),
(575,504,cs)
);
}
);
width = 1000;
}
);
unicode = 101164;
}
{
glyphname = u18B2D;
layers = (
{
layerId = master01;
shapes = (
{
closed = 1;
nodes = (
(489,111,l),
(502,83,l),
(259,-44,ls),
(213.667,-68,o),
(180,-88,o),
(158,-104,c),
(63,-68,l),
(63,-55,l),
(111,-43.667,o),
(155.667,-29.333,o),
(197,-12,cs)
);
},
{
closed = 1;
nodes = (
(543,621,ls),
(543,665,o),
(528,708.333,o),
(500,743,c),
(511,755,l),
(617,668,l),
(610.333,642.667,o),
(607,608.667,o),
(607,566,cs),
(607,-5,ls),
(607,-46.333,o),
(612.667,-57.667,o),
(642,-59,cs),
(670,-60.333,o),
(694.333,-61,o),
(715,-61,cs),
(773,-61,o),
(820.667,-58.333,o),
(858,-53,cs),
(879.333,-51.667,o),
(883.667,-45.333,o),
(885,-24,cs),
(893,176,l),
(917,176,l),
(925,78.667,o),
(940.667,-33.333,o),
(958,-84,c),
(958.667,-84.667,o),
(959,-86,o),
(959,-88,cs),
(959,-91.333,o),
(957.333,-93.667,o),
(954,-95,cs),
(929.333,-105.667,o),
(892,-113.333,o),
(842,-118,cs),
(807.333,-122,o),
(767.333,-124,o),
(722,-124,cs),
(689.333,-124,o),
(658.333,-123,o),
(629,-121,cs),
(567.667,-118.333,o),
(543,-88.667,o),
(543,-18,cs)
);
},
{
closed = 1;
nodes = (
(199.667,258.333,o),
(168.667,252,o),
(138,244,c),
(69,289,l),
(74,302,l),
(95.333,300.667,o),
(110,300,o),
(118,300,cs),
(133.333,300,o),
(159.333,301.667,o),
(196,305,cs),
(216,308,ls),
(266.667,314,o),
(299.667,319,o),
(315,323,cs),
(338.333,327.667,o),
(356.667,335,o),
(370,345,cs),
(372,346.333,o),
(373.833,346.667,o),
(375.5,346,cs),
(377.167,345.333,o),
(378.333,345,o),
(379,345,c),
(463,309,l),
(460,292,l),
(394.667,286.667,o),
(284.333,272.333,o),
(231,263,cs)
);
},
{
closed = 1;
nodes = (
(227,551,ls),
(183.667,543.667,o),
(152.667,537.667,o),
(134,533,c),
(66,580,l),
(71,593,l),
(92.333,591,o),
(110.667,590,o),
(126,590,cs),
(145.333,590,o),
(167.667,591.333,o),
(193,594,cs),
(253,600,o),
(294.333,605,o),
(317,609,cs),
(341,613,o),
(360.333,620.333,o),
(375,631,cs),
(377,632.333,o),
(378.833,632.667,o),
(380.5,632,cs),
(382.167,631.333,o),
(383.333,631,o),
(384,631,c),
(467,593,l),
(464,576,l),
(435.333,574,o),
(367,567,o),
(259,555,cs)
);
},
{
closed = 1;
nodes = (
(307,519,l),
(300.333,497.667,o),
(297,463.667,o),
(297,417,cs),
(297,3,l),
(237,-29,l),
(237,472,ls),
(237,508,o),
(229,541.333,o),
(213,572,c),
(233,584,l),
(233,584,l)
);
},
{
closed = 1;
nodes = (
(577,219,l),
(674.333,291,o),
(774.667,396,o),
(812,464,c),
(828,498,o),
(835,529.333,o),
(833,558,c),
(847,562,l),
(899,445,l),
(893,440.333,o),
(885.333,432.333,o),
(876,421,cs),
(865.333,409,o),
(857,400.333,o),
(851,395,cs),
(758.333,306.333,o),
(672.667,238.333,o),
(594,191,c)
);
}
);
width = 1000;
}
);
unicode = 101165;
}
{
glyphname = u18B2F;
layers = (
{
layerId = master01;
shapes = (
{
closed = 1;
nodes = (
(292.333,191.333,o),
(267.333,87.167,o),
(198,-9.5,cs),
(163.333,-57.833,o),
(115,-104,o),
(53,-148,c),
(34,-127,l),
(144.667,-35,o),
(202.167,64.333,o),
(225.5,187,cs),
(237.167,248.333,o),
(243,321.667,o),
(243,407,cs),
(243,448.333,o),
(230.333,496,o),
(201,528,c),
(212,540,l),
(314,454,l),
(309.333,435.333,o),
(305.667,400.667,o),
(303,350,cs)
);
},
{
closed = 1;
nodes = (
(523,417,ls),
(523,461,o),
(508,504.333,o),
(480,539,c),
(491,551,l),
(596,464,l),
(589.333,438.667,o),
(586,404.667,o),
(586,362,cs),
(586,14,ls),
(586,-27.333,o),
(591.667,-38.667,o),
(621,-40,cs),
(647.667,-41.333,o),
(669.667,-42,o),
(687,-42,cs),
(749,-42,o),
(802.667,-38.667,o),
(848,-32,c),
(869.333,-30.667,o),
(873.667,-24.333,o),
(875,-3,cs),
(882,177,l),
(906,177,l),
(914,94.333,o),
(932,-15,o),
(948,-63,c),
(948.667,-63.667,o),
(949,-65,o),
(949,-67,cs),
(949,-70.333,o),
(947.333,-72.667,o),
(944,-74,cs),
(919.333,-84.667,o),
(882,-92.333,o),
(832,-97,cs),
(790.667,-101.667,o),
(742,-104,o),
(686,-104,cs),
(666.667,-104,o),
(641,-103.333,o),
(609,-102,cs),
(547.667,-99.333,o),
(523,-69.667,o),
(523,1,cs)
);
},
{
closed = 1;
nodes = (
(464.667,197,o),
(434,191,o),
(400,183,c),
(330,234,l),
(334,246,l),
(355.333,244.667,o),
(369.667,244,o),
(377,244,cs),
(409,244,o),
(445.333,247.667,o),
(456,249,cs),
(590.667,263.667,o),
(688.333,277,o),
(749,289,cs),
(781,295.667,o),
(806.333,304.667,o),
(825,316,cs),
(827.667,317.333,o),
(830.667,317,o),
(834,315,cs),
(920,274,l),
(918,257,l),
(851.333,250.333,o),
(590.667,215.667,o),
(492,201,cs)
);
},
{
closed = 1;
nodes = (
(366,601,ls),
(333.333,598.333,o),
(292.667,592,o),
(244,582,c),
(167,638,l),
(172,651,l),
(202,649,o),
(228.667,648,o),
(252,648,cs),
(278.667,648,o),
(304.667,649,o),
(330,651,cs),
(484.667,664.333,o),
(601.333,675,o),
(680,683,cs),
(742.667,689.667,o),
(777,696.333,o),
(809,715,c),
(812.333,716.333,o),
(815.333,716.333,o),
(818,715,cs),
(910,665,l),
(907,650,l),
(823.667,644,o),
(673.333,630.667,o),
(456,610,cs)
);
}
);
width = 1000;
}
);
unicode = 101167;
}
{
glyphname = u18B33;
layers = (
{
layerId = master01;
shapes = (
{
closed = 1;
nodes = (
(206,322,ls),
(200.667,318,o),
(196.667,317.667,o),
(194,321,cs),
(149,383,ls),
(147,386.333,o),
(146,389,o),
(146,391,cs),
(146,395,o),
(147.667,397.667,o),
(151,399,c),
(177.667,415,o),
(187,439.667,o),
(191,469,cs),
(192.333,479.667,o),
(193,487.333,o),
(193,492,cs),
(193,521.333,o),
(183,547.333,o),
(163,570,c),
(175,582,l),
(268,509,l),
(254.667,487.667,o),
(248.667,457,o),
(242,417,cs),
(241,411,ls),
(241,404.333,o),
(245,401.333,o),
(253,402,cs),
(335,407.333,o),
(475.667,421,o),
(675,443,cs),
(716.333,447,o),
(755.667,464.667,o),
(781,490,cs),
(784.333,493.333,o),
(787.667,493.333,o),
(791,490,cs),
(850,425,l),
(853.333,422.333,o),
(853.333,419.333,o),
(850,416,cs),
(826,395,ls),
(816.667,387,o),
(817.333,387.333,o),
(816,378,cs),
(798.667,219.333,o),
(756.667,-5.333,o),
(718,-88,cs),
(704.667,-118.667,o),
(679,-148,o),
(655,-160,cs),
(649.667,-162,o),
(646,-161.333,o),
(644,-158,cs),
(617.333,-112.667,o),
(538.333,-40.333,o),
(457,13,c),
(471,31,l),
(641,-59,ls),
(643,-59.667,o),
(644.667,-60.5,o),
(646,-61.5,cs),
(647.333,-62.5,o),
(649,-63,o),
(651,-63,cs),
(653.667,-63,o),
(656.667,-59.667,o),
(660,-53,cs),
(697.333,20.333,o),
(740.667,254.333,o),
(750,381,cs),
(751,395,ls),
(751,400.333,o),
(749,401.333,o),
(741,400,cs),
(256,353,ls),
(248,351.667,o),
(241,348.667,o),
(235,344,cs)
);
},
{
closed = 1;
nodes = (
(283.333,614.333,o),
(242.667,608,o),
(194,598,c),
(117,654,l),
(122,667,l),
(152,665,o),
(178.667,664,o),
(202,664,cs),
(228.667,664,o),
(254.667,665,o),
(280,667,cs),
(425,679,ls),
(553,689,o),
(633,695.667,o),
(665,699,cs),
(727.667,705.667,o),
(762,712.333,o),
(794,731,c),
(797.333,732.333,o),
(800.333,732.333,o),
(803,731,cs),
(895,681,l),
(892,666,l),
(710.667,652.667,o),
(518.667,636.333,o),
(316,617,cs)
);
},
{
closed = 1;
nodes = (
(69,-142,l),
(224.333,-24,o),
(324.333,110.667,o),
(369,262,cs),
(372.333,272,o),
(374,284,o),
(374,298,cs),
(374,314.667,o),
(371,329,o),
(365,341,c),
(379,348,l),
(454,263,l),
(436.667,239,o),
(424.333,219.333,o),
(417,204,cs),
(334.333,36,o),
(248.333,-59.667,o),
(87,-165,c)
);
},
{
closed = 1;
nodes = (
(220.667,100.667,o),
(189.667,96,o),
(163,90,c),
(96,144,l),
(101,156,l),
(125,153.333,o),
(147.667,152,o),
(169,152,cs),
(182.333,152,o),
(200.333,152.667,o),
(223,154,cs),
(316.333,160,o),
(405.667,169,o),
(491,181,cs),
(518.333,185,o),
(544,193,o),
(568,205,cs),
(570.667,206.333,o),
(573.667,206,o),
(577,204,cs),
(660,159,l),
(657,142,l),
(558.333,138,o),
(318.667,112,o),
(256,104,cs)
);
}
);
width = 1000;
}
);
unicode = 101171;
}
{
glyphname = u18B34;
layers = (
{
layerId = master01;
shapes = (
{
closed = 1;
nodes = (
(524,253,l),
(620,198.333,o),
(739.667,113.333,o),
(883,-2,cs),
(885.667,-4,o),
(887,-7,o),
(887,-11,cs),
(877,-110,l),
(860,-113,l),
(784,-13,o),
(619,147.333,o),
(503,230,c)
);
},
{
closed = 1;
nodes = (
(321.667,293.333,o),
(349,305,o),
(373,329,cs),
(375.667,331.667,o),
(378.333,331.333,o),
(381,328,cs),
(433,265,ls),
(435.667,262.333,o),
(435.333,259.333,o),
(432,256,cs),
(412,238,ls),
(404,231.333,o),
(400.667,226,o),
(398,218,c),
(319.333,58,o),
(228,-36.333,o),
(76,-127,c),
(59,-101,l),
(185.667,-11.667,o),
(275,93.333,o),
(331,224,c),
(333,232,l),
(333,236,o),
(330.333,240,o),
(325,240,cs),
(317,240,o),
(306.5,238.833,o),
(293.5,236.5,cs),
(280.5,234.167,o),
(272,232.667,o),
(268,232,cs),
(212,222,o),
(168.333,211.667,o),
(137,201,c),
(67,255,l),
(72,267,l),
(93.333,265.667,o),
(110,265,o),
(122,265,cs),
(130.667,265,o),
(146.333,265.667,o),
(169,267,cs),
(199.667,271,o),
(245.667,278.667,o),
(275,284,cs)
);
},
{
closed = 1;
nodes = (
(226.333,413.667,o),
(185.333,407.333,o),
(144,398,c),
(66,455,l),
(71,468,l),
(101,466,o),
(128.333,465,o),
(153,465,cs),
(180.333,465,o),
(206.333,466,o),
(231,468,cs),
(396.333,478.667,o),
(537,492,o),
(697,508,cs),
(766.333,516,o),
(795,520.333,o),
(827,539,cs),
(829.667,540.333,o),
(832.667,540,o),
(836,538,cs),
(929,486,l),
(926,471,l),
(767.333,461,o),
(547.667,443,o),
(267,417,cs)
);
},
{
closed = 1;
nodes = (
(315.667,612.667,o),
(284.667,608,o),
(258,602,c),
(191,656,l),
(196,668,l),
(220,665.333,o),
(242.667,664,o),
(264,664,cs),
(277.333,664,o),
(295.333,664.667,o),
(318,666,cs),
(420.667,672.667,o),
(570,686,o),
(630,694,cs),
(659.333,698.667,o),
(685,706.333,o),
(707,717,cs),
(709.667,718.333,o),
(712.667,718,o),
(716,716,cs),
(799,671,l),
(796,654,l),
(674.667,644.667,o),
(385.667,621.333,o),
(351,616,cs)
);
},
{
closed = 1;
nodes = (
(547,588,l),
(539,554.667,o),
(536.333,534.333,o),
(535,485,cs),
(534,339,ls),
(534,189,o),
(536,74.667,o),
(540,-4,cs),
(540.667,-21.333,o),
(539,-43,o),
(535,-69,cs),
(527,-111.667,o),
(516.667,-133.333,o),
(498,-160,cs),
(493.333,-166.667,o),
(488.333,-167.333,o),
(483,-162,cs),
(422.333,-100,o),
(364.667,-51,o),
(310,-15,c),
(323,10,l),
(451,-54,ls),
(453,-55.333,o),
(455.667,-56,o),
(459,-56,cs),
(465,-56,o),
(469,-50,o),
(471,-38,cs),
(475.667,0.667,o),
(478,94,o),
(478,242,cs),
(478,317.333,o),
(477.667,382.667,o),
(477,438,cs),
(476.333,493.333,o),
(476,523,o),
(476,527,cs),
(474.667,561.667,o),
(465.333,609.667,o),
(448,643,c),
(471,652,l),
(471,652,l)
);
},
{
closed = 1;
nodes = (
(578,196,l),
(654.667,249.333,o),
(710.667,298.333,o),
(746,343,cs),
(762,364.333,o),
(778.667,399,o),
(780,431,c),
(796,432,l),
(829,318,l),
(824.333,314.667,o),
(815,307.667,o),
(801,297,cs),
(787,286.333,o),
(777.667,279.333,o),
(773,276,cs),
(713.667,236,o),
(656.667,202.333,o),
(602,175,c)
);
}
);
width = 1000;
}
);
unicode = 101172;
}
{
glyphname = u18B35;
layers = (
{
layerId = master01;
shapes = (
{
closed = 1;
nodes = (
(521,171,l),
(549,143,o),
(595,99.667,o),
(659,41,cs),
(702,2,ls),
(776.667,-66,o),
(838,-90.667,o),
(942,-108,c),
(942,-137,l),
(760,-151,l),
(758,-151,ls),
(752,-151,o),
(745,-147.667,o),
(737,-141,c),
(643,-21.667,o),
(557.333,78.667,o),
(480,160,c)
);
},
{
closed = 1;
nodes = (
(290,251.667,o),
(260.667,210.667,o),
(220,170,c),
(215.333,166.667,o),
(212,165,o),
(210,165,cs),
(206.667,165,o),
(204.333,168.333,o),
(203,175,cs),
(186,249,l),
(186,251,ls),
(186,254.333,o),
(187.667,257,o),
(191,259,cs),
(228.333,276.333,o),
(257.333,302.667,o),
(280,356,cs),
(288.667,376,o),
(292.333,396.667,o),
(291,418,c),
(310,419,l),
(317.333,397,o),
(321,376.667,o),
(321,358,cs),
(321,335.333,o),
(316.667,313.667,o),
(308,293,cs)
);
},
{
closed = 1;
nodes = (
(605,448,l),
(655.667,402.667,o),
(720.333,335.333,o),
(751,298,cs),
(754.333,294,o),
(755,289.667,o),
(753,285,cs),
(721,195,ls),
(718.333,188.333,o),
(715.667,185,o),
(713,185,cs),
(710.333,185,o),
(708,188.667,o),
(706,196,cs),
(683.333,262.667,o),
(633.667,360.333,o),
(587,431,c)
);
},
{
closed = 1;
nodes = (
(532,601,l),
(526,581,o),
(523,557,o),
(523,529,cs),
(519,255.667,o),
(463.667,94.333,o),
(337,-19,cs),
(266.333,-81.667,o),
(160.667,-134.333,o),
(42,-169,c),
(31,-136,l),
(131,-100,o),
(224,-46,o),
(288,14,cs),
(405.333,124.667,o),
(453.667,280.667,o),
(455,534,cs),
(455,575.333,o),
(447,624,o),
(423,660,c),
(442,671,l),
(442,671,l)
);
},
{
closed = 1;
nodes = (
(281.333,628,o),
(250.333,624,o),
(217,618,c),
(151,669,l),
(156,681,l),
(182,677.667,o),
(208,676,o),
(234,676,cs),
(254,676,o),
(268.667,676.333,o),
(278,677,cs),
(367.333,681,o),
(576,698.667,o),
(648,708,cs),
(677.333,712,o),
(703,719.333,o),
(725,730,cs),
(727.667,731.333,o),
(730.667,731,o),
(734,729,cs),
(816,686,l),
(813,669,l),
(749,666.333,o),
(346,635.333,o),
(310,630,cs)
);
},
{
closed = 1;
nodes = (
(215.333,120.667,o),
(174.333,114.333,o),
(133,105,c),
(55,162,l),
(60,175,l),
(90,173,o),
(117.333,172,o),
(142,172,cs),
(168.667,172,o),
(194.667,173,o),
(220,175,cs),
(428,188.333,o),
(528.667,196.333,o),
(706,215,cs),
(775.333,223,o),
(804,227.333,o),
(836,246,cs),
(838.667,247.333,o),
(841.667,247,o),
(845,245,cs),
(938,193,l),
(935,178,l),
(697.667,163.333,o),
(540,150.667,o),
(256,124,cs)
);
},
{
closed = 1;
nodes = (
(214.333,436.667,o),
(173.333,430.333,o),
(132,421,c),
(54,478,l),
(59,491,l),
(89,489,o),
(116.333,488,o),
(141,488,cs),
(167.667,488,o),
(193.667,489,o),
(219,491,cs),
(427,504.333,o),
(527.667,512.333,o),
(705,531,cs),
(774.333,539,o),
(803,543.333,o),
(835,562,cs),
(837.667,563.333,o),
(840.667,563,o),
(844,561,cs),
(937,509,l),
(934,494,l),
(696.667,479.333,o),
(539,466.667,o),
(255,440,cs)
);
}
);
width = 1000;
}
);
unicode = 101173;
}
{
glyphname = u18B3E;
layers = (
{
layerId = master01;
shapes = (
{
closed = 1;
nodes = (
(777.667,602,o),
(821.667,611.333,o),
(851,630,c),
(854.333,633.333,o),
(858,635,o),
(862,635,cs),
(865.333,635,o),
(868.333,633.667,o),
(871,631,cs),
(940,561,ls),
(942,559,o),
(943,557,o),
(943,555,cs),
(943,551,o),
(940,547.667,o),
(934,545,c),
(903.333,546.333,o),
(879.667,547,o),
(863,547,cs),
(827,547,o),
(783,545.333,o),
(731,542,cs),
(571.667,531.333,o),
(418,519,o),
(270,505,cs),
(210,498.333,o),
(166.333,492,o),
(139,486,c),
(135,483.333,o),
(131,482,o),
(127,482,cs),
(124.333,482,o),
(120.333,483.333,o),
(115,486,c),
(46,532,ls),
(42.667,534,o),
(41,536.667,o),
(41,540,cs),
(41,544,o),
(43.667,547,o),
(49,549,c),
(82.333,548.333,o),
(146,550.667,o),
(240,556,cs),
(389.333,564,o),
(593.667,580.667,o),
(711,594,cs)
);
},
{
closed = 1;
nodes = (
(223,346,l),
(396.333,358,o),
(661.667,381.667,o),
(695,387,cs),
(742.333,396.333,o),
(777.333,412.333,o),
(800,435,cs),
(803.333,438.333,o),
(806.667,438.333,o),
(810,435,cs),
(864,372,l),
(867.333,369.333,o),
(867.333,366.333,o),
(864,363,cs),
(839,340,ls),
(831,333.333,o),
(829,331,o),
(829,323,cs),
(829,196.333,o),
(827.5,106,o),
(824.5,52,cs),
(821.5,-2,o),
(813.333,-53.333,o),
(800,-102,cs),
(790.667,-136.667,o),
(781.667,-159.667,o),
(767,-173,cs),
(765,-175,o),
(763,-176,o),
(761,-176,cs),
(759.667,-176,o),
(756.667,-174.333,o),
(752,-171,c),
(694.667,-119,o),
(653.667,-84,o),
(591,-44,c),
(603,-22,l),
(728,-80,ls),
(730.667,-81.333,o),
(732.667,-82,o),
(734,-82,cs),
(738,-82,o),
(741,-78.333,o),
(743,-71,cs),
(759.667,-15,o),
(768,75,o),
(768,199,cs),
(768,231,o),
(767.333,275,o),
(766,331,cs),
(766,340.333,o),
(762.667,343.333,o),
(756,342,c),
(564,325,ls),
(459.333,316.333,o),
(347,306,o),
(227,294,c)
);
},
{
closed = 1;
nodes = (
(474,488,ls),
(474,556.667,o),
(473.667,604.667,o),
(473,632,cs),
(471.667,670.667,o),
(457.333,720,o),
(428,752,c),
(439,764,l),
(543,678,l),
(537,646.667,o),
(534,612.333,o),
(534,575,cs),
(534,339,l),
(474,332,l),
(474,332,l)
);
},
{
closed = 1;
nodes = (
(259,342,l),
(253.667,314,o),
(251,279.667,o),
(251,239,cs),
(251,-172,l),
(237,-178,l),
(174,-110,ls),
(172,-108,o),
(172,-105,o),
(174,-101,cs),
(184,-80.333,o),
(189,-58.667,o),
(189,-36,cs),
(189,-20.667,o),
(189.333,-9.333,o),
(190,-2,cs),
(191,131,l),
(190,262,ls),
(189.333,269.333,o),
(189,280.667,o),
(189,296,cs),
(187.667,336,o),
(175,384,o),
(147,416,c),
(157,428,l),
(157,428,l)
);
},
{
closed = 1;
nodes = (
(201.333,499,o),
(160.667,492.667,o),
(118,484,c),
(42,542,l),
(47,555,l),
(79.667,552.333,o),
(112,551,o),
(144,551,cs),
(171.333,551,o),
(191.667,551.667,o),
(205,553,cs),
(253,556,ls),
(427,566,o),
(579.333,577.333,o),
(710,590,cs),
(775.333,595.333,o),
(807,601,o),
(839,621,cs),
(841.667,622.333,o),
(844.667,622,o),
(848,620,cs),
(940,567,l),
(937,552,l),
(721,540,o),
(488.667,523.667,o),
(240,503,cs)
);
},
{
closed = 1;
nodes = (
(368,234,l),
(452,208.667,o),
(551.333,167.667,o),
(618,133,cs),
(622,130.333,o),
(624.333,127,o),
(625,123,cs),
(640,36,l),
(625,25,l),
(542.333,98.333,o),
(477.333,144.333,o),
(360,211,c)
);
}
);
width = 1000;
}
);
unicode = 101182;
}
{
glyphname = u18B40;
layers = (
{
layerId = master01;
shapes = (
{
closed = 1;
nodes = (
(228,343,l),
(317.333,347,o),
(612.333,370,o),
(679,382,cs),
(725.667,391.333,o),
(760.333,407.333,o),
(783,430,cs),
(786.333,433.333,o),
(789.667,433.333,o),
(793,430,cs),
(851,367,l),
(854.333,364.333,o),
(854.333,361.333,o),
(851,358,cs),
(826,335,ls),
(818,328.333,o),
(816,324.667,o),
(816,318,cs),
(812,180.667,o),
(806.667,121,o),
(788,45,cs),
(781.333,15.667,o),
(767.667,-17.333,o),
(757,-32,cs),
(753,-36.667,o),
(749,-37,o),
(745,-33,cs),
(703.667,11,o),
(662,44,o),
(590,88,c),
(602,107,l),
(711,64,ls),
(715,62,o),
(718,61,o),
(720,61,cs),
(722.667,61,o),
(725,65,o),
(727,73,cs),
(744.333,138.333,o),
(749.333,205,o),
(752,325,cs),
(752,333,o),
(748.667,336.667,o),
(742,336,cs),
(686.667,330,o),
(580.333,320.333,o),
(423,307,cs),
(311,297.667,o),
(248,292,o),
(234,290,c)
);
},
{
closed = 1;
nodes = (
(534,684,l),
(527.333,655.333,o),
(524,621,o),
(524,581,cs),
(523,211,ls),
(521.667,43,o),
(521,-80.667,o),
(521,-160,c),
(508,-166,l),
(446,-98,ls),
(444.667,-96.667,o),
(444.667,-93.667,o),
(446,-89,cs),
(454,-71,o),
(458.667,-49.333,o),
(460,-24,cs),
(463.333,68,o),
(465,197.667,o),
(465,365,cs),
(465,470.333,o),
(464,561.333,o),
(462,638,cs),
(460.667,679.333,o),
(448.333,726,o),
(419,758,c),
(430,770,l),
(430,770,l)
);
},
{
closed = 1;
nodes = (
(198.667,513,o),
(158,507.333,o),
(114,498,c),
(38,556,l),
(43,569,l),
(73.667,565.667,o),
(106.333,564,o),
(141,564,cs),
(154.333,564,o),
(174.333,564.667,o),
(201,566,cs),
(343.667,574,o),
(519.333,586.667,o),
(728,604,cs),
(794.667,609.333,o),
(825,614.333,o),
(857,633,cs),
(859.667,634.333,o),
(861.667,634.5,o),
(863,633.5,cs),
(864.333,632.5,o),
(865.333,632,o),
(866,632,c),
(957,579,l),
(954,564,l),
(752,552.667,o),
(512.667,536.333,o),
(236,515,cs)
);
},
{
closed = 1;
nodes = (
(263,328,l),
(257,302,o),
(254,267.667,o),
(254,225,cs),
(254,-33,l),
(241,-39,l),
(179,29,ls),
(177,31,o),
(177,34,o),
(179,38,cs),
(189,59.333,o),
(194,81,o),
(194,103,cs),
(194,155,ls),
(194,213,o),
(193.667,255.333,o),
(193,282,cs),
(191.667,322,o),
(180,370,o),
(152,402,c),
(162,414,l),
(162,414,l)
);
}
);
width = 1000;
}
);
unicode = 101184;
}
{
glyphname = u18B41;
layers = (
{
layerId = master01;
shapes = (
{
closed = 1;
nodes = (
(243,403,l),
(296.333,405,o),
(337.667,407.333,o),
(367,410,cs),
(520.333,424,o),
(617,433.667,o),
(657,439,cs),
(701.667,445.667,o),
(736.333,461.333,o),
(761,486,cs),
(765,490,o),
(769,490,o),
(773,486,cs),
(829,427,ls),
(833,423,o),
(833,419,o),
(829,415,cs),
(804,392,ls),
(794.667,384,o),
(795.333,384.333,o),
(794,375,cs),
(784.667,275,o),
(757.667,151,o),
(723,75,c),
(682,88,l),
(707.333,168,o),
(727.667,290.333,o),
(729,377,cs),
(729,389,ls),
(729,395.667,o),
(727,397.333,o),
(719,396,cs),
(605,384,l),
(382,360,ls),
(331.333,355.333,o),
(287.333,349.667,o),
(250,343,c)
);
},
{
closed = 1;
nodes = (
(521,200,ls),
(629,88,o),
(680,36,o),
(740,-12,cs),
(801.333,-61.333,o),
(861.333,-88.333,o),
(952,-99,c),
(952,-125,l),
(762,-142,l),
(758,-142,ls),
(751.333,-142,o),
(747,-140.333,o),
(745,-137,cs),
(681,-50.333,o),
(569,86,o),
(465,198,c),
(477,245,l),
(477,245,l)
);
},
{
closed = 1;
nodes = (
(236.667,547,o),
(196,541.333,o),
(152,532,c),
(76,590,l),
(81,603,l),
(111.667,599.667,o),
(144.333,598,o),
(179,598,cs),
(192.333,598,o),
(212.333,598.667,o),
(239,600,cs),
(400.333,608.667,o),
(552,619.333,o),
(694,632,cs),
(760.667,637.333,o),
(791,642.333,o),
(823,661,cs),
(825.667,662.333,o),
(827.667,662.5,o),
(829,661.5,cs),
(830.333,660.5,o),
(831.333,660,o),
(832,660,c),
(923,607,l),
(920,592,l),
(655.333,577.333,o),
(440,563,o),
(274,549,cs)
);
},
{
closed = 1;
nodes = (
(48,-140,l),
(300,-42.667,o),
(412.333,84,o),
(451,260,cs),
(470.333,348,o),
(480.333,465.333,o),
(481,612,cs),
(481,661.333,o),
(469,715.667,o),
(437,753,c),
(448,765,l),
(556,679,l),
(550,659,o),
(547,635,o),
(547,607,cs),
(541.667,269.667,o),
(489.667,95.333,o),
(355,-18,cs),
(287.667,-74.667,o),
(189.333,-125.333,o),
(60,-170,c)
);
},
{
closed = 1;
nodes = (
(292,389,l),
(286,363,o),
(283,328.667,o),
(283,286,cs),
(283,33,l),
(270,27,l),
(208,95,ls),
(206,97,o),
(206,100,o),
(208,104,cs),
(218,125.333,o),
(223,147,o),
(223,169,cs),
(223,220,ls),
(223,275.333,o),
(222.667,316.333,o),
(222,343,cs),
(220.667,383,o),
(209,431,o),
(181,463,c),
(191,475,l),
(191,475,l)
);
}
);
width = 1000;
}
);
unicode = 101185;
}
{
glyphname = u18B49;
layers = (
{
layerId = master01;
shapes = (
{
closed = 1;
nodes = (
(372,-108.333,o),
(332.667,-113.667,o),
(298,-121,c),
(224,-66,l),
(229,-53,l),
(259.667,-56.333,o),
(291,-58,o),
(323,-58,cs),
(335,-58,o),
(354.333,-57.333,o),
(381,-56,cs),
(414,-54,ls),
(468,-51.333,o),
(506,-48.667,o),
(528,-46,cs),
(576,-39.333,o),
(603,-34.667,o),
(635,-16,c),
(638.333,-14.667,o),
(641.333,-15,o),
(644,-17,cs),
(735,-69,l),
(732,-84,l),
(616.667,-90.667,o),
(511.333,-97.667,o),
(416,-105,cs)
);
},
{
closed = 1;
nodes = (
(629.667,571.667,o),
(608.667,601.667,o),
(566,627,c),
(572,643,l),
(683,614,l),
(684.333,582,o),
(685,569.667,o),
(697,523,cs),
(727.667,398.333,o),
(763,269,o),
(803,135,cs),
(834.799,30.183,o),
(858.971,-31.014,o),
(897.5,-63,cs),
(915.167,-77.667,o),
(940.333,-90.667,o),
(973,-102,c),
(971,-125,l),
(827,-135,l),
(823,-135,ls),
(815.667,-135,o),
(811.333,-132.667,o),
(810,-128,cs),
(750,94.667,o),
(693,315,o),
(639,533,cs)
);
},
{
closed = 1;
nodes = (
(302.667,243.667,o),
(201.333,11.333,o),
(64,-150,c),
(41,-133,l),
(167.667,48.333,o),
(264.667,306.667,o),
(294,512,cs),
(295.333,521.333,o),
(296,529,o),
(296,535,cs),
(296,569.667,o),
(285.667,611,o),
(267,639,c),
(280,650,l),
(382,546,l),
(371.333,523.333,o),
(362.667,494.333,o),
(352,449,cs)
);
},
{
closed = 1;
nodes = (
(458,-73,l),
(458,115,o),
(456.667,564.333,o),
(454,635,cs),
(452.667,675,o),
(441,723,o),
(413,755,c),
(423,767,l),
(529,681,l),
(522.333,652.333,o),
(519,618,o),
(519,578,cs),
(519,-66,l),
(519,-66,l)
);
},
{
closed = 1;
nodes = (
(219.333,334.333,o),
(178.667,328,o),
(144,320,c),
(66,377,l),
(71,390,l),
(103,388,o),
(131.667,387,o),
(157,387,cs),
(174.333,387,o),
(199,387.667,o),
(231,389,cs),
(277.667,393,o),
(319,396,o),
(355,398,cs),
(457.667,405.333,o),
(573.333,414.667,o),
(702,426,cs),
(763.333,431.333,o),
(798.667,439,o),
(832,459,cs),
(834.667,460.333,o),
(837.667,460,o),
(841,458,cs),
(934,406,l),
(931,391,l),
(893,387.667,o),
(817.667,382,o),
(705,374,cs),
(485,357.333,o),
(338.667,345.667,o),
(266,339,cs)
);
}
);
width = 1000;
}
);
unicode = 101193;
}
{
glyphname = u18B4A;
layers = (
{
layerId = master01;
shapes = (
{
closed = 1;
nodes = (
(506,480,l),
(391.333,341.333,o),
(235,224,o),
(55,144,c),
(40,170,l),
(242.667,289.333,o),
(390.667,418.667,o),
(484,558,c),
(503,548,l),
(503,548,l)
);
},
{
closed = 1;
nodes = (
(558,110,l),
(690.667,40.667,o),
(794.667,-21.667,o),
(870,-77,cs),
(872,-79,o),
(872.667,-82.667,o),
(872,-88,cs),
(858,-176,l),
(844,-178,l),
(771.333,-89.333,o),
(670.667,-1.333,o),
(542,86,c)
);
},
{
closed = 1;
nodes = (
(60,-141,l),
(294.667,-54.333,o),
(401.167,46.667,o),
(440.5,200,cs),
(460.167,276.667,o),
(470,380.333,o),
(470,511,cs),
(470,553.667,o),
(469.667,586.333,o),
(469,609,cs),
(467.667,671.667,o),
(453,718.667,o),
(425,750,c),
(436,762,l),
(547,676,l),
(541,656,o),
(538,632.333,o),
(538,605,cs),
(538,552,ls),
(538,249.333,o),
(507.167,94.333,o),
(374.5,-23,cs),
(308.167,-81.667,o),
(207.333,-131,o),
(72,-171,c)
);
},
{
closed = 1;
nodes = (
(527,486,l),
(655,442.667,o),
(784.333,380.333,o),
(915,299,cs),
(918.333,297,o),
(920,294.333,o),
(920,291,cs),
(925,190,l),
(912,184,l),
(804,292,o),
(671.667,383,o),
(515,457,c)
);
},
{
closed = 1;
nodes = (
(278,515,ls),
(235.333,511.667,o),
(194.333,506,o),
(155,498,c),
(78,556,l),
(83,569,l),
(113.667,565.667,o),
(146.667,564,o),
(182,564,cs),
(196,564,o),
(216.333,564.667,o),
(243,566,cs),
(401,576.667,o),
(550.667,588,o),
(692,600,cs),
(757.333,605.333,o),
(790,611.333,o),
(822,630,cs),
(824.667,631.333,o),
(827.667,631,o),
(831,629,cs),
(923,577,l),
(920,562,l),
(735.333,550,o),
(528.667,535,o),
(300,517,cs)
);
},
{
closed = 1;
nodes = (
(401,134,ls),
(363,130.667,o),
(322.333,124.667,o),
(279,116,c),
(203,173,l),
(208,186,l),
(238.667,182.667,o),
(271.333,181,o),
(306,181,cs),
(319.333,181,o),
(339.333,181.667,o),
(366,183,cs),
(426.667,186.333,o),
(479,190,o),
(523,194,cs),
(566,197,ls),
(630,202.333,o),
(663,208.333,o),
(695,227,c),
(698.333,228.333,o),
(701.333,228,o),
(704,226,cs),
(795,174,l),
(792,159,l),
(738,156.333,o),
(625,149.333,o),
(453,138,cs)
);
}
);
width = 1000;
}
);
unicode = 101194;
}
{
glyphname = u18B4C;
layers = (
{
layerId = master01;
shapes = (
{
closed = 1;
nodes = (
(509,514,l),
(405,368.667,o),
(241,247.667,o),
(49,173,c),
(37,199,l),
(226.333,295,o),
(389,430.333,o),
(481,581,c)
);
},
{
closed = 1;
nodes = (
(535,556,l),
(617,488,o),
(694.667,430,o),
(768,382,cs),
(841.333,334,o),
(900,305.667,o),
(972,303,c),
(974,278,l),
(814,253,l),
(809,253,ls),
(803.667,253,o),
(799.667,254.333,o),
(797,257,cs),
(715.667,339.667,o),
(593,453.667,o),
(509,523,c)
);
},
{
closed = 1;
nodes = (
(312,182,l),
(410.667,192.667,o),
(608.667,216.667,o),
(634,222,cs),
(662.667,228,o),
(684.333,238.667,o),
(699,254,c),
(703,256.667,o),
(706.667,256.667,o),
(710,254,cs),
(762,211,l),
(765.333,209,o),
(765.333,206,o),
(762,202,cs),
(748,183,ls),
(744.667,178.333,o),
(742.333,173.333,o),
(741,168,cs),
(735.667,144,o),
(717,-20.333,o),
(717,-47,c),
(655,-56,l),
(659,-17,ls),
(670.333,95,o),
(676,154.667,o),
(676,162,cs),
(676,166,ls),
(676,168.667,o),
(673.667,170,o),
(669,170,cs),
(638.333,168.667,o),
(413.667,143.333,o),
(311,130,c)
);
},
{
closed = 1;
nodes = (
(274.667,515.667,o),
(234,509.333,o),
(192,500,c),
(114,558,l),
(119,571,l),
(149,568.333,o),
(179,567,o),
(209,567,cs),
(225,567,o),
(248.333,567.667,o),
(279,569,cs),
(403.667,577.667,o),
(530.667,588,o),
(660,600,cs),
(724,605.333,o),
(757,611.333,o),
(789,630,cs),
(791.667,631.333,o),
(794.667,631,o),
(798,629,cs),
(891,577,l),
(888,562,l),
(677.333,548.667,o),
(536.667,539,o),
(314,519,cs)
);
},
{
closed = 1;
nodes = (
(545,-24,ls),
(613,-17.333,o),
(643,-13.667,o),
(675,5,cs),
(677.667,6.333,o),
(680.667,6,o),
(684,4,cs),
(776,-49,l),
(773,-64,l),
(631.667,-72,o),
(481.667,-82.333,o),
(323,-95,c),
(324,-43,l),
(324,-43,l)
);
},
{
closed = 1;
nodes = (
(355,168,l),
(349,142,o),
(346,107.667,o),
(346,65,cs),
(345,-145,l),
(332,-151,l),
(270,-83,ls),
(268,-81,o),
(268,-78,o),
(270,-74,cs),
(280,-53.333,o),
(285,-31.667,o),
(285,-9,cs),
(285,122,ls),
(285,160.667,o),
(272,210,o),
(244,242,c),
(254,254,l),
(254,254,l)
);
},
{
closed = 1;
nodes = (
(468,365,ls),
(468,511.667,o),
(467.333,601.667,o),
(466,635,cs),
(464.667,675,o),
(453,723,o),
(425,755,c),
(435,767,l),
(540,681,l),
(533.333,652.333,o),
(530,618,o),
(530,578,cs),
(530,196,l),
(468,189,l),
(468,189,l)
);
}
);
width = 1000;
}
);
unicode = 101196;
}
{
glyphname = u18B4E;
layers = (
{
layerId = master01;
shapes = (
{
closed = 1;
nodes = (
(428,96,l),
(433.333,141.333,o),
(442.667,255.333,o),
(444,294,cs),
(444,298.667,o),
(442,301,o),
(438,301,cs),
(384.667,297,o),
(291,286.667,o),
(235,280,c),
(220,329,l),
(317.333,339,o),
(377.333,346,o),
(400,350,cs),
(426,355.333,o),
(447,366,o),
(463,382,cs),
(466.333,385.333,o),
(469.667,385.333,o),
(473,382,cs),
(526,337,ls),
(528.667,334.333,o),
(528.667,331.333,o),
(526,328,cs),
(514,313,ls),
(513.333,312.333,o),
(512.167,310.833,o),
(510.5,308.5,cs),
(508.833,306.167,o),
(507.333,302.667,o),
(506,298,cs),
(500.667,272.667,o),
(483,128.667,o),
(483,106,c)
);
},
{
closed = 1;
nodes = (
(745,407.333,o),
(748,111,o),
(752,7,cs),
(753.333,-17,o),
(752.333,-38.667,o),
(749,-58,cs),
(741,-102,o),
(733,-121,o),
(717,-145,cs),
(712.333,-153,o),
(708,-157,o),
(704,-157,cs),
(700.667,-157,o),
(696.667,-154.667,o),
(692,-150,cs),
(638,-95.333,o),
(574,-45.667,o),
(500,-1,c),
(513,24,l),
(665,-44,ls),
(669,-45.333,o),
(671.333,-46,o),
(672,-46,cs),
(678.667,-46,o),
(682.667,-39.667,o),
(684,-27,cs),
(686.667,3,o),
(688,72,o),
(688,180,cs),
(688,352,o),
(685.667,564.333,o),
(683,627,cs),
(681.667,669.667,o),
(667,730,o),
(639,762,c),
(651,774,l),
(754,688,l),
(748,656.667,o),
(745,622.667,o),
(745,586,cs)
);
},
{
closed = 1;
nodes = (
(267,325,l),
(261,299,o),
(258,264.667,o),
(258,222,cs),
(257,-28,l),
(244,-34,l),
(184,34,ls),
(182,36,o),
(182,39,o),
(184,43,cs),
(192.667,61.667,o),
(197.667,83.333,o),
(199,108,cs),
(199,146,ls),
(199,185.333,o),
(198.333,229.667,o),
(197,279,cs),
(195.667,319,o),
(184,367,o),
(156,399,c),
(166,411,l),
(166,411,l)
);
},
{
closed = 1;
nodes = (
(237,114,l),
(318.333,120,o),
(367.667,124.333,o),
(385,127,cs),
(406.333,129.667,o),
(421.833,133.5,o),
(431.5,138.5,cs),
(441.167,143.5,o),
(447,146.333,o),
(449,147,cs),
(451.667,148.333,o),
(454.667,148,o),
(458,146,cs),
(540,101,l),
(537,84,l),
(451.667,80,o),
(325.333,71,o),
(236,63,c)
);
},
{
closed = 1;
nodes = (
(260,489,ls),
(223.333,487,o),
(182.333,481.333,o),
(137,472,c),
(60,530,l),
(65,543,l),
(95.667,539.667,o),
(128.667,538,o),
(164,538,cs),
(178,538,o),
(198.333,538.667,o),
(225,540,cs),
(371.667,550,o),
(513.667,561,o),
(651,573,cs),
(712,578,ls),
(780,584.667,o),
(810,588.333,o),
(842,607,cs),
(844.667,608.333,o),
(847.667,608,o),
(851,606,cs),
(943,553,l),
(940,538,l),
(770.667,528.667,o),
(585,514.333,o),
(413,501,cs)
);
}
);
width = 1000;
}
);
unicode = 101198;
}
{
glyphname = u18B52;
layers = (
{
layerId = master01;
shapes = (
{
closed = 1;
nodes = (
(963,-102,l),
(786,-114,ls),
(781.333,-114,o),
(777,-111.333,o),
(773,-106,cs),
(702.333,-14,o),
(603.333,94.333,o),
(514,181,c),
(542,211,l),
(597.333,156.333,o),
(654,103,o),
(712,51,cs),
(809.333,-35.667,o),
(872.333,-69.333,o),
(963,-76,c)
);
},
{
closed = 1;
nodes = (
(455,396,l),
(499,398.667,o),
(601,410,o),
(665,418,cs),
(711,424.667,o),
(746,440,o),
(770,464,cs),
(773.333,467.333,o),
(776.333,467.333,o),
(779,464,cs),
(837,405,ls),
(840.333,402.333,o),
(840.333,399.333,o),
(837,396,cs),
(822.333,383.333,o),
(808.333,369,o),
(795,353,cs),
(735,283.667,o),
(676.333,242,o),
(611,210,cs),
(578.333,194,o),
(534.333,175,o),
(479,153,c),
(462,184,l),
(603.333,249.333,o),
(663.667,289.667,o),
(725,359,cs),
(729.667,364.333,o),
(732,368.333,o),
(732,371,cs),
(732,374.333,o),
(727.667,375.333,o),
(719,374,cs),
(477,343,l),
(477,343,l)
);
},
{
closed = 1;
nodes = (
(440.667,673,o),
(424.333,729.333,o),
(379,760,c),
(390,772,l),
(516,686,l),
(508,652.667,o),
(505,632.333,o),
(505,583,cs),
(505,310.333,o),
(508.333,117.667,o),
(515,5,cs),
(515.667,-15.667,o),
(514.333,-37.333,o),
(511,-60,cs),
(503,-102.667,o),
(492.333,-124.333,o),
(475,-151,cs),
(470.333,-157.667,o),
(465.333,-158.333,o),
(460,-153,cs),
(409.333,-101,o),
(347,-51.667,o),
(273,-5,c),
(286,20,l),
(424,-46,ls),
(428,-47.333,o),
(430.333,-48,o),
(431,-48,cs),
(437.667,-48,o),
(441.667,-41.667,o),
(443,-29,cs),
(446.333,1.667,o),
(448,72.667,o),
(448,184,cs),
(448,352,o),
(444.667,563.667,o),
(442,625,cs)
);
},
{
closed = 1;
nodes = (
(245.333,500,o),
(204.333,494.333,o),
(159,485,c),
(82,543,l),
(87,556,l),
(117.667,552.667,o),
(150.667,551,o),
(186,551,cs),
(200,551,o),
(220.333,551.667,o),
(247,553,cs),
(333.667,557.667,o),
(453,565.667,o),
(605,577,cs),
(614.333,578.333,o),
(629.667,579.667,o),
(651,581,cs),
(719,587.667,o),
(749,591.333,o),
(781,610,cs),
(783.667,611.333,o),
(786.667,611,o),
(790,609,cs),
(882,556,l),
(879,541,l),
(632.333,527.667,o),
(523.333,520.667,o),
(282,502,cs)
);
},
{
closed = 1;
nodes = (
(308.667,299,o),
(283.5,162.833,o),
(209.5,35.5,cs),
(172.5,-28.167,o),
(120,-88.333,o),
(52,-145,c),
(32,-125,l),
(153.333,-1,o),
(214.667,128,o),
(240,288,cs),
(252.667,368,o),
(259,464,o),
(259,576,cs),
(259,617.333,o),
(246.333,665,o),
(217,697,c),
(228,709,l),
(333,623,l),
(328.333,604.333,o),
(324.667,569.667,o),
(322,519,cs)
);
}
);
width = 1000;
}
);
unicode = 101202;
}
{
glyphname = u18B58;
layers = (
{
layerId = master01;
shapes = (
{
closed = 1;
nodes = (
(670,182,l),
(744,122,o),
(815.333,51.333,o),
(884,-30,c),
(886,-33.333,o),
(886.667,-37.333,o),
(886,-42,cs),
(873,-149,l),
(852,-153,l),
(790,-33,o),
(723,73,o),
(651,165,c)
);
},
{
closed = 1;
nodes = (
(477,157,l),
(533.667,83,o),
(578.667,17,o),
(612,-41,c),
(614,-46.333,o),
(614.333,-51,o),
(613,-55,cs),
(582,-151,l),
(560,-153,l),
(528,-37,o),
(493.333,62.333,o),
(456,145,c)
);
},
{
closed = 1;
nodes = (
(288.667,-21.667,o),
(205.333,-126.333,o),
(152,-177,c),
(134,-175,l),
(107,-84,ls),
(106.333,-80,o),
(107.333,-77.667,o),
(110,-77,cs),
(127.333,-71.667,o),
(142,-64,o),
(154,-54,cs),
(235.333,11.333,o),
(290,87,o),
(294,163,c),
(316,163,l),
(318.667,124.333,o),
(320,99.667,o),
(320,89,cs),
(320,65,o),
(316.667,45,o),
(310,29,cs)
);
},
{
closed = 1;
nodes = (
(217.667,240,o),
(177,234.333,o),
(133,225,c),
(57,283,l),
(62,296,l),
(92.667,292.667,o),
(125.333,291,o),
(160,291,cs),
(173.333,291,o),
(193.333,291.667,o),
(220,293,cs),
(422,304.333,o),
(593,316.333,o),
(733,329,cs),
(799.667,334.333,o),
(830,339.333,o),
(862,358,cs),
(864.667,359.333,o),
(866.667,359.5,o),
(868,358.5,cs),
(869.333,357.5,o),
(870.333,357,o),
(871,357,c),
(962,304,l),
(959,289,l),
(727.667,277,o),
(493,261.333,o),
(255,242,cs)
);
},
{
closed = 1;
nodes = (
(288,487.667,o),
(247.333,481.667,o),
(204,473,c),
(128,528,l),
(133,541,l),
(163.667,537.667,o),
(196.333,536,o),
(231,536,cs),
(244.333,536,o),
(264.333,536.667,o),
(291,538,cs),
(449,548.667,o),
(565.667,557.667,o),
(641,565,cs),
(705,570.333,o),
(738,576.333,o),
(770,595,cs),
(772.667,596.333,o),
(774.667,596.5,o),
(776,595.5,cs),
(777.333,594.5,o),
(778.333,594,o),
(779,594,c),
(870,544,l),
(867,529,l),
(711.667,520.333,o),
(531.333,507.667,o),
(326,491,cs)
);
},
{
closed = 1;
nodes = (
(483,304,l),
(483,448,o),
(481.667,557,o),
(479,631,cs),
(477.667,672.333,o),
(465.333,719,o),
(436,751,c),
(447,763,l),
(559,677,l),
(552.333,648.333,o),
(549,614,o),
(549,574,cs),
(549,311,l),
(549,311,l)
);
}
);
width = 1000;
}
);
unicode = 101208;
}
{
glyphname = u18B5B;
layers = (
{
layerId = master01;
shapes = (
{
closed = 1;
nodes = (
(109,-149,l),
(251,-47,o),
(341.667,72.333,o),
(381,209,cs),
(390.333,242.333,o),
(395,272.667,o),
(395,300,cs),
(395,322,o),
(392,339,o),
(386,351,c),
(411,355,l),
(478,282,l),
(471.333,266,o),
(465,248,o),
(459,228,cs),
(409.667,50.667,o),
(298,-74,o),
(126,-174,c)
);
},
{
closed = 1;
nodes = (
(410,173,l),
(522,181,o),
(600,187.667,o),
(644,193,cs),
(704,201,o),
(714,206.333,o),
(750,237,cs),
(754,241,o),
(758,241,o),
(762,237,cs),
(822,180,ls),
(825.333,177.333,o),
(825.333,174.333,o),
(822,171,cs),
(800,152,ls),
(795.333,148.667,o),
(791.667,142,o),
(789,132,cs),
(767.667,38.667,o),
(753,-16,o),
(725,-76,cs),
(709,-106.667,o),
(681,-141.667,o),
(653,-159,cs),
(646.333,-163.667,o),
(641.667,-163.667,o),
(639,-159,cs),
(597,-101.667,o),
(549,-49.333,o),
(495,-2,c),
(510,16,l),
(641,-64,ls),
(643.667,-65.333,o),
(645.667,-66,o),
(647,-66,cs),
(650.333,-66,o),
(653,-64.667,o),
(655,-62,cs),
(681.667,-28.667,o),
(711.667,68.667,o),
(721,142,cs),
(721,143,ls),
(721,148.333,o),
(718,150.333,o),
(712,149,c),
(605,141,ls),
(519.667,135,o),
(450.333,129.333,o),
(397,124,c)
);
},
{
closed = 1;
nodes = (
(218.667,310,o),
(178,304.333,o),
(134,295,c),
(58,353,l),
(63,366,l),
(93.667,362.667,o),
(126.333,361,o),
(161,361,cs),
(174.333,361,o),
(194.333,361.667,o),
(221,363,cs),
(402.333,373.667,o),
(572.667,386,o),
(732,400,cs),
(798.667,405.333,o),
(829,410.333,o),
(861,429,cs),
(863.667,430.333,o),
(865.667,430.5,o),
(867,429.5,cs),
(868.333,428.5,o),
(869.333,428,o),
(870,428,c),
(961,375,l),
(958,360,l),
(751.333,349.333,o),
(517.333,333.333,o),
(256,312,cs)
);
},
{
closed = 1;
nodes = (
(338,513.667,o),
(297.333,507.667,o),
(254,499,c),
(178,554,l),
(183,567,l),
(213.667,563.667,o),
(246.333,562,o),
(281,562,cs),
(294.333,562,o),
(314.333,562.667,o),
(341,564,cs),
(457,572,o),
(547.333,579,o),
(642,587,cs),
(706,592.333,o),
(739,598.333,o),
(771,617,cs),
(773.667,618.333,o),
(775.667,618.5,o),
(777,617.5,cs),
(778.333,616.5,o),
(779.333,616,o),
(780,616,c),
(871,566,l),
(868,551,l),
(728.667,543.667,o),
(564.667,532.333,o),
(376,517,cs)
);
},
{
closed = 1;
nodes = (
(484,351,l),
(484,468.333,o),
(482.667,564,o),
(480,638,cs),
(478.667,679.333,o),
(466.667,726,o),
(440,758,c),
(450,770,l),
(557,684,l),
(550.333,655.333,o),
(547,621,o),
(547,581,cs),
(547,358,l),
(547,358,l)
);
}
);
width = 1000;
}
);
unicode = 101211;
}
{
glyphname = u18B62;
layers = (
{
layerId = master01;
shapes = (
{
closed = 1;
nodes = (
(216,317.333,o),
(175.333,311.333,o),
(134,302,c),
(58,360,l),
(63,373,l),
(92.333,370.333,o),
(122,369,o),
(152,369,cs),
(167.333,369,o),
(190.333,369.667,o),
(221,371,cs),
(359.667,379.667,o),
(521,392.667,o),
(705,410,cs),
(774.333,418,o),
(802,421.333,o),
(834,440,cs),
(836,441.333,o),
(839,441,o),
(843,439,cs),
(934,387,l),
(931,372,l),
(743,360.667,o),
(518,343.333,o),
(256,320,cs)
);
},
{
closed = 1;
nodes = (
(287,531,ls),
(287,575,o),
(272,618.333,o),
(244,653,c),
(255,665,l),
(358,578,l),
(351.333,552.667,o),
(348,518.667,o),
(348,476,cs),
(348,17,l),
(287,-15,l),
(287,-15,l)
);
},
{
closed = 1;
nodes = (
(528,117,l),
(541,89,l),
(262,-59,ls),
(216.667,-83,o),
(183,-103,o),
(161,-119,c),
(66,-85,l),
(66,-72,l),
(115.333,-58,o),
(160,-42.333,o),
(200,-25,cs)
);
},
{
closed = 1;
nodes = (
(581,607,ls),
(581,651,o),
(566,694.333,o),
(538,729,c),
(549,741,l),
(655,654,l),
(648.333,628.667,o),
(645,594.667,o),
(645,552,cs),
(645,-8,ls),
(645,-49.333,o),
(650.667,-60.667,o),
(680,-62,cs),
(688.667,-62.667,o),
(702,-63,o),
(720,-63,cs),
(758,-63,o),
(794,-60.667,o),
(828,-56,cs),
(849.333,-54.667,o),
(853.667,-48.333,o),
(855,-27,cs),
(863,166,l),
(887,166,l),
(895,71.333,o),
(910.667,-36.333,o),
(928,-87,c),
(928.667,-87.667,o),
(929,-89,o),
(929,-91,cs),
(929,-94.333,o),
(927.333,-96.667,o),
(924,-98,cs),
(897.333,-109.333,o),
(860,-117.333,o),
(812,-122,cs),
(776,-124.667,o),
(747,-126,o),
(725,-126,cs),
(711.667,-126,o),
(692.333,-125.333,o),
(667,-124,cs),
(605.667,-121.333,o),
(581,-91.667,o),
(581,-21,cs)
);
}
);
width = 1000;
}
);
unicode = 101218;
}
{
glyphname = u18B63;
layers = (
{
layerId = master01;
shapes = (
{
closed = 1;
nodes = (
(345,633,l),
(339,606.333,o),
(336.333,572,o),
(337,530,cs),
(349,33,l),
(353,-152,l),
(341,-158,l),
(277,-92,ls),
(275.667,-90.667,o),
(275.667,-87.667,o),
(277,-83,cs),
(285,-62.333,o),
(289,-40.333,o),
(289,-17,cs),
(290.333,111,o),
(281.333,409,o),
(272,585,cs),
(269.333,626.333,o),
(255.333,673.333,o),
(226,704,c),
(237,716,l),
(237,716,l)
);
},
{
closed = 1;
nodes = (
(745,675,l),
(737,649.667,o),
(731.667,615.667,o),
(729,573,cs),
(691,-146,l),
(678,-151,l),
(620,-80,ls),
(618.667,-78.667,o),
(618.667,-75.667,o),
(620,-71,c),
(630,-51,o),
(636,-29.667,o),
(638,-7,cs),
(650,123.667,o),
(663.667,427.667,o),
(669,633,cs),
(669,675.667,o),
(658.667,723,o),
(632,755,c),
(644,766,l),
(644,766,l)
);
},
{
closed = 1;
nodes = (
(448,-9,ls),
(509.333,-5,o),
(543.667,2.333,o),
(577,21,cs),
(579.667,22.333,o),
(581.667,22.5,o),
(583,21.5,cs),
(584.333,20.5,o),
(585.333,20,o),
(586,20,c),
(677,-33,l),
(674,-48,l),
(325,-69,l),
(325,-18,l),
(325,-18,l)
);
},
{
closed = 1;
nodes = (
(232,373,ls),
(194.667,371,o),
(154,365.333,o),
(110,356,c),
(34,414,l),
(39,427,l),
(69.667,423.667,o),
(102.333,422,o),
(137,422,cs),
(150.333,422,o),
(170.333,422.667,o),
(197,424,cs),
(311,430.667,o),
(473.333,443.333,o),
(684,462,cs),
(748,468,ls),
(814.667,473.333,o),
(845,478.333,o),
(877,497,cs),
(879.667,498.333,o),
(881.667,498.5,o),
(883,497.5,cs),
(884.333,496.5,o),
(885.333,496,o),
(886,496,c),
(977,443,l),
(974,428,l),
(855.333,422,o),
(730.667,413.667,o),
(600,403,cs),
(469.333,392.333,o),
(390,386,o),
(362,384,cs)
);
}
);
width = 1000;
}
);
unicode = 101219;
}
{
glyphname = u18B6D;
layers = (
{
layerId = master01;
shapes = (
{
closed = 1;
nodes = (
(377,327,o),
(262,127.333,o),
(62,-50,c),
(42,-28,l),
(214,152,o),
(341.667,374,o),
(425,638,cs),
(433,666,o),
(437,692,o),
(437,716,cs),
(437,732.667,o),
(435,748,o),
(431,762,c),
(447,770,l),
(521,658,l),
(507.667,638,o),
(494.333,609.667,o),
(477,567,cs)
);
},
{
closed = 1;
nodes = (
(244,487.333,o),
(203.333,481.333,o),
(162,472,c),
(86,530,l),
(91,543,l),
(120.333,540.333,o),
(150,539,o),
(180,539,cs),
(195.333,539,o),
(218.333,539.667,o),
(249,541,cs),
(392.333,550.333,o),
(547.333,562.667,o),
(714,578,cs),
(783.333,586,o),
(811,589.333,o),
(843,608,cs),
(845,609.333,o),
(848,609,o),
(852,607,cs),
(943,555,l),
(940,540,l),
(746.667,528,o),
(528,511.333,o),
(284,490,cs)
);
},
{
closed = 1;
nodes = (
(238,-142,l),
(400.667,-12.667,o),
(529.333,170.667,o),
(572,324,cs),
(575.333,334,o),
(577,346,o),
(577,360,cs),
(577,376.667,o),
(574,391,o),
(568,403,c),
(582,410,l),
(660,319,l),
(642.667,295,o),
(630.333,275.333,o),
(623,260,cs),
(539,85.333,o),
(421.333,-51.667,o),
(256,-165,c)
);
},
{
closed = 1;
nodes = (
(563,167,l),
(677.667,97.667,o),
(780.667,24.667,o),
(872,-52,cs),
(874,-54,o),
(874.667,-57.667,o),
(874,-63,cs),
(864,-155,l),
(850,-157,l),
(776.667,-56.333,o),
(675.667,43,o),
(547,141,c)
);
},
{
closed = 1;
nodes = (
(737,369,l),
(794.333,346.333,o),
(861.333,312.667,o),
(904,286,c),
(908,282,o),
(910,278,o),
(910,274,cs),
(919,173,l),
(899,162,l),
(857.667,220.667,o),
(791.667,294.333,o),
(725,349,c)
);
}
);
width = 1000;
}
);
unicode = 101229;
}
{
glyphname = u18B75;
layers = (
{
layerId = master01;
shapes = (
{
closed = 1;
nodes = (
(452,756,l),
(554,670,l),
(549.333,646,o),
(545.333,617.333,o),
(542,584,cs),
(539,554,ls),
(515,319.333,o),
(471.5,155.5,o),
(341.5,13.5,cs),
(276.5,-57.5,o),
(186.333,-114.667,o),
(71,-158,c),
(58,-133,l),
(274,-30.333,o),
(378.5,117.833,o),
(420.5,274.5,cs),
(441.5,352.833,o),
(458.333,451.333,o),
(471,570,cs),
(472.333,580.667,o),
(473,595.667,o),
(473,615,cs),
(473,664.333,o),
(463,704.667,o),
(439,746,c)
);
},
{
closed = 1;
nodes = (
(206,211,ls),
(200.667,207,o),
(196.667,206.667,o),
(194,210,cs),
(149,272,ls),
(147,275.333,o),
(146,278,o),
(146,280,cs),
(146,284,o),
(147.667,286.667,o),
(151,288,c),
(177.667,304,o),
(187,328.667,o),
(191,358,cs),
(192.333,368.667,o),
(193,376.333,o),
(193,381,cs),
(193,410.333,o),
(183,436.333,o),
(163,459,c),
(175,471,l),
(268,398,l),
(254.667,376.667,o),
(248.667,346,o),
(242,306,cs),
(241,300,ls),
(241,293.333,o),
(245,290.333,o),
(253,291,cs),
(335,296.333,o),
(475.667,310,o),
(675,332,cs),
(716.333,336,o),
(755.667,353.667,o),
(781,379,cs),
(784.333,382.333,o),
(787.667,382.333,o),
(791,379,cs),
(850,314,l),
(853.333,311.333,o),
(853.333,308.333,o),
(850,305,cs),
(826,284,ls),
(816.667,276,o),
(817.333,276.333,o),
(816,267,cs),
(804,159,o),
(760,-3.667,o),
(716,-89,cs),
(700,-119.667,o),
(677,-150.333,o),
(653,-161,cs),
(647.667,-163,o),
(644,-162.333,o),
(642,-159,cs),
(615.333,-113.667,o),
(537.333,-42.333,o),
(456,11,c),
(469,30,l),
(640,-60,ls),
(642,-60.667,o),
(643.667,-61.5,o),
(645,-62.5,cs),
(646.333,-63.5,o),
(648,-64,o),
(650,-64,cs),
(652.667,-64,o),
(655.667,-60.667,o),
(659,-54,cs),
(700.333,22,o),
(743.333,183.333,o),
(750,270,cs),
(751,284,ls),
(751,289.333,o),
(749,290.333,o),
(741,289,cs),
(256,242,ls),
(248,240.667,o),
(241,237.667,o),
(235,233,cs)
);
},
{
closed = 1;
nodes = (
(274,505.667,o),
(233.333,499.667,o),
(190,491,c),
(114,550,l),
(119,563,l),
(149.667,559.667,o),
(182.333,558,o),
(217,558,cs),
(230.333,558,o),
(250.333,558.667,o),
(277,560,cs),
(410,569,ls),
(533.333,577,o),
(617.333,583,o),
(662,587,cs),
(726,592.333,o),
(759,598.333,o),
(791,617,cs),
(793.667,618.333,o),
(795.667,618.5,o),
(797,617.5,cs),
(798.333,616.5,o),
(799.333,616,o),
(800,616,c),
(891,562,l),
(888,547,l),
(694.667,537,o),
(502.667,524.333,o),
(312,509,cs)
);
}
);
width = 1000;
}
);
unicode = 101237;
}
{
glyphname = u18B78;
layers = (
{
layerId = master01;
shapes = (
{
closed = 1;
nodes = (
(145,-134,l),
(293,-27.333,o),
(392.667,85.333,o),
(444,204,cs),
(454,228,o),
(459,252,o),
(459,276,cs),
(459,280.667,o),
(458.333,288.333,o),
(457,299,c),
(470,304,l),
(532,187,l),
(519.333,173.667,o),
(505,155.667,o),
(489,133,cs),
(406.333,19.667,o),
(304,-74.333,o),
(164,-161,c)
);
},
{
closed = 1;
nodes = (
(474,152,l),
(602,76,o),
(680.667,24.333,o),
(774,-53,cs),
(776.667,-55,o),
(778,-58,o),
(778,-62,cs),
(767,-160,l),
(750,-163,l),
(675.333,-61.667,o),
(567.667,46.333,o),
(453,129,c)
);
},
{
closed = 1;
nodes = (
(381.333,363.667,o),
(238.667,205.667,o),
(56,85,c),
(38,109,l),
(218,253,o),
(354.667,433.667,o),
(440,635,cs),
(453.333,668.333,o),
(460,699.667,o),
(460,729,cs),
(460,739.667,o),
(459,749.333,o),
(457,758,c),
(473,764,l),
(537,646,l),
(521,627.333,o),
(506.667,600.333,o),
(484,559,cs)
);
},
{
closed = 1;
nodes = (
(230,461.333,o),
(189.333,455.333,o),
(148,446,c),
(72,504,l),
(77,517,l),
(106.333,514.333,o),
(136,513,o),
(166,513,cs),
(181.333,513,o),
(204.333,513.667,o),
(235,515,cs),
(378.333,524.333,o),
(533.333,536.667,o),
(700,552,cs),
(769.333,560,o),
(797,563.333,o),
(829,582,cs),
(831,583.333,o),
(834,583,o),
(838,581,cs),
(929,529,l),
(926,514,l),
(732.667,502,o),
(514,485.333,o),
(270,464,cs)
);
},
{
closed = 1;
nodes = (
(968,185,l),
(791,173,ls),
(786.333,173,o),
(782,175.667,o),
(778,181,cs),
(708.667,271.667,o),
(587.333,408.667,o),
(502,498,c),
(530,528,l),
(530,528,o),
(554.333,503.667,o),
(603,455,cs),
(655.667,401,o),
(694.333,363,o),
(719,341,cs),
(788.333,278.333,o),
(827.5,249.667,o),
(877.5,231,cs),
(902.5,221.667,o),
(932.667,215,o),
(968,211,c)
);
}
);
width = 1000;
}
);
unicode = 101240;
}
{
glyphname = u18B7D;
layers = (
{
layerId = master01;
shapes = (
{
closed = 1;
nodes = (
(389.667,364,o),
(245.333,143,o),
(64,-9,c),
(43,14,l),
(221.667,192.667,o),
(355,422.333,o),
(411,633,cs),
(416.333,654.333,o),
(419,673.667,o),
(419,691,cs),
(419,716.333,o),
(414.333,738.333,o),
(405,757,c),
(420,767,l),
(508,653,l),
(493.333,629.667,o),
(478.333,598.667,o),
(463,560,cs)
);
},
{
closed = 1;
nodes = (
(219.333,462.333,o),
(178.667,456,o),
(144,448,c),
(66,505,l),
(71,518,l),
(103,516,o),
(131.667,515,o),
(157,515,cs),
(174.333,515,o),
(199,515.667,o),
(231,517,cs),
(421,531,ls),
(496.333,536.333,o),
(573.333,542.333,o),
(652,549,cs),
(713.333,554.333,o),
(748.667,562,o),
(782,582,cs),
(784.667,583.333,o),
(787.667,583,o),
(791,581,cs),
(884,529,l),
(881,514,l),
(791.667,507.333,o),
(722,502.333,o),
(672,499,cs),
(466,483.667,o),
(330.667,473,o),
(266,467,cs)
);
},
{
closed = 1;
nodes = (
(578,520,l),
(614,446.667,o),
(686.667,323.333,o),
(732,254,cs),
(802.667,146,o),
(858,90.333,o),
(958,77,c),
(958,53,l),
(798,31,l),
(796,31,ls),
(789.333,31,o),
(783.667,34.667,o),
(779,42,cs),
(716.333,148.667,o),
(605,356.333,o),
(525,515,c)
);
},
{
closed = 1;
nodes = (
(331.667,22,o),
(399.333,121.667,o),
(426,175,cs),
(438.667,200.333,o),
(445,225.333,o),
(445,250,cs),
(445,254.667,o),
(444.333,261,o),
(443,269,c),
(460,277,l),
(527,180,l),
(511,167.333,o),
(497.667,154.667,o),
(487,142,cs),
(302,-72,l),
(662,-18,l),
(668,-49,l),
(317,-124,ls),
(289,-130,o),
(267.333,-136.333,o),
(252,-143,cs),
(248,-144.333,o),
(244.667,-143,o),
(242,-139,cs),
(199,-78,ls),
(197.667,-76.667,o),
(197,-75,o),
(197,-73,cs),
(197,-69.667,o),
(199,-67.333,o),
(203,-66,c),
(241.667,-59.333,o),
(262.333,-48.667,o),
(281,-30,cs)
);
},
{
closed = 1;
nodes = (
(545,99,l),
(638.333,29.667,o),
(684.667,-5.333,o),
(726,-44,cs),
(729.333,-47.333,o),
(730.667,-52,o),
(730,-58,cs),
(714,-160,l),
(693,-167,l),
(642.333,-72.333,o),
(597.667,0.333,o),
(527,83,c)
);
}
);
width = 1000;
}
);
unicode = 101245;
}
{
glyphname = u18B85;
layers = (
{
layerId = master01;
shapes = (
{
closed = 1;
nodes = (
(282,196,ls),
(278,192.667,o),
(274.333,192.667,o),
(271,196,c),
(218,265,ls),
(215.333,269,o),
(215.333,272.333,o),
(218,275,cs),
(246,299,o),
(251.667,309.333,o),
(277,368,cs),
(306.333,434.667,o),
(384,635.333,o),
(388,674,cs),
(390.667,696.667,o),
(384,728.667,o),
(368,750,c),
(379,761,l),
(469,679,l),
(458.333,665.667,o),
(445,638.667,o),
(429,598,cs),
(406,540,ls),
(352,408,o),
(319.667,325,o),
(309,291,cs),
(308.333,289.667,o),
(308,287.667,o),
(308,285,cs),
(308,278.333,o),
(312,275.333,o),
(320,276,cs),
(396,281.333,o),
(565.333,297,o),
(608,305,cs),
(656.667,314.333,o),
(691.667,329.667,o),
(713,351,cs),
(716.333,354.333,o),
(719.333,354.333,o),
(722,351,cs),
(784,291,ls),
(787.333,288.333,o),
(787.333,285.333,o),
(784,282,cs),
(759,257,ls),
(751.266,249.266,o),
(749,244.351,o),
(749,240,c),
(727.667,124,o),
(693,14.333,o),
(645,-89,cs),
(631.667,-118.333,o),
(604,-149,o),
(580,-161,cs),
(577.333,-162.333,o),
(575.333,-163,o),
(574,-163,cs),
(571.333,-163,o),
(569,-161.333,o),
(567,-158,cs),
(533.667,-112.667,o),
(456.667,-41.667,o),
(386,13,c),
(399,32,l),
(567,-58,ls),
(572.333,-60.667,o),
(576,-62,o),
(578,-62,cs),
(582.667,-62,o),
(587,-58,o),
(591,-50,cs),
(632.333,30,o),
(666.333,142.667,o),
(685,252,cs),
(685,254,ls),
(685,260,o),
(681.333,262.667,o),
(674,262,cs),
(333,228,ls),
(325,227.333,o),
(318,224.333,o),
(312,219,cs)
);
},
{
closed = 1;
nodes = (
(227,457.333,o),
(186.333,451.333,o),
(145,442,c),
(69,500,l),
(74,513,l),
(103.333,510.333,o),
(133,509,o),
(163,509,cs),
(178.333,509,o),
(201.333,509.667,o),
(232,511,cs),
(387.333,521,o),
(541.333,533.667,o),
(694,549,cs),
(763.333,557,o),
(791,560.333,o),
(823,579,cs),
(825,580.333,o),
(828,580,o),
(832,578,cs),
(923,526,l),
(920,511,l),
(728,498.333,o),
(510.333,481.333,o),
(267,460,cs)
);
}
);
width = 1000;
}
);
unicode = 101253;
}
{
glyphname = u18B87;
layers = (
{
layerId = master01;
shapes = (
{
closed = 1;
nodes = (
(360,248,ls),
(356,244.667,o),
(352.333,244.667,o),
(349,248,c),
(296,317,ls),
(293.333,321,o),
(293.333,324.333,o),
(296,327,cs),
(326.667,355,o),
(332.333,381,o),
(347,453,cs),
(360.333,519.667,o),
(375,620,o),
(375,672,cs),
(375,700.667,o),
(368.667,723,o),
(356,739,c),
(368,750,l),
(452,675,l),
(444,659.667,o),
(438,638.667,o),
(434,612,cs),
(418,518.667,o),
(404,429,o),
(392,343,cs),
(391,337,ls),
(391,330.333,o),
(395,327.333,o),
(403,328,cs),
(447.667,332,o),
(474.333,334.667,o),
(483,336,cs),
(523,342.667,o),
(555,358,o),
(579,382,cs),
(582.333,385.333,o),
(585.333,385.333,o),
(588,382,cs),
(650,322,ls),
(653.333,319.333,o),
(653.333,316.333,o),
(650,313,cs),
(625,288,ls),
(620.149,283.149,o),
(615,280.398,o),
(615,271,cs),
(604.333,101.667,o),
(589,-11.667,o),
(557,-97,cs),
(545,-130.333,o),
(518.667,-155.667,o),
(492,-169,cs),
(489.333,-170.333,o),
(487.333,-171,o),
(486,-171,cs),
(483.333,-171,o),
(481,-169.333,o),
(479,-166,cs),
(451.667,-122,o),
(404.333,-74,o),
(337,-22,c),
(350,-3,l),
(480,-68,ls),
(486.667,-70.667,o),
(490.333,-72,o),
(491,-72,cs),
(494.333,-72,o),
(497.333,-68.667,o),
(500,-62,cs),
(528,15.333,o),
(547,152.333,o),
(551,283,cs),
(551,290.333,o),
(547.333,293.667,o),
(540,293,cs),
(411,280,ls),
(403,279.333,o),
(396,276.333,o),
(390,271,cs)
);
},
{
closed = 1;
nodes = (
(196.333,488.667,o),
(155.333,483,o),
(116,475,c),
(39,533,l),
(44,546,l),
(74.667,542.667,o),
(107.667,541,o),
(143,541,cs),
(157,541,o),
(177.333,541.667,o),
(204,543,cs),
(352.667,551.667,o),
(528.333,564.667,o),
(731,582,cs),
(799,588.667,o),
(829,592.333,o),
(861,611,cs),
(863.667,612.333,o),
(866.667,612,o),
(870,610,cs),
(962,557,l),
(959,542,l),
(699.667,528.667,o),
(459.667,512,o),
(239,492,cs)
);
},
{
closed = 1;
nodes = (
(736,235,l),
(799.333,159.667,o),
(858.333,74.667,o),
(913,-20,c),
(914.333,-24.667,o),
(914.333,-28.667,o),
(913,-32,cs),
(879,-141,l),
(857,-141,l),
(814.333,0.333,o),
(767,121,o),
(715,221,c)
);
},
{
closed = 1;
nodes = (
(234.667,42.333,o),
(173.333,-76.333,o),
(132,-131,c),
(113,-133,l),
(71,-47,ls),
(69.667,-43.667,o),
(70.333,-41.333,o),
(73,-40,cs),
(94.333,-30,o),
(110,-20,o),
(120,-10,cs),
(181.333,54,o),
(216,146.333,o),
(212,221,c),
(233,225,l),
(246.333,174.333,o),
(251,149,o),
(251,125,cs),
(251,115.667,o),
(250,106.333,o),
(248,97,cs)
);
}
);
width = 1000;
}
);
unicode = 101255;
}
{
glyphname = u18B89;
layers = (
{
layerId = master01;
shapes = (
{
closed = 1;
nodes = (
(202,490.333,o),
(161.333,484.333,o),
(120,475,c),
(44,533,l),
(49,546,l),
(78.333,543.333,o),
(108,542,o),
(138,542,cs),
(153.333,542,o),
(176.333,542.667,o),
(207,544,cs),
(391.667,555.333,o),
(567.667,569.667,o),
(735,587,cs),
(804.333,595,o),
(832,598.333,o),
(864,617,cs),
(866,618.333,o),
(869,618,o),
(873,616,cs),
(964,564,l),
(961,549,l),
(744.333,534.333,o),
(504.667,515.667,o),
(242,493,cs)
);
},
{
closed = 1;
nodes = (
(390,272,ls),
(386,268.667,o),
(382.333,268.667,o),
(379,272,c),
(326,341,ls),
(323.333,345,o),
(323.333,348.333,o),
(326,351,cs),
(356.667,380.333,o),
(365.667,408.333,o),
(379,475,cs),
(393.667,547,o),
(412,648.667,o),
(412,690,cs),
(412,718.667,o),
(405.667,741,o),
(393,757,c),
(405,768,l),
(489,693,l),
(483,680.333,o),
(477,659.333,o),
(471,630,cs),
(456.333,556.667,o),
(440,470,o),
(422,370,cs),
(421,364,ls),
(421,357.333,o),
(425,354.333,o),
(433,355,cs),
(505,360,ls),
(605,366.667,o),
(677.667,372.667,o),
(723,378,cs),
(761,382.667,o),
(793,398,o),
(819,424,cs),
(822.333,427.333,o),
(825.333,427.333,o),
(828,424,c),
(892,364,ls),
(895.333,361.333,o),
(895.333,358.333,o),
(892,355,cs),
(867,330,ls),
(862.149,325.149,o),
(857,322.398,o),
(857,313,cs),
(847.667,165,o),
(809.667,2.667,o),
(767,-84,cs),
(749.667,-118.667,o),
(721,-155,o),
(701,-167,c),
(697,-168.333,o),
(694.667,-169,o),
(694,-169,cs),
(691.333,-169,o),
(688.667,-167.667,o),
(686,-165,cs),
(636.667,-119,o),
(561,-67.667,o),
(459,-11,c),
(470,13,l),
(678,-63,l),
(686,-65,l),
(690.667,-65,o),
(695.333,-61.333,o),
(700,-54,cs),
(740,11.333,o),
(784,199.667,o),
(788,321,cs),
(788,328.333,o),
(784.333,331.667,o),
(777,331,cs),
(441,304,ls),
(433,303.333,o),
(426,300.333,o),
(420,295,cs)
);
},
{
closed = 1;
nodes = (
(42,-47,l),
(136.667,25,o),
(220,115.667,o),
(256,185,cs),
(266.667,203.667,o),
(276,234,o),
(276,262,cs),
(276,269.333,o),
(275.667,274.667,o),
(275,278,c),
(290,282,l),
(343,169,l),
(332.333,159,o),
(316.667,142.333,o),
(296,119,cs),
(235.333,52.333,o),
(156.667,-12,o),
(60,-74,c)
);
},
{
closed = 1;
nodes = (
(459,259,l),
(543,207,o),
(604.333,164,o),
(643,130,c),
(645.667,128.667,o),
(647.333,122,o),
(646,118,cs),
(625,27,l),
(602,21,l),
(568,96.333,o),
(515,170,o),
(443,242,c)
);
}
);
width = 1000;
}
);
unicode = 101257;
}
{
glyphname = u18B8C;
layers = (
{
layerId = master01;
shapes = (
{
closed = 1;
nodes = (
(234,191,ls),
(230,187.667,o),
(226.333,187.667,o),
(223,191,c),
(170,260,ls),
(167.333,264,o),
(167.333,267.333,o),
(170,270,cs),
(202,299.333,o),
(203,305,o),
(223,365,cs),
(244.333,430.333,o),
(297.333,630.667,o),
(300,676,cs),
(301.333,700,o),
(296,732,o),
(280,752,c),
(292,763,l),
(379,687,l),
(371,671,o),
(363.667,650,o),
(357,624,cs),
(327.667,508,o),
(288.667,367.667,o),
(266,289,cs),
(265.333,287.667,o),
(265,285.667,o),
(265,283,cs),
(265,276.333,o),
(269,273.333,o),
(277,274,cs),
(403.667,283.333,o),
(615,300.667,o),
(695,310,cs),
(733,314.667,o),
(765,330,o),
(791,356,cs),
(794.333,359.333,o),
(797.333,359.333,o),
(800,356,c),
(864,296,ls),
(867.333,293.333,o),
(867.333,290.333,o),
(864,287,cs),
(839,262,ls),
(831.266,254.266,o),
(829,249.351,o),
(829,245,c),
(806.333,113,o),
(750,-11,o),
(694,-95,cs),
(672.667,-128.333,o),
(645,-156,o),
(621,-168,cs),
(618.333,-169.333,o),
(616.333,-170,o),
(615,-170,cs),
(611.667,-170,o),
(608.333,-168.333,o),
(605,-165,cs),
(556.333,-114.333,o),
(480,-59,o),
(376,1,c),
(387,25,l),
(610,-67,l),
(618,-69,l),
(624,-69,o),
(629.667,-65.667,o),
(635,-59,cs),
(687,2.333,o),
(744.333,139.667,o),
(763,253,cs),
(763,255,ls),
(763,261,o),
(759.333,263.667,o),
(752,263,cs),
(285,223,ls),
(277,222.333,o),
(270,219.333,o),
(264,214,cs)
);
},
{
closed = 1;
nodes = (
(299,524,l),
(371,529.333,o),
(458.333,537.667,o),
(561,549,cs),
(662,559,ls),
(731.333,567,o),
(759,570.333,o),
(791,589,cs),
(793,590.333,o),
(796,590,o),
(800,588,cs),
(891,536,l),
(888,521,l),
(805.333,515.667,o),
(671,505,o),
(485,489,cs),
(284,471,l),
(284,471,l)
);
}
);
width = 1000;
}
);
unicode = 101260;
}
{
glyphname = u18B8D;
layers = (
{
layerId = master01;
shapes = (
{
closed = 1;
nodes = (
(334,554,l),
(406,559.333,o),
(493.333,567.667,o),
(596,579,cs),
(697,589,ls),
(766.333,597,o),
(794,600.333,o),
(826,619,cs),
(828,620.333,o),
(831,620,o),
(835,618,cs),
(926,566,l),
(923,551,l),
(840.333,545.667,o),
(706,535,o),
(520,519,cs),
(319,501,l),
(319,501,l)
);
},
{
closed = 1;
nodes = (
(217.333,83.333,o),
(176.667,77,o),
(128,67,c),
(52,123,l),
(57,136,l),
(86.333,133.333,o),
(116,132,o),
(146,132,cs),
(169.333,132,o),
(192.333,133,o),
(215,135,cs),
(295,141,o),
(373.333,148.333,o),
(450,157,cs),
(512.667,163.667,o),
(546,170.333,o),
(578,189,c),
(581.333,190.333,o),
(584.333,190,o),
(587,188,cs),
(679,137,l),
(676,122,l),
(536.667,112.667,o),
(394.667,100.667,o),
(250,86,cs)
);
},
{
closed = 1;
nodes = (
(293,260,ls),
(289,256.667,o),
(285.333,256.667,o),
(282,260,c),
(229,329,ls),
(226.333,333,o),
(226.333,336.333,o),
(229,339,cs),
(259.667,367,o),
(265.333,393,o),
(280,465,cs),
(293.333,531.667,o),
(308,632,o),
(308,684,cs),
(308,712.667,o),
(301.667,735,o),
(289,751,c),
(301,762,l),
(385,687,l),
(377,671.667,o),
(371,650.667,o),
(367,624,cs),
(349.667,520,o),
(335.667,431.333,o),
(325,358,cs),
(324,352,ls),
(324,345.333,o),
(328,342.333,o),
(336,343,cs),
(501.333,355,o),
(629.667,366.667,o),
(721,378,cs),
(759,382.667,o),
(791,398,o),
(817,424,cs),
(820.333,427.333,o),
(823.333,427.333,o),
(826,424,c),
(890,364,ls),
(893.333,361.333,o),
(893.333,358.333,o),
(890,355,cs),
(865,330,ls),
(860.149,325.149,o),
(855,322.398,o),
(855,313,cs),
(845.667,166.333,o),
(802.667,-8,o),
(760,-96,cs),
(742.667,-129.333,o),
(719.333,-156,o),
(694,-168,cs),
(691.333,-169.333,o),
(689.333,-170,o),
(688,-170,cs),
(685.333,-170,o),
(682.333,-168.333,o),
(679,-165,cs),
(630.333,-115.667,o),
(557.667,-63.667,o),
(461,-9,c),
(472,15,l),
(676,-67,ls),
(680,-69,o),
(684,-70,o),
(688,-70,cs),
(692.667,-70,o),
(696.667,-67,o),
(700,-61,cs),
(741.333,13.667,o),
(785,201,o),
(789,321,cs),
(789,328.333,o),
(785.333,331.667,o),
(778,331,cs),
(344,292,ls),
(336,291.333,o),
(329,288.333,o),
(323,283,cs)
);
}
);
width = 1000;
}
);
unicode = 101261;
}
{
glyphname = u18B8F;
layers = (
{
layerId = master01;
shapes = (
{
closed = 1;
nodes = (
(458,550.333,o),
(454.333,540.333,o),
(447,521,cs),
(399,395.667,o),
(373.667,327.333,o),
(371,316,cs),
(370,312,l),
(370,305.333,o),
(374,299,o),
(382,299,cs),
(431.333,299,o),
(546,306,o),
(586,310,cs),
(630,314,o),
(665,329,o),
(691,355,cs),
(695,359,o),
(698.667,359,o),
(702,355,cs),
(757,293,ls),
(760.333,289,o),
(760.333,285.333,o),
(757,282,cs),
(737,264,ls),
(732.333,260,o),
(729.167,256.167,o),
(727.5,252.5,cs),
(725.833,248.833,o),
(724.333,246,o),
(723,244,cs),
(621.667,61.333,o),
(402,-85,o),
(58,-161,c),
(49,-130,l),
(357,-38,o),
(566.667,96.667,o),
(644,246,cs),
(646.667,251.333,o),
(648,255.667,o),
(648,259,cs),
(648,264.333,o),
(644.333,266.333,o),
(637,265,c),
(384,249,ls),
(378,248.333,o),
(371,245.333,o),
(363,240,cs),
(333,219,ls),
(329,215.667,o),
(325.333,215.667,o),
(322,219,cs),
(272,281,ls),
(268,285,o),
(268,288.667,o),
(272,292,cs),
(296,314.667,o),
(304.667,323.667,o),
(322,357,cs),
(340.667,394.333,o),
(382.667,495.667,o),
(420,625,cs),
(426,645.667,o),
(429,668,o),
(429,692,cs),
(429,715.333,o),
(425.333,736,o),
(418,754,c),
(431,761,l),
(502,647,l),
(488.667,627.667,o),
(474,595.667,o),
(458,551,c)
);
},
{
closed = 1;
nodes = (
(219,475.333,o),
(178.333,469.333,o),
(137,460,c),
(61,518,l),
(66,531,l),
(95.333,528.333,o),
(125,527,o),
(155,527,cs),
(170.333,527,o),
(193.333,527.667,o),
(224,529,cs),
(391.333,539.667,o),
(557.333,553.333,o),
(722,570,cs),
(791.333,578,o),
(819,581.333,o),
(851,600,cs),
(853,601.333,o),
(856,601,o),
(860,599,cs),
(951,547,l),
(948,532,l),
(752.667,518.667,o),
(523,500.667,o),
(259,478,cs)
);
},
{
closed = 1;
nodes = (
(598,128,l),
(710,84,o),
(830.333,23.667,o),
(905,-27,c),
(908.333,-30.333,o),
(910.333,-33.667,o),
(911,-37,cs),
(929,-153,l),
(909,-164,l),
(811,-54,o),
(702.667,35.333,o),
(584,104,c)
);
}
);
width = 1000;
}
);
unicode = 101263;
}
{
glyphname = u18B90;
layers = (
{
layerId = master01;
shapes = (
{
closed = 1;
nodes = (
(194,355.333,o),
(153.333,349.333,o),
(112,340,c),
(36,398,l),
(41,411,l),
(70.333,408.333,o),
(100,407,o),
(130,407,cs),
(145.333,407,o),
(168.333,407.667,o),
(199,409,cs),
(396.333,421,o),
(575,435.667,o),
(735,453,cs),
(804.333,461,o),
(832,464.333,o),
(864,483,cs),
(866,484.333,o),
(869,484,o),
(873,482,cs),
(964,430,l),
(961,415,l),
(773,402.333,o),
(530.667,383.333,o),
(234,358,cs)
);
},
{
closed = 1;
nodes = (
(724,413,l),
(653.333,98.333,o),
(449.667,-84.333,o),
(91,-171,c),
(82,-140,l),
(291.333,-72,o),
(437.667,13,o),
(539,153,cs),
(589.667,223,o),
(627,308.667,o),
(651,410,c)
);
},
{
closed = 1;
nodes = (
(497.667,95.667,o),
(655,38.333,o),
(795,-35,cs),
(798.333,-36.333,o),
(800.667,-40.667,o),
(802,-48,cs),
(822,-157,l),
(809,-162,l),
(653,-46,o),
(508.667,26.667,o),
(306,108,cs),
(261.333,126,o),
(227,136,o),
(203,138,c),
(201,175,l),
(219.667,175,o),
(239,185.667,o),
(251,207,cs),
(325.667,345.667,o),
(388,498.667,o),
(420,624,cs),
(423.333,638.667,o),
(425,654,o),
(425,670,cs),
(425,702,o),
(419.333,729.667,o),
(408,753,c),
(422,762,l),
(514,645,l),
(507.333,635,o),
(498.333,615.667,o),
(487,587,cs),
(473,552,ls),
(405.667,392,o),
(343.667,261.667,o),
(287,161,c)
);
}
);
width = 1000;
}
);
unicode = 101264;
}
{
glyphname = u18B95;
layers = (
{
layerId = master01;
shapes = (
{
closed = 1;
nodes = (
(590,436,ls),
(590,542.667,o),
(589.667,605.333,o),
(589,624,cs),
(587.667,661.333,o),
(574.333,709.333,o),
(549,740,c),
(560,752,l),
(662,670,l),
(655.333,641.333,o),
(652,607,o),
(652,567,cs),
(651,-38,l),
(589,-45,l),
(589,-45,l)
);
},
{
closed = 1;
nodes = (
(205.333,-94,o),
(164.333,-99.667,o),
(119,-109,c),
(42,-51,l),
(47,-38,l),
(77.667,-41.333,o),
(110.667,-43,o),
(146,-43,cs),
(160,-43,o),
(180.333,-42.333,o),
(207,-41,cs),
(371,-32.333,o),
(545.667,-20,o),
(731,-4,cs),
(799,2.667,o),
(829,6.333,o),
(861,25,cs),
(863.667,26.333,o),
(866.667,26,o),
(870,24,cs),
(962,-29,l),
(959,-44,l),
(743.667,-55.333,o),
(504.667,-71.333,o),
(242,-92,cs)
);
},
{
closed = 1;
nodes = (
(385,-58,l),
(386.333,63.333,o),
(387,205.333,o),
(387,368,cs),
(387,466.667,o),
(386.333,535.333,o),
(385,574,cs),
(383.667,611.333,o),
(370.333,659.333,o),
(345,690,c),
(356,702,l),
(458,620,l),
(451.333,591.333,o),
(448,557,o),
(448,517,cs),
(447,-54,l),
(447,-54,l)
);
},
{
closed = 1;
nodes = (
(135,435,l),
(199,378.333,o),
(253,325.667,o),
(297,277,cs),
(300.333,273.667,o),
(301.667,269,o),
(301,263,cs),
(280,132,l),
(267,130,l),
(226.333,233.333,o),
(176,330,o),
(116,420,c)
);
}
);
width = 1000;
}
);
unicode = 101269;
}
{
glyphname = u18B9B;
layers = (
{
layerId = master01;
shapes = (
{
closed = 1;
nodes = (
(416,374,l),
(322.667,179.333,o),
(252.667,23.333,o),
(206,-94,cs),
(202,-102.667,o),
(197.667,-107,o),
(193,-107,cs),
(189.667,-107,o),
(186,-104,o),
(182,-98,cs),
(88,34,l),
(101,50,l),
(163,21,ls),
(164.333,20.333,o),
(166,20,o),
(168,20,cs),
(172.667,20,o),
(176,22,o),
(178,26,cs),
(272.667,191.333,o),
(329.667,287.667,o),
(395,389,c)
);
},
{
closed = 1;
nodes = (
(138,683,l),
(191.333,649.667,o),
(252,605.667,o),
(288,575,cs),
(290.667,572.333,o),
(292,568,o),
(292,562,cs),
(286,464,l),
(265,456,l),
(233,520,o),
(180,601,o),
(124,665,c)
);
},
{
closed = 1;
nodes = (
(73,429,l),
(121,401,o),
(177.333,360.333,o),
(212,331,cs),
(216,327,o),
(218,323,o),
(218,319,cs),
(211,222,l),
(190,214,l),
(158,278,o),
(111,353.667,o),
(59,411,c)
);
},
{
closed = 1;
nodes = (
(450,669,l),
(443.333,640.333,o),
(440,606,o),
(440,566,cs),
(440,488.667,o),
(439.333,368,o),
(438,204,cs),
(436,81.333,o),
(435,-39.333,o),
(435,-158,c),
(422,-164,l),
(359,-96,ls),
(357.667,-94.667,o),
(357.667,-91.667,o),
(359,-87,cs),
(367,-69,o),
(371.667,-47.333,o),
(373,-22,cs),
(377.667,118,o),
(380,260.667,o),
(380,406,cs),
(380,488,o),
(379,560,o),
(377,622,cs),
(375.667,663.333,o),
(363.333,710,o),
(334,742,c),
(345,754,l),
(345,754,l)
);
},
{
closed = 1;
nodes = (
(770.667,653,o),
(809.667,669.333,o),
(835,692,cs),
(838.333,695.333,o),
(841.667,695.333,o),
(845,692,cs),
(903,632,l),
(906.333,629.333,o),
(906.333,626.333,o),
(903,623,cs),
(882,601,ls),
(881.333,600.333,o),
(879.167,598.167,o),
(875.5,594.5,cs),
(871.833,590.833,o),
(869.333,586.333,o),
(868,581,cs),
(808,281,o),
(684.667,66.667,o),
(466,-88,c),
(448,-65,l),
(644,103,o),
(754.333,319,o),
(793,583,c),
(793,587,ls),
(793,597,o),
(786,600.667,o),
(772,598,cs),
(714.667,590,o),
(631.333,578.333,o),
(558,561,c),
(495,614,l),
(500,626,l),
(514,624,o),
(529,623,o),
(545,623,cs),
(593.667,623,o),
(651.333,629.667,o),
(718,643,cs)
);
},
{
closed = 1;
nodes = (
(542,434,l),
(688,301.333,o),
(821.333,154.333,o),
(942,-7,cs),
(944.667,-11,o),
(945.667,-14.667,o),
(945,-18,cs),
(923,-136,l),
(908,-137,l),
(821.333,41.667,o),
(664.333,261,o),
(523,413,c)
);
}
);
width = 1000;
}
);
unicode = 101275;
}
{
glyphname = u18B9C;
layers = (
{
layerId = master01;
shapes = (
{
closed = 1;
nodes = (
(468,436,ls),
(468,542.667,o),
(467.667,605.333,o),
(467,624,cs),
(465.667,661.333,o),
(452.333,709.333,o),
(427,740,c),
(438,752,l),
(540,670,l),
(533.333,641.333,o),
(530,607,o),
(530,567,cs),
(529,-38,l),
(467,-45,l),
(467,-45,l)
);
},
{
closed = 1;
nodes = (
(192.333,-94,o),
(151.333,-99.667,o),
(106,-109,c),
(29,-51,l),
(34,-38,l),
(64.667,-41.333,o),
(97.667,-43,o),
(133,-43,cs),
(147,-43,o),
(167.333,-42.333,o),
(194,-41,cs),
(406.667,-30.333,o),
(590.333,-18,o),
(745,-4,cs),
(813,2.667,o),
(843,6.333,o),
(875,25,cs),
(877.667,26.333,o),
(880.667,26,o),
(884,24,cs),
(976,-29,l),
(973,-44,l),
(716.333,-56.667,o),
(468.333,-72.667,o),
(229,-92,cs)
);
}
);
width = 1000;
}
);
unicode = 101276;
}
{
glyphname = u18B9F;
layers = (
{
layerId = master01;
shapes = (
{
closed = 1;
nodes = (
(494,438,ls),
(494,544.667,o),
(493.667,607.333,o),
(493,626,cs),
(491.667,663.333,o),
(478.333,711.333,o),
(453,742,c),
(464,754,l),
(566,672,l),
(559.333,643.333,o),
(556,609,o),
(556,569,cs),
(555,-36,l),
(493,-43,l),
(493,-43,l)
);
},
{
closed = 1;
nodes = (
(192.333,-94,o),
(151.333,-99.667,o),
(106,-109,c),
(29,-51,l),
(34,-38,l),
(64.667,-41.333,o),
(97.667,-43,o),
(133,-43,cs),
(147,-43,o),
(167.333,-42.333,o),
(194,-41,cs),
(406.667,-30.333,o),
(590.333,-18,o),
(745,-4,cs),
(813,2.667,o),
(843,6.333,o),
(875,25,cs),
(877.667,26.333,o),
(880.667,26,o),
(884,24,cs),
(976,-29,l),
(973,-44,l),
(716.333,-56.667,o),
(468.333,-72.667,o),
(229,-92,cs)
);
},
{
closed = 1;
nodes = (
(262,413,l),
(463.333,426.333,o),
(628.333,440.333,o),
(757,455,cs),
(781,457.667,o),
(814.667,467.667,o),
(840,489,cs),
(843.333,491.667,o),
(846.333,491.667,o),
(849,489,cs),
(916,422,ls),
(920,418,o),
(917.667,415.667,o),
(915,413,cs),
(877,382,ls),
(869,376.667,o),
(818,295.667,o),
(806,277,cs),
(767.333,217,o),
(738.667,173,o),
(720,145,c),
(698,157,l),
(732.667,231,o),
(766.667,309.667,o),
(800,393,cs),
(804.715,402.429,o),
(805.527,406,o),
(797,406,cs),
(251,364,l),
(251,364,l)
);
},
{
closed = 1;
nodes = (
(293,318.667,o),
(236.667,209.333,o),
(126,108,c),
(108,127,l),
(168,205.667,o),
(202.5,266.5,o),
(224.5,352.5,cs),
(235.5,395.5,o),
(242,445.667,o),
(244,503,cs),
(246.667,557.667,o),
(236.333,596,o),
(207,636,c),
(219,648,l),
(323,563,l),
(315.667,542.333,o),
(311,518.667,o),
(309,492,cs)
);
}
);
width = 1000;
}
);
unicode = 101279;
}
{
glyphname = u18BA1;
layers = (
{
layerId = master01;
shapes = (
{
closed = 1;
nodes = (
(29,-147,l),
(163.667,-60.333,o),
(277.667,48.333,o),
(323,139,cs),
(331.667,156.333,o),
(336,175.333,o),
(336,196,cs),
(336,205.333,o),
(335,213.333,o),
(333,220,c),
(349,226,l),
(415,94,l),
(393,76.667,o),
(367.667,55,o),
(339,29,cs),
(251,-49.667,o),
(170,-104.667,o),
(46,-174,c)
);
},
{
closed = 1;
nodes = (
(764.667,69.333,o),
(800.667,29.667,o),
(818,13,cs),
(886,-53.667,o),
(931.667,-81,o),
(993,-97,c),
(992,-123,l),
(858,-130,ls),
(850,-130,o),
(844,-127.667,o),
(840,-123,cs),
(774,-31.667,o),
(710.333,51,o),
(649,125,cs),
(622.333,157,o),
(597.667,174.667,o),
(551,188,c),
(550,204,l),
(651,212,l),
(664.333,190.667,o),
(684,164,o),
(710,132,cs)
);
},
{
closed = 1;
nodes = (
(886,577,l),
(879.333,555.667,o),
(875,529.333,o),
(873,498,cs),
(869.667,438.667,o),
(863.333,387,o),
(854,343,cs),
(846,311,o),
(828.333,276.333,o),
(815,263,cs),
(812.333,261,o),
(810.5,260,o),
(809.5,260,cs),
(808.5,260,o),
(807.333,261,o),
(806,263,c),
(758,372,l),
(768,368.667,o),
(775.833,365.5,o),
(781.5,362.5,cs),
(787.167,359.5,o),
(790.667,358,o),
(792,358,cs),
(792.667,358,o),
(793.333,360.667,o),
(794,366,cs),
(807.333,424.667,o),
(809,452,o),
(813,536,cs),
(814.333,574.667,o),
(800,626,o),
(772,658,c),
(783,670,l),
(783,670,l)
);
},
{
closed = 1;
nodes = (
(816,336,l),
(809.333,335.333,o),
(799.667,335,o),
(787,335,cs),
(617,326.333,o),
(452,316,o),
(292,304,cs),
(258.667,301.333,o),
(237.667,296.667,o),
(229,290,cs),
(198,267,ls),
(193.333,263.667,o),
(190,263.667,o),
(188,267,cs),
(143,330,ls),
(140.333,334,o),
(140.333,337.333,o),
(143,340,cs),
(161.667,354.667,o),
(178,387,o),
(178,431,cs),
(178,463,o),
(175.667,501.333,o),
(173,524,cs),
(167.667,561.333,o),
(147.667,608.667,o),
(121,634,c),
(131,647,l),
(240,574,l),
(235.333,554,o),
(233,526,o),
(233,490,cs),
(233,463.333,o),
(234,422.333,o),
(236,367,cs),
(236,355,o),
(237.667,352,o),
(247,352,cs),
(332.333,356,o),
(440.333,363.333,o),
(571,374,cs),
(626,378,ls),
(694,384.667,o),
(724,388.333,o),
(756,407,cs),
(758.667,408.333,o),
(761.667,408,o),
(765,406,cs),
(822,373,l),
(822,373,l)
);
},
{
closed = 1;
nodes = (
(488,338,l),
(488,479.333,o),
(487,577.333,o),
(485,632,cs),
(483.667,673.333,o),
(471.333,720,o),
(442,752,c),
(453,764,l),
(560,678,l),
(553.333,649.333,o),
(550,615,o),
(550,575,cs),
(550,473.667,o),
(549.667,396.667,o),
(549,344,c)
);
}
);
width = 1000;
}
);
unicode = 101281;
}
{
glyphname = u18BA5;
layers = (
{
layerId = master01;
shapes = (
{
closed = 1;
nodes = (
(575,113,l),
(689.667,43.667,o),
(778.333,-16.667,o),
(841,-68,c),
(842.333,-70.667,o),
(842.667,-74.333,o),
(842,-79,cs),
(822,-166,l),
(808,-167,l),
(748.667,-81.667,o),
(665,4,o),
(557,90,c)
);
},
{
closed = 1;
nodes = (
(66,-139,l),
(298,-57.667,o),
(400.667,41.667,o),
(438,191,cs),
(456.667,265.667,o),
(466,367,o),
(466,495,cs),
(466,547,o),
(465.667,587.333,o),
(465,616,cs),
(463.667,678.667,o),
(449,725.667,o),
(421,757,c),
(432,769,l),
(543,683,l),
(537,663,o),
(534,639.333,o),
(534,612,cs),
(534,544,ls),
(534,242.667,o),
(506.333,90,o),
(377,-26,cs),
(312.333,-84,o),
(212.667,-131.667,o),
(78,-169,c)
);
},
{
closed = 1;
nodes = (
(319.333,135,o),
(279,128.667,o),
(237,120,c),
(160,175,l),
(165,188,l),
(194.333,185.333,o),
(224,184,o),
(254,184,cs),
(276.667,184,o),
(299.667,185,o),
(323,187,cs),
(375,189.667,o),
(441.333,194.667,o),
(522,202,cs),
(530.667,202.667,o),
(551.667,204.333,o),
(585,207,cs),
(647.667,212.333,o),
(681,219.333,o),
(713,238,c),
(716.333,239.333,o),
(719.333,239,o),
(722,237,c),
(814,187,l),
(811,172,l),
(745,168,o),
(627.333,159.667,o),
(458,147,cs),
(462,147.667,o),
(428.667,145,o),
(358,139,cs)
);
},
{
closed = 1;
nodes = (
(509,548,l),
(649,468,o),
(802.667,365,o),
(920,273,cs),
(924,270.333,o),
(926,267,o),
(926,263,cs),
(926,165,l),
(913,160,l),
(807.667,281.333,o),
(639,424,o),
(495,524,c)
);
},
{
closed = 1;
nodes = (
(586,489,l),
(648.667,531.667,o),
(704.333,582.333,o),
(731,621,cs),
(745.667,641,o),
(753.333,660,o),
(756,696,c),
(772,700,l),
(814,592,l),
(796,583.333,o),
(777.333,572.333,o),
(758,559,cs),
(716.667,529.667,o),
(668.667,500.667,o),
(614,472,c)
);
},
{
closed = 1;
nodes = (
(282,548,ls),
(328,554.667,o),
(362,569,o),
(384,591,cs),
(387.333,594.333,o),
(390.333,594.333,o),
(393,591,cs),
(441,536,l),
(444.333,533.333,o),
(444.333,530.333,o),
(441,527,cs),
(438.333,525,o),
(433,521.5,o),
(425,516.5,cs),
(417,511.5,o),
(408.667,503,o),
(400,491,cs),
(297.333,345.667,o),
(198,251,o),
(50,171,c),
(35,194,l),
(171,287.333,o),
(256.667,379,o),
(330,499,cs),
(334.667,505.667,o),
(333.667,508.667,o),
(327,508,cs),
(300.333,505.333,o),
(276.667,502.333,o),
(256,499,cs),
(232.667,495.667,o),
(208,490,o),
(182,482,c),
(121,528,l),
(125,540,l),
(151.667,538.667,o),
(169,538,o),
(177,538,cs),
(193.667,538,o),
(211.333,539,o),
(230,541,cs)
);
}
);
width = 1000;
}
);
unicode = 101285;
}
{
glyphname = u18BA6;
layers = (
{
layerId = master01;
shapes = (
{
closed = 1;
nodes = (
(249.667,260.333,o),
(154,117.333,o),
(114,72,c),
(98,73,l),
(72,170,ls),
(71.333,171.333,o),
(71,173,o),
(71,175,cs),
(71,180.333,o),
(73,183.333,o),
(77,184,c),
(91.667,190.667,o),
(106,199.667,o),
(120,211,c),
(157.333,236.333,o),
(228,335,o),
(252,407,cs),
(259.333,427.667,o),
(263,461.667,o),
(263,509,c),
(286,511,l),
(294,459,o),
(298,423.333,o),
(298,404,cs),
(298,366.953,o),
(283.56,338.973,o),
(275,319,cs)
);
},
{
closed = 1;
nodes = (
(472.667,659,o),
(459,719.333,o),
(431,750,c),
(442,762,l),
(551,676,l),
(543,642.667,o),
(540,622.333,o),
(540,573,cs),
(540,311,o),
(543.333,124,o),
(550,12,cs),
(550.667,-8.667,o),
(549.333,-30.333,o),
(546,-53,cs),
(536.667,-99.667,o),
(526,-124.667,o),
(510,-150,cs),
(505.333,-156.667,o),
(500.333,-157.333,o),
(495,-152,cs),
(435,-93.333,o),
(352.667,-30,o),
(274,18,c),
(287,43,l),
(456,-29,ls),
(460,-30.333,o),
(462.333,-31,o),
(463,-31,cs),
(469.667,-31,o),
(473.667,-24.667,o),
(475,-12,cs),
(478.333,18.667,o),
(480,87.333,o),
(480,194,cs),
(480,355.333,o),
(476.667,556.333,o),
(474,615,cs)
);
},
{
closed = 1;
nodes = (
(687,512,l),
(777.667,420,o),
(845.667,333.333,o),
(935,212,cs),
(937,209.333,o),
(937.333,205.667,o),
(936,201,cs),
(904,76,l),
(887,75,l),
(845.667,209.667,o),
(756.333,374.333,o),
(667,493,c)
);
}
);
width = 1000;
}
);
unicode = 101286;
}
{
glyphname = u18BA9;
layers = (
{
layerId = master01;
shapes = (
{
closed = 1;
nodes = (
(465,495,ls),
(465,570.333,o),
(464.667,615.333,o),
(464,630,cs),
(462.667,667.333,o),
(449.333,715.333,o),
(424,746,c),
(435,758,l),
(537,676,l),
(530.333,647.333,o),
(527,613,o),
(527,573,cs),
(527,282,l),
(465,278,l),
(465,278,l)
);
},
{
closed = 1;
nodes = (
(192.333,236,o),
(151.333,230.333,o),
(106,221,c),
(29,279,l),
(34,292,l),
(64.667,288.667,o),
(97.667,287,o),
(133,287,cs),
(147,287,o),
(167.333,287.667,o),
(194,289,cs),
(406.667,299.667,o),
(590.333,312,o),
(745,326,cs),
(813,332.667,o),
(843,336.333,o),
(875,355,cs),
(877.667,356.333,o),
(880.667,356,o),
(884,354,cs),
(976,301,l),
(973,286,l),
(716.333,273.333,o),
(468.333,257.333,o),
(229,238,cs)
);
},
{
closed = 1;
nodes = (
(165,673,l),
(239.667,611.667,o),
(303.333,551,o),
(356,491,cs),
(360.667,485,o),
(362,477,o),
(360,467,cs),
(345,368,l),
(330,368,l),
(288.667,460,o),
(215,584,o),
(147,656,c)
);
},
{
closed = 1;
nodes = (
(582,381,l),
(664.667,467.667,o),
(731.333,579.333,o),
(750,650,cs),
(750.667,652.667,o),
(752.667,660.167,o),
(756,672.5,cs),
(759.333,684.833,o),
(761,697.333,o),
(761,710,cs),
(761,718,o),
(760,726,o),
(758,734,c),
(773,740,l),
(851,633,l),
(842.333,624.333,o),
(825,603.333,o),
(799,570,cs),
(731,480.667,o),
(693,437,o),
(605,357,c)
);
},
{
closed = 1;
nodes = (
(614,179,l),
(706,127.667,o),
(800.333,63,o),
(897,-15,cs),
(899,-17,o),
(900,-20.667,o),
(900,-26,cs),
(891,-153,l),
(874,-159,l),
(800.667,-45.667,o),
(695.333,77.333,o),
(598,156,c)
);
},
{
closed = 1;
nodes = (
(36,-141,l),
(175.333,-47.667,o),
(269,39,o),
(317,119,cs),
(330.333,141.667,o),
(336,169.667,o),
(334,203,c),
(349,208,l),
(416,84,l),
(400.667,73.333,o),
(381,57.667,o),
(357,37,cs),
(281,-31,o),
(166,-108,o),
(50,-164,c)
);
}
);
width = 1000;
}
);
unicode = 101289;
}
{
glyphname = u18BAA;
layers = (
{
layerId = master01;
shapes = (
{
closed = 1;
nodes = (
(207,514,l),
(303,430,o),
(373,360.667,o),
(417,306,cs),
(420.333,301.333,o),
(422,297,o),
(422,293,cs),
(422,290.333,o),
(421.333,286.333,o),
(420,281,cs),
(401,166,l),
(387,167,l),
(343,275,o),
(264.667,415.333,o),
(190,498,c)
);
},
{
closed = 1;
nodes = (
(506,155,l),
(603.333,253.667,o),
(684.333,385.667,o),
(707,467,cs),
(707.667,469.667,o),
(709.667,477.167,o),
(713,489.5,cs),
(716.333,501.833,o),
(718,514.333,o),
(718,527,cs),
(718,535,o),
(717,543,o),
(715,551,c),
(730,557,l),
(805,450,l),
(796.333,441.333,o),
(779,420.333,o),
(753,387,cs),
(663.667,269.667,o),
(627,224.333,o),
(527,135,c)
);
},
{
closed = 1;
nodes = (
(478,439,ls),
(478,545,o),
(477.667,607.333,o),
(477,626,cs),
(475.667,663.333,o),
(462.333,711.333,o),
(437,742,c),
(448,754,l),
(550,672,l),
(543.333,643.333,o),
(540,609,o),
(540,569,cs),
(539,-32,l),
(477,-39,l),
(477,-39,l)
);
},
{
closed = 1;
nodes = (
(819,-44,l),
(591,-56,o),
(472.667,-63,o),
(262,-79,cs),
(228.667,-81.667,o),
(207.667,-86.333,o),
(199,-93,cs),
(168,-116,ls),
(163.333,-119.333,o),
(160,-119.333,o),
(158,-116,cs),
(113,-53,ls),
(110.333,-49,o),
(110.333,-45.667,o),
(113,-43,cs),
(136.333,-25,o),
(148,5.333,o),
(148,48,cs),
(146.667,85.333,o),
(142.333,160,o),
(137,220,cs),
(134.333,254.667,o),
(112,302.333,o),
(84,329,c),
(95,342,l),
(206,266,l),
(203.333,247.333,o),
(202,228.667,o),
(202,210,cs),
(202,196,o),
(202.333,185,o),
(203,177,cs),
(207,85,ls),
(208.333,38.333,o),
(209.667,4.667,o),
(211,-16,cs),
(212.333,-28,o),
(214,-31,o),
(222,-31,cs),
(319.333,-26.333,o),
(455,-16.667,o),
(629,-2,cs),
(697,4.667,o),
(727,8.333,o),
(759,27,cs),
(761.667,28.333,o),
(764.667,28,o),
(768,26,cs),
(826,-10,l),
(826,-10,l)
);
},
{
closed = 1;
nodes = (
(902,281,l),
(895.333,253.667,o),
(891,227.333,o),
(889,202,cs),
(879.667,98,o),
(868.667,33,o),
(850,-47,cs),
(840.667,-80.333,o),
(823.667,-114,o),
(809,-126,cs),
(805,-130,o),
(802,-130,o),
(800,-126,cs),
(754,-16,l),
(791,-23,l),
(815,74.333,o),
(822.333,138,o),
(829,242,cs),
(831.667,278,o),
(821,321.333,o),
(797,356,c),
(811,368,l),
(811,368,l)
);
}
);
width = 1000;
}
);
unicode = 101290;
}
{
glyphname = u18BB5;
layers = (
{
layerId = master01;
shapes = (
{
closed = 1;
nodes = (
(160,646,l),
(514.667,672,o),
(709.333,687.667,o),
(744,693,cs),
(784,698.333,o),
(809,711.667,o),
(833,737,cs),
(836.333,740.333,o),
(839.667,740.333,o),
(843,737,cs),
(901,678,ls),
(904.333,675.333,o),
(904.333,672.333,o),
(901,669,cs),
(876,646,ls),
(868,639.333,o),
(866,637,o),
(866,629,cs),
(864.667,458.333,o),
(864,314.333,o),
(864,197,cs),
(864,96.333,o),
(864.667,32.667,o),
(866,6,cs),
(867.333,-18,o),
(866.333,-39.667,o),
(863,-59,cs),
(855,-103,o),
(847,-122,o),
(831,-146,cs),
(826.333,-154,o),
(822.333,-158,o),
(819,-158,cs),
(815.667,-158,o),
(811.333,-155.667,o),
(806,-151,cs),
(754.667,-105.667,o),
(692,-61,o),
(618,-17,c),
(630,8,l),
(779,-48,ls),
(781,-48.667,o),
(783.333,-49,o),
(786,-49,cs),
(792.667,-49,o),
(796.667,-43,o),
(798,-31,cs),
(802.667,27.667,o),
(805,250.333,o),
(805,637,cs),
(805,646.333,o),
(801.667,649.333,o),
(795,648,cs),
(736.333,642,o),
(641.333,634,o),
(510,624,cs),
(337.333,610,o),
(220.667,600,o),
(160,594,c)
);
},
{
closed = 1;
nodes = (
(195,637,l),
(189.667,609,o),
(187,574.667,o),
(187,534,cs),
(187,-145,l),
(173,-151,l),
(112,-85,ls),
(110,-83,o),
(110,-80,o),
(112,-76,cs),
(122,-55.333,o),
(127,-33.667,o),
(127,-11,cs),
(129,106.333,o),
(130,206.667,o),
(130,290,cs),
(130,373.333,o),
(129,473,o),
(127,589,cs),
(125.667,631.667,o),
(113,684,o),
(85,716,c),
(96,727,l),
(96,727,l)
);
},
{
closed = 1;
nodes = (
(284,569,l),
(341.333,530.333,o),
(407,475.667,o),
(447,437,c),
(448.333,434.333,o),
(451.333,428,o),
(450,424,c),
(437,324,l),
(415,317,l),
(384.333,387.667,o),
(329.333,480,o),
(268,552,c)
);
},
{
closed = 1;
nodes = (
(508,342,l),
(562.667,399.333,o),
(609.667,464.667,o),
(627,510,cs),
(633.667,526.667,o),
(637,543.333,o),
(637,560,cs),
(637,564.667,o),
(636.333,574.333,o),
(635,589,c),
(650,596,l),
(714,496,l),
(698.667,484,o),
(682.667,469,o),
(666,451,cs),
(632.667,415,o),
(576.333,362.667,o),
(527,324,c)
);
},
{
closed = 1;
nodes = (
(212,37,l),
(272,90.333,o),
(335.333,168,o),
(358,216,cs),
(368.667,240,o),
(373.333,257.333,o),
(372,292,c),
(387,298,l),
(445,194,l),
(430.333,183.333,o),
(414,169,o),
(396,151,cs),
(357.333,112.333,o),
(294.333,60.667,o),
(229,18,c)
);
},
{
closed = 1;
nodes = (
(538,291,l),
(600.667,256.333,o),
(675.667,207,o),
(721,171,cs),
(725,167,o),
(726.667,163.333,o),
(726,160,c),
(726,59,l),
(705,49,l),
(665,117,o),
(596,205.333,o),
(524,272,c)
);
}
);
width = 1000;
}
);
unicode = 101301;
}
{
glyphname = u18BC5;
layers = (
{
layerId = master01;
shapes = (
{
closed = 1;
nodes = (
(217,658,l),
(211,632,o),
(208,597.667,o),
(208,555,cs),
(207,331,l),
(194,325,l),
(133,393,ls),
(131,395,o),
(131,398,o),
(133,402,cs),
(143,423.333,o),
(148,445,o),
(148,467,cs),
(148.667,485.667,o),
(149,511.333,o),
(149,544,cs),
(149,574.667,o),
(148.667,597.333,o),
(148,612,cs),
(146.667,652,o),
(135,700,o),
(107,732,c),
(117,744,l),
(117,744,l)
);
},
{
closed = 1;
nodes = (
(224,425,ls),
(397.333,436.333,o),
(515.333,444.333,o),
(578,449,cs),
(643.333,454.333,o),
(676.333,461,o),
(707,477,cs),
(709,478.333,o),
(712,477.667,o),
(716,475,cs),
(808,427,l),
(805,412,l),
(782,411,ls),
(535.333,400.333,o),
(406,393.333,o),
(190,376,c),
(187,423,l),
(187,423,l)
);
},
{
closed = 1;
nodes = (
(189,667,l),
(351.667,677.667,o),
(663.667,702.333,o),
(709,709,cs),
(762.333,717,o),
(781.333,728,o),
(816,756,cs),
(819.333,759.333,o),
(822.333,759.333,o),
(825,756,cs),
(888,691,l),
(890.667,689,o),
(890.667,686.667,o),
(888,684,cs),
(863,662,ls),
(856.333,656,o),
(853,650.333,o),
(853,645,cs),
(846.333,550.333,o),
(836,457.667,o),
(824,407,cs),
(817.333,376.333,o),
(807.333,352,o),
(794,334,cs),
(790,328.667,o),
(786.667,328,o),
(784,332,cs),
(723,445,l),
(760,436,l),
(776,466.667,o),
(786.333,574,o),
(789,654,cs),
(789,661.333,o),
(785.667,664.667,o),
(779,664,cs),
(719.667,657.333,o),
(575.333,645.667,o),
(346,629,cs),
(260.667,623.667,o),
(209.333,619.667,o),
(180,617,c)
);
},
{
closed = 1;
nodes = (
(359,480,ls),
(360.333,552,o),
(361,609.667,o),
(361,653,c),
(417,658,l),
(416,634,l),
(412,411,l),
(358,407,l),
(358,407,l)
);
},
{
closed = 1;
nodes = (
(570,429,l),
(571.333,470.333,o),
(572.667,500.667,o),
(574,520,cs),
(580,675,l),
(634,678,l),
(634,674,o),
(633.333,666,o),
(632,654,cs),
(629,579,ls),
(625,496.333,o),
(622.667,447,o),
(622,431,c)
);
},
{
closed = 1;
nodes = (
(331,239,l),
(330,234,ls),
(330,228.667,o),
(334.333,226.333,o),
(343,227,cs),
(434.333,233.667,o),
(521.333,242,o),
(604,252,cs),
(638.667,256,o),
(670.667,272.667,o),
(700,302,cs),
(703.333,305.333,o),
(706.333,305.333,o),
(709,302,c),
(771,246,ls),
(774.333,243.333,o),
(774.333,240.333,o),
(771,237,cs),
(746,212,ls),
(738.266,204.266,o),
(736,199.351,o),
(736,195,c),
(706,71.667,o),
(675,-19.667,o),
(643,-79,cs),
(624.333,-115,o),
(597,-150,o),
(577,-162,c),
(573,-163.333,o),
(570.667,-164,o),
(570,-164,cs),
(566.667,-164,o),
(564,-162.667,o),
(562,-160,cs),
(508,-96,o),
(446.333,-38.667,o),
(377,12,c),
(388,32,l),
(560,-60,ls),
(563.333,-62,o),
(566,-63,o),
(568,-63,cs),
(572.667,-63,o),
(577.333,-59,o),
(582,-51,cs),
(614,2.333,o),
(658.333,119,o),
(669,199,cs),
(669,201,ls),
(669,207,o),
(665.333,209.667,o),
(658,209,cs),
(353,180,ls),
(345,179.333,o),
(338,176.333,o),
(332,171,cs),
(302,148,ls),
(298,144.667,o),
(294.333,144.667,o),
(291,148,cs),
(242,207,ls),
(239.333,211,o),
(239.333,214.333,o),
(242,217,cs),
(276.986,248.487,o),
(280.913,273.738,o),
(291,304,cs),
(300.333,330.667,o),
(314.667,379.667,o),
(324,413,c),
(384,415,l),
(384,415,l)
);
}
);
width = 1000;
}
);
unicode = 101317;
}
{
glyphname = u18BC7;
layers = (
{
layerId = master01;
shapes = (
{
closed = 1;
nodes = (
(216,500,l),
(322.667,505.333,o),
(632.333,530,o),
(703,542,cs),
(749.667,551.333,o),
(784.333,567.333,o),
(807,590,cs),
(810.333,593.333,o),
(813.667,593.333,o),
(817,590,cs),
(875,527,l),
(878.333,524.333,o),
(878.333,521.333,o),
(875,518,cs),
(850,495,ls),
(842,488.333,o),
(840,484.667,o),
(840,478,cs),
(834.667,296.667,o),
(828.667,213.333,o),
(810,128,cs),
(803.333,98.667,o),
(781.667,55.667,o),
(767,45,c),
(763,41,o),
(759,39,o),
(755,43,cs),
(708.333,100.333,o),
(672.667,135.333,o),
(610,178,c),
(621,197,l),
(733,150,ls),
(737,148.667,o),
(740,148,o),
(742,148,cs),
(746,148,o),
(749.333,152.333,o),
(752,161,cs),
(770.667,229,o),
(772.333,283,o),
(775,419,cs),
(776,485,ls),
(776,493,o),
(772.667,496.667,o),
(766,496,cs),
(729.333,492,o),
(675.667,487,o),
(605,481,cs),
(534.333,475,o),
(480.333,470.333,o),
(443,467,cs),
(309,456.333,o),
(235.333,449.667,o),
(222,447,c)
);
},
{
closed = 1;
nodes = (
(540,684,l),
(533.333,655.333,o),
(530,621,o),
(530,581,cs),
(529,211,ls),
(527.667,43,o),
(527,-80.667,o),
(527,-160,c),
(514,-166,l),
(452,-98,ls),
(450.667,-96.667,o),
(450.667,-93.667,o),
(452,-89,cs),
(460,-71,o),
(464.667,-49.333,o),
(466,-24,cs),
(469.333,68,o),
(471,197.667,o),
(471,365,cs),
(471,470.333,o),
(470,561.333,o),
(468,638,cs),
(466.667,679.333,o),
(454.333,726,o),
(425,758,c),
(436,770,l),
(436,770,l)
);
},
{
closed = 1;
nodes = (
(253,497,l),
(247,471,o),
(244,436.667,o),
(244,394,cs),
(244,49,l),
(231,43,l),
(169,111,ls),
(167,113,o),
(167,116,o),
(169,120,cs),
(179,141.333,o),
(184,163,o),
(184,185,cs),
(184,262,ls),
(184,348.667,o),
(183.667,411.667,o),
(183,451,cs),
(181.667,491,o),
(170,539,o),
(142,571,c),
(152,583,l),
(152,583,l)
);
}
);
width = 1000;
}
);
unicode = 101319;
}
{
glyphname = u18BCA;
layers = (
{
layerId = master01;
shapes = (
{
closed = 1;
nodes = (
(305,466,ls),
(575.667,492,o),
(719.667,507,o),
(737,511,cs),
(765.667,517,o),
(787.333,527.667,o),
(802,543,c),
(806,545.667,o),
(809.667,545.667,o),
(813,543,cs),
(866,500,ls),
(868.667,498,o),
(868.667,495,o),
(866,491,cs),
(852,472,ls),
(848.667,467.333,o),
(846.333,462.333,o),
(845,457,cs),
(833,397,o),
(815,296.333,o),
(803,219,c),
(750,211,l),
(760.667,284.333,o),
(779,438,o),
(779,454,cs),
(779,458,ls),
(779,460.667,o),
(776.667,462,o),
(772,462,cs),
(734.667,459.333,o),
(303,419,o),
(239,411,c),
(240,460,l),
(240,460,l)
);
},
{
closed = 1;
nodes = (
(270,460,l),
(264,434,o),
(261,399.667,o),
(261,357,cs),
(260,91,l),
(247,85,l),
(185,153,ls),
(183,155,o),
(183,158,o),
(185,162,cs),
(195,183.333,o),
(200,205,o),
(200,227,cs),
(200,414,ls),
(200,452.667,o),
(187,502,o),
(159,534,c),
(169,546,l),
(169,546,l)
);
},
{
closed = 1;
nodes = (
(470,295,ls),
(470,496.333,o),
(469.667,610.667,o),
(469,638,cs),
(467.667,676.667,o),
(453.333,726,o),
(424,758,c),
(435,770,l),
(539,684,l),
(533,652.667,o),
(530,618.333,o),
(530,581,cs),
(530,-54,l),
(470,-61,l),
(470,-61,l)
);
},
{
closed = 1;
nodes = (
(234,195,l),
(405.333,209,o),
(541,220.667,o),
(641,230,cs),
(705,236.667,o),
(738,243.333,o),
(770,262,cs),
(772.667,263.333,o),
(775.667,263,o),
(779,261,cs),
(853,210,l),
(850,195,l),
(588.667,176.333,o),
(463.333,166.333,o),
(238,145,c)
);
},
{
closed = 1;
nodes = (
(181.667,-112.333,o),
(141,-118,o),
(103,-126,c),
(28,-67,l),
(33,-54,l),
(73,-58,o),
(108.333,-60,o),
(139,-60,cs),
(151,-60,o),
(168.333,-59.333,o),
(191,-58,cs),
(331,-52,o),
(515.333,-41,o),
(744,-25,cs),
(810.667,-21,o),
(842.333,-15.667,o),
(873,3,cs),
(875.667,4.333,o),
(877.667,4.5,o),
(879,3.5,cs),
(880.333,2.5,o),
(881.333,2,o),
(882,2,c),
(973,-52,l),
(970,-67,l),
(725.333,-77.667,o),
(477,-91.667,o),
(225,-109,cs)
);
}
);
width = 1000;
}
);
unicode = 101322;
}
{
glyphname = u18BCB;
layers = (
{
layerId = master01;
shapes = (
{
closed = 1;
nodes = (
(214,202,l),
(217.333,276.667,o),
(219,340.667,o),
(219,394,cs),
(219,422.667,o),
(218.667,443.667,o),
(218,457,cs),
(216.667,497,o),
(205,545,o),
(177,577,c),
(187,589,l),
(288,503,l),
(283.333,482.333,o),
(280,448,o),
(278,400,cs),
(275.333,313.333,o),
(274,248.667,o),
(274,206,c)
);
},
{
closed = 1;
nodes = (
(717,236,l),
(719.667,292.667,o),
(721.833,346,o),
(723.5,396,cs),
(725.167,446,o),
(726.333,481,o),
(727,501,cs),
(727,505,ls),
(727,507.667,o),
(724.667,509,o),
(720,509,cs),
(610.667,499.667,o),
(284,469,o),
(228,461,c),
(229,511,l),
(343,523,ls),
(557.667,544.333,o),
(671.667,556.333,o),
(685,559,cs),
(713.667,565,o),
(735.333,575.667,o),
(750,591,c),
(754,593.667,o),
(757.667,593.667,o),
(761,591,cs),
(813,548,l),
(816.333,546,o),
(816.333,543,o),
(813,539,cs),
(799,520,ls),
(795.667,515.333,o),
(793.333,510.333,o),
(792,505,cs),
(789.333,490.333,o),
(781,348,o),
(777,240,c)
);
},
{
closed = 1;
nodes = (
(181.667,178.667,o),
(141,173,o),
(103,165,c),
(28,224,l),
(33,237,l),
(73,233,o),
(108.333,231,o),
(139,231,cs),
(151,231,o),
(168.333,231.667,o),
(191,233,cs),
(331,239,o),
(515.333,250,o),
(744,266,cs),
(810.667,270,o),
(842.333,275.333,o),
(873,294,cs),
(875.667,295.333,o),
(877.667,295.5,o),
(879,294.5,cs),
(880.333,293.5,o),
(881.333,293,o),
(882,293,c),
(973,239,l),
(970,224,l),
(725.333,213.333,o),
(477,199.333,o),
(225,182,cs)
);
},
{
closed = 1;
nodes = (
(459,219,l),
(463.667,305.667,o),
(466,400.667,o),
(466,504,cs),
(466,540,o),
(465.333,584.667,o),
(464,638,cs),
(464,678,o),
(451.333,726,o),
(422,758,c),
(433,770,l),
(537,684,l),
(529.667,656.667,o),
(526,622.333,o),
(526,581,cs),
(526,531,o),
(525.333,453.333,o),
(524,348,cs),
(523,223,l),
(523,223,l)
);
},
{
closed = 1;
nodes = (
(450,100,l),
(490.667,65.333,o),
(532.333,21.333,o),
(575,-32,cs),
(577.667,-34.667,o),
(578.333,-38.667,o),
(577,-44,cs),
(552,-137,l),
(529,-138,l),
(505.667,-57.333,o),
(474.333,18,o),
(435,88,c)
);
},
{
closed = 1;
nodes = (
(730,123,l),
(802.667,64.333,o),
(859.333,14,o),
(900,-28,cs),
(904,-32,o),
(905.667,-36.667,o),
(905,-42,cs),
(889,-137,l),
(868,-144,l),
(830.667,-65.333,o),
(773.333,29.667,o),
(712,107,c)
);
},
{
closed = 1;
nodes = (
(231.333,-45.667,o),
(183,-126.333,o),
(151,-165,c),
(133,-163,l),
(101,-73,l),
(100.333,-69,o),
(101.333,-66.667,o),
(104,-66,cs),
(120,-62,o),
(134.667,-54.333,o),
(148,-43,cs),
(194.667,-1.667,o),
(215.667,46.333,o),
(211,101,c),
(234,104,l),
(244.667,70,o),
(250,44,o),
(250,26,cs),
(250,15.333,o),
(248.667,5.667,o),
(246,-3,cs)
);
}
);
width = 1000;
}
);
unicode = 101323;
}
{
glyphname = u18BD2;
layers = (
{
layerId = master01;
shapes = (
{
closed = 1;
nodes = (
(347.667,246,o),
(489.667,371.667,o),
(551,453,cs),
(575,483.667,o),
(588.667,523,o),
(590,559,c),
(608,563,l),
(655,434,l),
(635,423.333,o),
(619.667,413.667,o),
(609,405,cs),
(585,386,ls),
(437.667,268,o),
(322,176,o),
(238,110,c),
(813,163,l),
(819,132,l),
(224,45,ls),
(205.333,42.333,o),
(185.333,36.667,o),
(164,28,cs),
(160,26.667,o),
(156.667,28,o),
(154,32,cs),
(111,101,l),
(109.667,102.333,o),
(109,104,o),
(109,106,cs),
(109,110,o),
(111,112.333,o),
(115,113,cs),
(151,119.667,o),
(199.667,142,o),
(225,158,c)
);
},
{
closed = 1;
nodes = (
(71,285,l),
(272.333,430.333,o),
(414.667,551.333,o),
(496,674,cs),
(510.667,695.333,o),
(520.333,733.333,o),
(519,768,c),
(533,770,l),
(586,651,l),
(578.667,645,o),
(562,629,o),
(536,603,cs),
(408.667,477,o),
(259.333,361.667,o),
(88,257,c)
);
},
{
closed = 1;
nodes = (
(684,353,l),
(758.667,282.333,o),
(840.333,191.333,o),
(891,122,cs),
(893.667,118,o),
(894.667,114.333,o),
(894,111,cs),
(876,-15,l),
(854,-21,l),
(812.667,95,o),
(746,226.333,o),
(666,337,c)
);
},
{
closed = 1;
nodes = (
(577,242,l),
(570.333,217.333,o),
(567,183,o),
(567,139,cs),
(565,49,ls),
(563.667,-25.667,o),
(562.667,-96.667,o),
(562,-164,c),
(550,-171,l),
(487,-101,ls),
(484.333,-98.333,o),
(484.333,-95.333,o),
(487,-92,c),
(495.667,-76.667,o),
(500.667,-56.667,o),
(502,-32,cs),
(506,36,o),
(509,144,o),
(509,200,cs),
(509,238.667,o),
(495.667,285,o),
(469,317,c),
(480,329,l),
(480,329,l)
);
}
);
width = 1000;
}
);
unicode = 101330;
}
{
glyphname = u18BD3;
layers = (
{
layerId = master01;
shapes = (
{
closed = 1;
nodes = (
(235.333,86.667,o),
(193.333,80.333,o),
(138,71,c),
(57,128,l),
(62,141,l),
(102,137.667,o),
(134.333,136,o),
(159,136,cs),
(181.667,136,o),
(204,137,o),
(226,139,cs),
(412,154.333,o),
(570.667,168,o),
(702,180,cs),
(768.667,185.333,o),
(804,193.333,o),
(840,212,cs),
(842,213.333,o),
(844.667,213,o),
(848,211,cs),
(944,158,l),
(941,144,l),
(763.667,133.333,o),
(538,115.333,o),
(264,90,cs)
);
},
{
closed = 1;
nodes = (
(542,558,l),
(535.333,529.333,o),
(532,495,o),
(532,455,cs),
(532,321.667,o),
(531.667,220.333,o),
(531,151,cs),
(530,-154,l),
(517,-160,l),
(455,-87,ls),
(453.667,-85.667,o),
(453.667,-82.667,o),
(455,-78,cs),
(463,-60,o),
(467.667,-38.333,o),
(469,-13,cs),
(472.333,60.333,o),
(474,167.333,o),
(474,308,cs),
(474,388,o),
(473,456,o),
(471,512,cs),
(469.667,547.333,o),
(463,577.667,o),
(451,603,c),
(480,615,l),
(480,615,l)
);
},
{
closed = 1;
nodes = (
(284.667,382.667,o),
(253.667,378,o),
(227,372,c),
(160,426,l),
(165,438,l),
(189,435.333,o),
(211.667,434,o),
(233,434,cs),
(246.333,434,o),
(264.333,434.667,o),
(287,436,cs),
(392.333,444,o),
(597.333,463,o),
(660,471,cs),
(689.333,475.667,o),
(715,483.333,o),
(737,494,cs),
(739.667,495.333,o),
(742.667,495,o),
(746,493,cs),
(829,448,l),
(826,431,l),
(760.667,427,o),
(360,391.333,o),
(320,386,cs)
);
},
{
closed = 1;
nodes = (
(237,356,l),
(294.333,310.667,o),
(327.667,282.333,o),
(357,249,cs),
(359.667,246.333,o),
(361,243.333,o),
(361,240,cs),
(361,236.667,o),
(360,232.333,o),
(358,227,cs),
(333,154,l),
(318,156,l),
(296.667,213.333,o),
(255,292.333,o),
(219,339,c)
);
},
{
closed = 1;
nodes = (
(562,150,l),
(619.333,210,o),
(660.667,274.667,o),
(678,328,cs),
(686,352,o),
(690,371.667,o),
(690,387,cs),
(690,391,o),
(689.333,397.667,o),
(688,407,c),
(703,412,l),
(768,323,l),
(716,258,ls),
(680.667,217.333,o),
(635.667,176,o),
(581,134,c)
);
},
{
closed = 1;
nodes = (
(87,594,l),
(329.667,610,o),
(570,653.667,o),
(734,711,cs),
(756.667,719.667,o),
(772.333,734.333,o),
(781,755,c),
(795,756,l),
(845,657,l),
(829,656.333,o),
(811,653.667,o),
(791,649,cs),
(769,645,ls),
(497,595.667,o),
(318.333,569.333,o),
(89,560,c)
);
}
);
width = 1000;
}
);
unicode = 101331;
}
{
glyphname = u18BDE;
layers = (
{
layerId = master01;
shapes = (
{
closed = 1;
nodes = (
(67,211,l),
(211,357.667,o),
(325.667,524,o),
(375,664,cs),
(379.667,676.667,o),
(382,691,o),
(382,707,cs),
(382,725.667,o),
(379,743.333,o),
(373,760,c),
(387,765,l),
(468,664,l),
(454,642,o),
(445.333,628,o),
(442,622,cs),
(439.333,618.667,o),
(437.167,615.5,o),
(435.5,612.5,cs),
(433.833,609.5,o),
(432.333,607,o),
(431,605,cs),
(340.333,451.667,o),
(235.667,317,o),
(89,189,c)
);
},
{
closed = 1;
nodes = (
(574.667,535,o),
(613.667,551.333,o),
(639,574,cs),
(642.333,577.333,o),
(645.667,577.333,o),
(649,574,cs),
(705,514,l),
(708.333,511.333,o),
(708.333,508.333,o),
(705,505,cs),
(684,483,ls),
(678,477,o),
(673.333,470.333,o),
(670,463,cs),
(539.333,172.333,o),
(353.667,-8.667,o),
(51,-158,c),
(37,-133,l),
(310.333,28.333,o),
(484,207.667,o),
(592,465,cs),
(593.333,467.667,o),
(594,470.667,o),
(594,474,cs),
(594,480,o),
(588.333,482,o),
(577,480,cs),
(527,473.333,o),
(462.667,461.667,o),
(384,445,c),
(328,498,l),
(333,510,l),
(347.667,508,o),
(362.667,507,o),
(378,507,cs),
(416,507,o),
(464,513,o),
(522,525,cs)
);
},
{
closed = 1;
nodes = (
(524,276,l),
(566,226,o),
(611.333,173,o),
(660,117,cs),
(688,85,ls),
(770.667,-11,o),
(813.667,-52.167,o),
(867,-75.5,cs),
(893.667,-87.167,o),
(927,-95.333,o),
(967,-100,c),
(967,-129,l),
(799,-142,l),
(796,-142,ls),
(790,-142,o),
(784.333,-139.333,o),
(779,-134,c),
(725.667,-60,o),
(630.667,63.667,o),
(494,237,c)
);
}
);
width = 1000;
}
);
unicode = 101342;
}
{
glyphname = u18BDF;
layers = (
{
layerId = master01;
shapes = (
{
closed = 1;
nodes = (
(54,202,l),
(203.333,346,o),
(324.333,520,o),
(375,664,cs),
(379.667,676.667,o),
(382,691,o),
(382,707,cs),
(382,725.667,o),
(379,743.333,o),
(373,760,c),
(387,765,l),
(468,664,l),
(454,642,o),
(445.333,628,o),
(442,622,cs),
(439.333,618.667,o),
(437.167,615.5,o),
(435.5,612.5,cs),
(433.833,609.5,o),
(432.333,607,o),
(431,605,cs),
(339,447.667,o),
(226,308,o),
(74,180,c)
);
},
{
closed = 1;
nodes = (
(623.667,573.333,o),
(687.667,587.667,o),
(725,621,cs),
(728.333,624.333,o),
(731.667,624.333,o),
(735,621,cs),
(791,561,l),
(794.333,558.333,o),
(794.333,555.333,o),
(791,552,cs),
(770,530,ls),
(763.333,523.333,o),
(758.667,518,o),
(756,510,cs),
(672,287.333,o),
(549.667,124.667,o),
(375,2,cs),
(287.667,-59.333,o),
(184.333,-114,o),
(65,-162,c),
(51,-134,l),
(380.333,23.333,o),
(576.333,213.667,o),
(675,511,cs),
(676.333,516.333,o),
(677,519.333,o),
(677,520,cs),
(677,526,o),
(671.333,528,o),
(660,526,cs),
(529.333,508.667,o),
(466,499,o),
(394,483,c),
(331,536,l),
(336,548,l),
(343.333,547.333,o),
(354.667,547,o),
(370,547,cs),
(406,547,o),
(457.667,551.333,o),
(525,560,cs)
);
},
{
closed = 1;
nodes = (
(358.667,282,o),
(326.667,296.667,o),
(268,298,c),
(264,312,l),
(370,342,l),
(387.333,318.667,o),
(405.333,298.333,o),
(424,281,cs),
(486.667,220.333,o),
(554.333,157.667,o),
(627,93,cs),
(732.333,-0.333,o),
(794.5,-39,o),
(848.5,-55,cs),
(875.5,-63,o),
(911.667,-70,o),
(957,-76,c),
(956,-103,l),
(753,-122,l),
(750,-122,ls),
(742.667,-122,o),
(736.333,-119.333,o),
(731,-114,cs),
(594.333,43.333,o),
(480,166,o),
(388,254,cs)
);
}
);
width = 1000;
}
);
unicode = 101343;
}
{
glyphname = u18BE0;
layers = (
{
layerId = master01;
shapes = (
{
closed = 1;
nodes = (
(54,202,l),
(203.333,346,o),
(324.333,520,o),
(375,664,cs),
(379.667,676.667,o),
(382,691,o),
(382,707,cs),
(382,725.667,o),
(379,743.333,o),
(373,760,c),
(387,765,l),
(468,664,l),
(454,642,o),
(445.333,628,o),
(442,622,cs),
(439.333,618.667,o),
(437.167,615.5,o),
(435.5,612.5,cs),
(433.833,609.5,o),
(432.333,607,o),
(431,605,cs),
(339,447.667,o),
(226,308,o),
(74,180,c)
);
},
{
closed = 1;
nodes = (
(618.333,573.333,o),
(679.667,587.667,o),
(717,621,cs),
(720.333,624.333,o),
(723.667,624.333,o),
(727,621,cs),
(783,561,l),
(786.333,558.333,o),
(786.333,555.333,o),
(783,552,cs),
(762,530,ls),
(755.333,523.333,o),
(750.667,518,o),
(748,510,cs),
(622.667,174,o),
(414.333,-28.667,o),
(65,-162,c),
(51,-135,l),
(371,11.667,o),
(567,208.333,o),
(667,511,cs),
(668.333,516.333,o),
(669,519.333,o),
(669,520,cs),
(669,526,o),
(663.333,528,o),
(652,526,cs),
(525.333,508.667,o),
(464.667,499,o),
(394,483,c),
(331,536,l),
(336,548,l),
(343.333,547.333,o),
(354.667,547,o),
(370,547,cs),
(406,547,o),
(457.667,551.333,o),
(525,560,cs)
);
},
{
closed = 1;
nodes = (
(358.667,282,o),
(326.667,296.667,o),
(268,298,c),
(264,312,l),
(370,342,l),
(387.333,318.667,o),
(405.333,298.333,o),
(424,281,cs),
(470,237,o),
(522,189,o),
(580,137,cs),
(590,129,o),
(605.667,115,o),
(627,95,cs),
(732.333,-2.333,o),
(785.167,-37.833,o),
(840.5,-54.5,cs),
(868.167,-62.833,o),
(907,-70,o),
(957,-76,c),
(956,-103,l),
(754,-121,l),
(751,-121,ls),
(743.667,-121,o),
(737.333,-118.333,o),
(732,-113,cs),
(602,36.333,o),
(487.333,158.667,o),
(388,254,cs)
);
},
{
closed = 1;
nodes = (
(721,366,l),
(799.667,316,o),
(864.333,270.333,o),
(915,229,cs),
(919,225,o),
(921,222.667,o),
(921,216,cs),
(915,111,l),
(895,105,l),
(848.333,182.333,o),
(779.667,272,o),
(705,348,c)
);
}
);
width = 1000;
}
);
unicode = 101344;
}
{
glyphname = u18BE2;
layers = (
{
layerId = master01;
shapes = (
{
closed = 1;
nodes = (
(412,594,l),
(417.333,593.333,o),
(426,593,o),
(438,593,cs),
(470,593,o),
(513,596,o),
(567,602,cs),
(620.333,608.667,o),
(649.667,618.667,o),
(675,644,cs),
(679,648,o),
(682.667,648,o),
(686,644,cs),
(739,585,ls),
(742.333,581,o),
(742.333,577.333,o),
(739,574,cs),
(720,556,ls),
(714,550.667,o),
(708.333,544,o),
(703,536,cs),
(573.667,332,o),
(374,179,o),
(42,71,c),
(31,100,l),
(327,212,o),
(521.667,364.667,o),
(627,538,cs),
(630.333,543.333,o),
(632,547.667,o),
(632,551,cs),
(632,556.333,o),
(628,558.333,o),
(620,557,cs),
(598,555,ls),
(529.333,548.333,o),
(476.333,540.333,o),
(439,531,c),
(381,572,l),
(381,572,l)
);
},
{
closed = 1;
nodes = (
(329,509,l),
(455.667,437,o),
(559,380,o),
(639,338,cs),
(756.333,276.667,o),
(808,251.5,o),
(872,233.5,cs),
(904,224.5,o),
(939,219,o),
(977,217,c),
(977,192,l),
(813,162,l),
(808,162,ls),
(800.667,162,o),
(795,163.667,o),
(791,167,cs),
(665.667,259,o),
(532.667,338.333,o),
(298,477,c)
);
},
{
closed = 1;
nodes = (
(503,-52,ls),
(571,-45.333,o),
(601,-41.667,o),
(633,-23,cs),
(635.667,-21.667,o),
(638.667,-22,o),
(642,-24,cs),
(734,-77,l),
(731,-92,l),
(592.333,-99.333,o),
(460.333,-108,o),
(335,-118,c),
(334,-66,l),
(334,-66,l)
);
},
{
closed = 1;
nodes = (
(369,144,l),
(363.667,120,o),
(361,85.333,o),
(361,40,cs),
(362,-163,l),
(349,-169,l),
(289,-102,ls),
(287,-100,o),
(287,-97,o),
(289,-93,cs),
(299,-72.333,o),
(304,-50.667,o),
(304,-28,cs),
(304,96,ls),
(302.667,126.667,o),
(293.333,163.333,o),
(276,194,c),
(294,205,l),
(294,205,l)
);
},
{
closed = 1;
nodes = (
(621,-59,l),
(636.333,45,o),
(644,107.667,o),
(644,129,cs),
(644,134.333,o),
(641.667,137,o),
(637,137,cs),
(623,136.333,o),
(579.667,131.5,o),
(507,122.5,cs),
(434.333,113.5,o),
(373.333,106,o),
(324,100,c),
(324,152,l),
(418.667,162.667,o),
(584.667,183.667,o),
(610,189,cs),
(641.333,195,o),
(663,204.667,o),
(675,218,c),
(679,221.333,o),
(682.667,221.333,o),
(686,218,cs),
(732,172,ls),
(734.667,169.333,o),
(734.667,166.333,o),
(732,163,cs),
(718,147,ls),
(714.667,142.333,o),
(712.333,137.333,o),
(711,132,cs),
(705.667,109.333,o),
(686.333,-9.333,o),
(677,-72,c)
);
},
{
closed = 1;
nodes = (
(69,325,l),
(217,429,o),
(342.333,555.667,o),
(413,673,cs),
(426.333,694.333,o),
(434,730.333,o),
(430,765,c),
(444,769,l),
(498,654,l),
(484.667,642,o),
(468.333,625.333,o),
(449,604,cs),
(347.667,485.333,o),
(236.667,388.333,o),
(86,299,c)
);
}
);
width = 1000;
}
);
unicode = 101346;
}
{
glyphname = u18BE3;
layers = (
{
layerId = master01;
shapes = (
{
closed = 1;
nodes = (
(292,499,l),
(346.667,499,o),
(386.333,502.333,o),
(441,513,cs),
(477,519.667,o),
(497.667,525.667,o),
(527,559,cs),
(531,563.667,o),
(535,564,o),
(539,560,cs),
(600,502,ls),
(604,498,o),
(603,496.333,o),
(599,491,cs),
(581,470,ls),
(576.333,464.667,o),
(572.667,458,o),
(570,450,c),
(511.333,181.333,o),
(365.333,-25.333,o),
(132,-170,c),
(115,-146,l),
(331,15.333,o),
(458.333,214.667,o),
(501,464,c),
(501,467,ls),
(501,470.333,o),
(498.667,472,o),
(494,472,c),
(426.667,463.333,o),
(375,453.333,o),
(339,442,c),
(282,474,l),
(282,474,l)
);
},
{
closed = 1;
nodes = (
(75,151,l),
(187,323,o),
(263.667,509,o),
(285,657,cs),
(286,669,ls),
(286,694.333,o),
(277.667,725.667,o),
(263,751,c),
(276,759,l),
(376,676,l),
(368,658.667,o),
(363.667,645,o),
(361,637,cs),
(351,611,ls),
(295,443,o),
(218.333,290,o),
(101,134,c)
);
},
{
closed = 1;
nodes = (
(210,332,l),
(360.667,264,o),
(519.333,177.667,o),
(618,107,cs),
(620.667,105,o),
(622,101.667,o),
(622,97,cs),
(634,-4,l),
(619,-11,l),
(496.333,111.667,o),
(388.667,193.667,o),
(194,307,c)
);
},
{
closed = 1;
nodes = (
(828,684,l),
(821.333,655.333,o),
(818,621,o),
(818,581,cs),
(818,502.333,o),
(817.333,379,o),
(816,211,cs),
(814,85,o),
(813,-38.667,o),
(813,-160,c),
(800,-166,l),
(738,-98,ls),
(736.667,-96.667,o),
(736.667,-93.667,o),
(738,-89,cs),
(746,-71,o),
(750.667,-49.333,o),
(752,-24,cs),
(756.667,119.333,o),
(759,265.667,o),
(759,415,cs),
(759,499.667,o),
(758,574,o),
(756,638,cs),
(754.667,679.333,o),
(742.333,726,o),
(713,758,c),
(724,770,l),
(724,770,l)
);
}
);
width = 1000;
}
);
unicode = 101347;
}
{
glyphname = u18BE8;
layers = (
{
layerId = master01;
shapes = (
{
closed = 1;
nodes = (
(342,629,l),
(426,637,o),
(493.333,645,o),
(544,653,cs),
(574.667,657,o),
(614.333,671.667,o),
(641,701,cs),
(644.333,705,o),
(648,705,o),
(652,701,cs),
(711,639,ls),
(715.667,634.333,o),
(715.667,629.667,o),
(711,625,cs),
(687,602,ls),
(683,598.667,o),
(680.333,592,o),
(679,582,cs),
(668.333,406,o),
(663,209.333,o),
(663,-8,cs),
(663,-41.333,o),
(680.667,-58.333,o),
(716,-59,cs),
(740,-60.333,o),
(757.667,-61,o),
(769,-61,cs),
(802.333,-61,o),
(832,-58.333,o),
(858,-53,cs),
(875.333,-50.333,o),
(884.667,-41.333,o),
(886,-26,cs),
(893,163,l),
(916,163,l),
(925.333,89.667,o),
(932.833,34.667,o),
(938.5,-2,cs),
(944.167,-38.667,o),
(950.667,-65.333,o),
(958,-82,cs),
(959.333,-86,o),
(960,-88.333,o),
(960,-89,cs),
(960,-92.333,o),
(958.333,-95,o),
(955,-97,cs),
(937,-107,o),
(905.333,-114,o),
(860,-118,cs),
(821.333,-122.667,o),
(788.333,-125,o),
(761,-125,cs),
(740.333,-125,o),
(719.333,-124,o),
(698,-122,cs),
(632.667,-116.667,o),
(600,-83,o),
(600,-21,cs),
(600,161,o),
(603.333,364,o),
(610,588,cs),
(610,590,ls),
(610,600,o),
(606,604.333,o),
(598,603,cs),
(476,591,o),
(391,582,o),
(343,576,c)
);
},
{
closed = 1;
nodes = (
(366,386,ls),
(366,211.333,o),
(334,82.667,o),
(242,-24,cs),
(196,-77.333,o),
(132,-122.667,o),
(50,-160,c),
(32,-132,l),
(176,-53.333,o),
(250.833,52.333,o),
(279.5,179,cs),
(293.833,242.333,o),
(301,317,o),
(301,403,cs),
(301,591,ls),
(301,632.333,o),
(288.333,680,o),
(259,712,c),
(270,724,l),
(377,630,l),
(372.14,612.991,o),
(366,593.476,o),
(366,547,cs)
);
},
{
closed = 1;
nodes = (
(389,84,l),
(581,204,o),
(738,344.333,o),
(822,479,cs),
(835.333,499,o),
(844.667,535.333,o),
(842,570,c),
(856,574,l),
(914,457,l),
(902.667,447.667,o),
(885.667,431.333,o),
(863,408,cs),
(735,273.333,o),
(590,158,o),
(406,58,c)
);
}
);
width = 1000;
}
);
unicode = 101352;
}
{
glyphname = u18BE9;
layers = (
{
layerId = master01;
shapes = (
{
closed = 1;
nodes = (
(342,629,l),
(436,637.667,o),
(503.333,645.333,o),
(544,652,cs),
(574.667,656,o),
(614.333,670.667,o),
(641,700,cs),
(644.333,704,o),
(648,704,o),
(652,700,cs),
(708,639,ls),
(712.667,634.333,o),
(712.667,629.667,o),
(708,625,cs),
(684,602,ls),
(678.667,597.333,o),
(676,590.667,o),
(676,582,cs),
(668,440.667,o),
(663,246.333,o),
(661,-1,cs),
(661,-39.667,o),
(676.667,-57.667,o),
(714,-59,cs),
(738,-60.333,o),
(756,-61,o),
(768,-61,cs),
(802,-61,o),
(832,-58.333,o),
(858,-53,cs),
(875.333,-50.333,o),
(884.667,-41.333,o),
(886,-26,cs),
(893,163,l),
(916,163,l),
(925.333,89.667,o),
(932.833,34.667,o),
(938.5,-2,cs),
(944.167,-38.667,o),
(950.667,-65.333,o),
(958,-82,cs),
(959.333,-86,o),
(960,-88.333,o),
(960,-89,cs),
(960,-92.333,o),
(958.333,-95,o),
(955,-97,cs),
(937,-107,o),
(905.333,-114,o),
(860,-118,cs),
(828,-122.667,o),
(795,-125,o),
(761,-125,cs),
(740.333,-125,o),
(720,-124,o),
(700,-122,cs),
(634.667,-116.667,o),
(602,-83,o),
(602,-21,cs),
(602,161,o),
(605.333,364,o),
(612,588,cs),
(612,591,ls),
(612,600.333,o),
(608,604.333,o),
(600,603,cs),
(472,590.333,o),
(386.333,581.333,o),
(343,576,c)
);
},
{
closed = 1;
nodes = (
(388,386,ls),
(388,215.333,o),
(351.833,88.5,o),
(252.5,-17.5,cs),
(202.833,-70.5,o),
(135,-117,o),
(49,-157,c),
(33,-130,l),
(185,-44.667,o),
(266.667,58.667,o),
(300,184,cs),
(316.667,246.667,o),
(325,319.667,o),
(325,403,cs),
(325,591,ls),
(325,632.333,o),
(312.333,680,o),
(283,712,c),
(294,724,l),
(400,630,l),
(390.667,604.667,o),
(388,595,o),
(388,547,cs)
);
},
{
closed = 1;
nodes = (
(445,91,l),
(595.667,204.333,o),
(725.667,342.667,o),
(791,460,cs),
(801.667,478.667,o),
(807,502.333,o),
(807,531,cs),
(807,540.333,o),
(806.667,547.333,o),
(806,552,c),
(819,557,l),
(884,443,l),
(874,434.333,o),
(858,417,o),
(836,391,cs),
(726,262.333,o),
(602,154,o),
(464,66,c)
);
},
{
closed = 1;
nodes = (
(102,481,l),
(168,416.333,o),
(220.333,359,o),
(259,309,cs),
(261,306.333,o),
(262,303.667,o),
(262,301,cs),
(262,299.667,o),
(260.667,295,o),
(258,287,cs),
(228,206,l),
(214,208,l),
(186,286.667,o),
(132.333,397,o),
(83,465,c)
);
}
);
width = 1000;
}
);
unicode = 101353;
}
{
glyphname = u18BEA;
layers = (
{
layerId = master01;
shapes = (
{
closed = 1;
nodes = (
(327,634,l),
(435,644,o),
(507.333,652,o),
(544,658,cs),
(574.667,662,o),
(614.333,676.667,o),
(641,706,cs),
(644.333,710,o),
(648,710,o),
(652,706,cs),
(710,644,ls),
(714.667,639.333,o),
(714.667,634.667,o),
(710,630,cs),
(686,607,ls),
(682,603.667,o),
(679.333,597,o),
(678,587,cs),
(668,420.333,o),
(663,223.333,o),
(663,-4,cs),
(663,-36,o),
(680.667,-52.667,o),
(716,-54,cs),
(740,-55.333,o),
(757.667,-56,o),
(769,-56,cs),
(802.333,-56,o),
(832,-53.333,o),
(858,-48,cs),
(875.333,-45.333,o),
(884.667,-36.333,o),
(886,-21,cs),
(893,163,l),
(916,163,l),
(924.667,94.333,o),
(932,41.5,o),
(938,4.5,cs),
(944,-32.5,o),
(950.667,-59.667,o),
(958,-77,cs),
(959.333,-81,o),
(960,-83.333,o),
(960,-84,cs),
(960,-87.333,o),
(958.333,-90,o),
(955,-92,cs),
(937,-102,o),
(905.333,-109,o),
(860,-113,cs),
(820.667,-117.667,o),
(786.667,-120,o),
(758,-120,cs),
(738,-120,o),
(718,-119,o),
(698,-117,cs),
(632.667,-111.667,o),
(600,-78,o),
(600,-16,cs),
(600,164,o),
(603.333,367,o),
(610,593,cs),
(610,596,ls),
(610,605.333,o),
(606,609.333,o),
(598,608,cs),
(538,602.667,o),
(513.333,600.333,o),
(524,601,cs),
(407.333,589.667,o),
(342,583,o),
(328,581,c)
);
},
{
closed = 1;
nodes = (
(345,386,ls),
(345,140.667,o),
(256.667,-26,o),
(46,-162,c),
(28,-138,l),
(208,6,o),
(280,164.333,o),
(280,403,cs),
(280,591,ls),
(280,632.333,o),
(267.333,680,o),
(238,712,c),
(249,724,l),
(356,630,l),
(351.14,612.991,o),
(345,593.476,o),
(345,547,cs)
);
},
{
closed = 1;
nodes = (
(332,427,l),
(414.667,379.667,o),
(480,337.333,o),
(528,300,cs),
(533.333,296,o),
(533.333,287.333,o),
(532,278,cs),
(524,193,l),
(510,191,l),
(464.667,260.333,o),
(384.667,352.333,o),
(318,407,c)
);
}
);
width = 1000;
}
);
unicode = 101354;
}
{
glyphname = u18BEB;
layers = (
{
layerId = master01;
shapes = (
{
closed = 1;
nodes = (
(327,634,l),
(435,644,o),
(507.333,652,o),
(544,658,cs),
(573.333,662,o),
(612.333,676.667,o),
(639,706,cs),
(642.333,710,o),
(646,710,o),
(650,706,cs),
(709,644,ls),
(713.667,639.333,o),
(713.667,634.667,o),
(709,630,cs),
(685,607,ls),
(681,603.667,o),
(678.333,597,o),
(677,587,cs),
(666.333,409,o),
(661,212,o),
(661,-4,cs),
(661,-36,o),
(678.667,-52.667,o),
(714,-54,cs),
(738,-55.333,o),
(756,-56,o),
(768,-56,cs),
(802,-56,o),
(832,-53.333,o),
(858,-48,cs),
(875.333,-45.333,o),
(884.667,-36.333,o),
(886,-21,cs),
(893,163,l),
(916,163,l),
(924.667,94.333,o),
(932,41.5,o),
(938,4.5,cs),
(944,-32.5,o),
(950.667,-59.667,o),
(958,-77,cs),
(959.333,-81,o),
(960,-83.333,o),
(960,-84,cs),
(960,-87.333,o),
(958.333,-90,o),
(955,-92,cs),
(937,-102,o),
(905.333,-109,o),
(860,-113,cs),
(820.667,-117.667,o),
(787,-120,o),
(759,-120,cs),
(739,-120,o),
(719,-119,o),
(699,-117,cs),
(633.667,-111.667,o),
(601,-78,o),
(601,-16,cs),
(601,164,o),
(604.333,367,o),
(611,593,cs),
(611,596,ls),
(611,605.333,o),
(607,609.333,o),
(599,608,cs),
(534.333,602.667,o),
(508.667,600.333,o),
(522,601,c),
(502.667,599,o),
(471,595.833,o),
(427,591.5,cs),
(383,587.167,o),
(350,583.667,o),
(328,581,c)
);
},
{
closed = 1;
nodes = (
(345,386,ls),
(345,140.667,o),
(256.667,-26,o),
(46,-162,c),
(27,-136,l),
(208.333,6.667,o),
(281,164.333,o),
(281,403,cs),
(281,591,ls),
(281,632.333,o),
(268.333,680,o),
(239,712,c),
(250,724,l),
(356,630,l),
(351.14,612.991,o),
(345,593.476,o),
(345,547,cs)
);
},
{
closed = 1;
nodes = (
(332,427,l),
(414.667,379.667,o),
(480,337.333,o),
(528,300,cs),
(533.333,296,o),
(533.333,287.333,o),
(532,278,cs),
(524,193,l),
(510,191,l),
(464.667,260.333,o),
(384.667,352.333,o),
(318,407,c)
);
},
{
closed = 1;
nodes = (
(636,207,l),
(726.667,287,o),
(803,383.667,o),
(831,449,cs),
(844.333,478.333,o),
(852.667,503,o),
(850,531,c),
(866,535,l),
(926,419,l),
(916,411.667,o),
(896,393,o),
(866,363,cs),
(849,346,ls),
(765,263.333,o),
(724.333,225,o),
(639,165,c)
);
}
);
width = 1000;
}
);
unicode = 101355;
}
{
glyphname = u18BEF;
layers = (
{
layerId = master01;
shapes = (
{
closed = 1;
nodes = (
(338,670,l),
(433.333,678.667,o),
(516.333,689.333,o),
(587,702,cs),
(613.667,707.333,o),
(638.667,720.667,o),
(662,742,cs),
(664.667,744.667,o),
(666.667,746,o),
(668,746,cs),
(669.333,746,o),
(671.333,744.667,o),
(674,742,cs),
(730,687,ls),
(735.333,681.667,o),
(734,679.333,o),
(730,674,cs),
(714,657,ls),
(707.333,649,o),
(703.333,642.667,o),
(702,638,cs),
(692,591.333,o),
(687,538,o),
(687,478,cs),
(687,464.667,o),
(687.667,444,o),
(689,416,cs),
(693,350.667,o),
(707.333,325.333,o),
(746,324,cs),
(792.667,321.333,o),
(837.333,329.333,o),
(864,348,cs),
(869.333,351.333,o),
(874,351.333,o),
(878,348,cs),
(943,294,l),
(946.333,292,o),
(948,290,o),
(948,288,cs),
(948,285.333,o),
(945,283.333,o),
(939,282,cs),
(888.333,274,o),
(792.333,267.667,o),
(735,269,cs),
(670.333,271,o),
(635.667,310.667,o),
(631,388,cs),
(629.667,412,o),
(629,432,o),
(629,448,cs),
(629,504.667,o),
(632.333,570.333,o),
(639,645,cs),
(639,649,ls),
(639,655.667,o),
(635.667,658.667,o),
(629,658,cs),
(495,642.667,o),
(397.333,630.667,o),
(336,622,c)
);
},
{
closed = 1;
nodes = (
(361,558,ls),
(361,386.667,o),
(274.333,262.333,o),
(101,185,c),
(88,210,l),
(233.333,294,o),
(297,412.667,o),
(297,566,cs),
(297,624,ls),
(297,665.333,o),
(284.333,713,o),
(255,745,c),
(266,757,l),
(372,663,l),
(366.087,645.261,o),
(361,631.423,o),
(361,595,cs)
);
},
{
closed = 1;
nodes = (
(480,238,l),
(579.333,132,o),
(659.667,49.333,o),
(721,-10,cs),
(793,-79.333,o),
(829.667,-99.333,o),
(915,-118,c),
(914,-144,l),
(742,-158,l),
(739,-158,ls),
(733.667,-158,o),
(730,-156,o),
(728,-152,cs),
(674.667,-62.667,o),
(574.333,66.333,o),
(465,193,c)
);
},
{
closed = 1;
nodes = (
(414,42.333,o),
(276.333,-84.667,o),
(103,-170,c),
(87,-142,l),
(259,-38,o),
(378.667,99,o),
(446,269,cs),
(458.667,301,o),
(465,328,o),
(465,350,cs),
(465,364.667,o),
(461.667,383.667,o),
(455,407,c),
(471,414,l),
(541,300,l),
(532.333,288,o),
(520.667,267,o),
(506,237,cs)
);
}
);
width = 1000;
}
);
unicode = 101359;
}
{
glyphname = u18BF9;
layers = (
{
layerId = master01;
shapes = (
{
closed = 1;
nodes = (
(284,437,ls),
(284,242.333,o),
(260.833,107,o),
(197.5,-5,cs),
(165.833,-61,o),
(122.333,-112.333,o),
(67,-159,c),
(48,-136,l),
(141.333,-40,o),
(187.333,64.833,o),
(206,197.5,cs),
(215.333,263.833,o),
(220,345.667,o),
(220,443,cs),
(220,618,ls),
(220,659.333,o),
(207.333,707,o),
(178,739,c),
(189,751,l),
(295,665,l),
(289.509,637.544,o),
(284,630.11,o),
(284,574,cs)
);
},
{
closed = 1;
nodes = (
(342,456,l),
(391.333,416,o),
(425,376,o),
(465,324,cs),
(468.333,320,o),
(469,315.333,o),
(467,310,cs),
(433,224,l),
(415,221,l),
(391,312.333,o),
(361.333,386.667,o),
(326,444,c)
);
},
{
closed = 1;
nodes = (
(620,468,l),
(670,431.333,o),
(717,388,o),
(761,338,cs),
(763.667,334.667,o),
(764,330,o),
(762,324,cs),
(734,236,l),
(716,232,l),
(684.667,324,o),
(648,398.333,o),
(606,455,c)
);
},
{
closed = 1;
nodes = (
(873,684,l),
(866.333,655.333,o),
(863,621,o),
(863,581,cs),
(863,502.333,o),
(862.333,379,o),
(861,211,cs),
(859,85,o),
(858,-38.667,o),
(858,-160,c),
(845,-166,l),
(783,-98,ls),
(781.667,-96.667,o),
(781.667,-93.667,o),
(783,-89,cs),
(791,-71,o),
(795.667,-49.333,o),
(797,-24,cs),
(801.667,119.333,o),
(804,265.667,o),
(804,415,cs),
(804,499.667,o),
(803,574,o),
(801,638,cs),
(799.667,679.333,o),
(787.333,726,o),
(758,758,c),
(769,770,l),
(769,770,l)
);
},
{
closed = 1;
nodes = (
(579,628,l),
(572.333,599.333,o),
(569,565,o),
(569,525,cs),
(569,459.667,o),
(568.333,356.333,o),
(567,215,cs),
(565,110.333,o),
(564,6.667,o),
(564,-96,c),
(551,-102,l),
(489,-34,ls),
(487.667,-32.667,o),
(487.667,-29.667,o),
(489,-25,cs),
(497,-7,o),
(501.667,14.667,o),
(503,40,cs),
(507,146.667,o),
(509,273.333,o),
(509,420,cs),
(509,465.333,o),
(508.333,519.333,o),
(507,582,cs),
(505.667,623.333,o),
(493.333,670,o),
(464,702,c),
(475,714,l),
(475,714,l)
);
}
);
width = 1000;
}
);
unicode = 101369;
}
{
glyphname = u18C01;
layers = (
{
layerId = master01;
shapes = (
{
closed = 1;
nodes = (
(224.333,213.667,o),
(182.333,207.333,o),
(127,198,c),
(46,255,l),
(51,268,l),
(91,264.667,o),
(123.333,263,o),
(148,263,cs),
(170.667,263,o),
(193,264,o),
(215,266,cs),
(414,282,ls),
(466,286,o),
(602.333,296.333,o),
(713,307,cs),
(779.667,312.333,o),
(815,320.333,o),
(851,339,cs),
(853,340.333,o),
(855.667,340,o),
(859,338,cs),
(955,285,l),
(952,271,l),
(734,257.667,o),
(501,239.667,o),
(253,217,cs)
);
},
{
closed = 1;
nodes = (
(73,352,l),
(193,448,o),
(292,569.667,o),
(348,679,cs),
(360,701.667,o),
(366,725,o),
(366,749,cs),
(366,757,o),
(365.667,763,o),
(365,767,c),
(378,771,l),
(436,668,l),
(420.667,654,o),
(404.667,636.333,o),
(388,615,cs),
(298.667,499,o),
(212.667,417.667,o),
(90,331,c)
);
},
{
closed = 1;
nodes = (
(304,568,l),
(313.333,567.333,o),
(326.333,567,o),
(343,567,cs),
(355.667,567,o),
(373.333,567.667,o),
(396,569,cs),
(469.333,574.333,o),
(622,589.333,o),
(670,596,cs),
(699.333,600.667,o),
(725,608.333,o),
(747,619,cs),
(749.667,620.333,o),
(751.667,620.5,o),
(753,619.5,cs),
(754.333,618.5,o),
(755.333,618,o),
(756,618,c),
(839,573,l),
(836,556,l),
(785.333,553.333,o),
(521,528.333,o),
(429,519,cs),
(393.667,515.667,o),
(362.667,511,o),
(336,505,c),
(286,545,l),
(286,545,l)
);
},
{
closed = 1;
nodes = (
(565,495,l),
(559,469.667,o),
(555.667,435.333,o),
(555,392,cs),
(551.667,226.667,o),
(550,43.667,o),
(550,-157,c),
(537,-163,l),
(471,-95,ls),
(469.667,-93.667,o),
(469.667,-90.667,o),
(471,-86,c),
(479,-69.333,o),
(484,-47.667,o),
(486,-21,cs),
(491.333,52.333,o),
(494,159.333,o),
(494,300,cs),
(494,370.667,o),
(493.333,420.333,o),
(492,449,cs),
(490.667,479,o),
(484,507.333,o),
(472,534,c),
(501,547,l),
(501,547,l)
);
}
);
width = 1000;
}
);
unicode = 101377;
}
{
glyphname = u18C06;
layers = (
{
layerId = master01;
shapes = (
{
closed = 1;
nodes = (
(545.667,215.667,o),
(559.333,193,o),
(578,165,cs),
(615.333,103,o),
(645.667,55,o),
(669,21,cs),
(707.667,-35,o),
(739.167,-63.833,o),
(778.5,-80.5,cs),
(798.167,-88.833,o),
(823.667,-96.667,o),
(855,-104,c),
(853,-130,l),
(696,-142,l),
(693,-142,ls),
(686.333,-142,o),
(681.333,-139.667,o),
(678,-135,c),
(671.333,-120.333,o),
(662.333,-103,o),
(651,-83,cs),
(584.333,50.333,o),
(528.667,154.333,o),
(484,229,cs),
(464,263.667,o),
(440,282.333,o),
(392,301,c),
(392,317,l),
(491,317,l),
(501,291.667,o),
(515.667,263.667,o),
(535,233,cs)
);
},
{
closed = 1;
nodes = (
(87,-128,l),
(175,-32,o),
(246,77,o),
(274,153,cs),
(280,172.333,o),
(283,190.333,o),
(283,207,cs),
(283,221.667,o),
(281.333,234,o),
(278,244,c),
(292,250,l),
(369,149,l),
(353,134.333,o),
(332.667,104.333,o),
(326,95,cs),
(263.333,8.333,o),
(200,-67.667,o),
(108,-149,c)
);
},
{
closed = 1;
nodes = (
(42,368,l),
(155.333,466.667,o),
(247.333,577,o),
(302,677,cs),
(318,707.667,o),
(324.667,737,o),
(322,765,c),
(334,769,l),
(395,673,l),
(378.333,659,o),
(359.667,639.333,o),
(339,614,cs),
(248.333,503.333,o),
(171.667,428.667,o),
(61,346,c)
);
},
{
closed = 1;
nodes = (
(301,614,l),
(411,627.333,o),
(504.333,639.333,o),
(581,650,cs),
(649,658,o),
(682.333,666.667,o),
(717,688,cs),
(719,689.333,o),
(721.667,689,o),
(725,687,cs),
(824,640,l),
(821,626,l),
(603,602,o),
(414,579.333,o),
(254,558,c)
);
},
{
closed = 1;
nodes = (
(739,259.667,o),
(776.667,146.667,o),
(882,104,cs),
(883.333,103.333,o),
(885.333,103,o),
(888,103,cs),
(894,103,o),
(897.667,107,o),
(899,115,c),
(909,270,l),
(934,269,l),
(935.333,179.667,o),
(946.333,89.667,o),
(961,39,cs),
(962,36,l),
(962,32,o),
(958.333,29.333,o),
(951,28,cs),
(934,27,ls),
(882,27,o),
(829.333,47.333,o),
(796,78,cs),
(732,135.333,o),
(701.333,204,o),
(688,280,cs),
(681.333,318,o),
(676.667,365,o),
(674,421,cs),
(674,429.667,o),
(671,433.667,o),
(665,433,cs),
(352,390,ls),
(311.333,384.667,o),
(277.333,378.667,o),
(250,372,c),
(179,418,l),
(184,432,l),
(193.333,431.333,o),
(207,431,o),
(225,431,cs),
(251,431,o),
(288,433.333,o),
(336,438,cs),
(397.333,444.667,o),
(487,456.333,o),
(605,473,cs),
(649,480.333,o),
(684,497.333,o),
(710,524,cs),
(714,528,o),
(717,528.333,o),
(719,525,c),
(774,462,ls),
(777.333,458.667,o),
(777.333,455.333,o),
(774,452,cs),
(751,432,ls),
(743,425.333,o),
(739,421,o),
(739,413,cs)
);
}
);
width = 1000;
}
);
unicode = 101382;
}
{
glyphname = u18C08;
layers = (
{
layerId = master01;
shapes = (
{
closed = 1;
nodes = (
(48,266,l),
(188,392.667,o),
(298.333,539.333,o),
(349,666,cs),
(357,688.667,o),
(361,708,o),
(361,724,cs),
(361,730.667,o),
(359.667,740.667,o),
(357,754,c),
(369,761,l),
(440,659,l),
(423.333,641.667,o),
(408.667,622.333,o),
(396,601,cs),
(309.333,465,o),
(210,359.667,o),
(66,245,c)
);
},
{
closed = 1;
nodes = (
(355,543,ls),
(373.667,543,o),
(398.333,544.333,o),
(429,547,cs),
(450,548,l),
(502,553,ls),
(564,559,o),
(619.667,565,o),
(669,571,cs),
(730.333,577.667,o),
(765.333,585,o),
(796,605,cs),
(798.667,607,o),
(801.667,607,o),
(805,605,cs),
(899,559,l),
(896,544,l),
(745.333,530.667,o),
(608.667,517,o),
(486,503,cs),
(456,499,o),
(415.667,491.333,o),
(365,480,c),
(313,516,l),
(324,544,l),
(324,544,l)
);
},
{
closed = 1;
nodes = (
(355.333,245,o),
(322,241,o),
(294,233,c),
(220,289,l),
(226,301,l),
(248.667,295.667,o),
(295.667,293.667,o),
(325,295,cs),
(447.667,304.333,o),
(612,321,o),
(720,337,cs),
(744,340.333,o),
(766.333,352.333,o),
(787,373,cs),
(789.667,375.667,o),
(792.333,375.667,o),
(795,373,cs),
(852,316,ls),
(854.667,313.333,o),
(854.333,310.333,o),
(851,307,cs),
(831,286,ls),
(826.149,281.149,o),
(821,278.398,o),
(821,269,c),
(794.333,87.667,o),
(771,-15.333,o),
(731,-90,cs),
(715,-119.333,o),
(693,-147.333,o),
(677,-158,cs),
(673.667,-160.667,o),
(671,-162,o),
(669,-162,cs),
(667,-162,o),
(665,-160.667,o),
(663,-158,cs),
(617.667,-96.667,o),
(589.333,-65,o),
(548,-29,c),
(561,-12,l),
(657,-61,ls),
(659.667,-62.333,o),
(661.667,-63,o),
(663,-63,cs),
(668.333,-63,o),
(673,-59.333,o),
(677,-52,cs),
(714.333,8,o),
(748,164.333,o),
(756,275,cs),
(756,278,ls),
(756,284.667,o),
(753,287.333,o),
(747,286,c),
(561.667,268,o),
(442.667,255.667,o),
(390,249,cs)
);
},
{
closed = 1;
nodes = (
(500,176,o),
(449.833,65.667,o),
(350.5,-29,cs),
(300.833,-76.333,o),
(235.333,-122,o),
(154,-166,c),
(138,-140,l),
(291.333,-42.667,o),
(375.333,51.167,o),
(422,174.5,cs),
(445.333,236.167,o),
(463,311.667,o),
(475,401,cs),
(476.333,413,o),
(477,422.667,o),
(477,430,cs),
(477,467.333,o),
(468.333,499.667,o),
(451,527,c),
(466,538,l),
(558,445,l),
(550,421.667,o),
(541.333,388,o),
(532,344,cs)
);
}
);
width = 1000;
}
);
unicode = 101384;
}
{
glyphname = u18C0B;
layers = (
{
layerId = master01;
shapes = (
{
closed = 1;
nodes = (
(269,511,ls),
(287.667,511,o),
(312.333,512.333,o),
(343,515,cs),
(364,516,l),
(490,527,ls),
(544,531.667,o),
(591.333,536.333,o),
(632,541,cs),
(693.333,547.667,o),
(728.333,555,o),
(759,575,cs),
(762.333,577,o),
(765.333,577,o),
(768,575,c),
(862,529,l),
(859,514,l),
(793.667,508,o),
(763,505.333,o),
(767,506,cs),
(637,495.333,o),
(514.667,483.667,o),
(400,471,cs),
(370,467,o),
(329.667,459.333,o),
(279,448,c),
(227,484,l),
(238,512,l),
(238,512,l)
);
},
{
closed = 1;
nodes = (
(54,-112,l),
(248.667,-26.667,o),
(352.667,77.333,o),
(410,252,cs),
(438.667,339.333,o),
(458.333,453.667,o),
(469,595,cs),
(469.667,601.667,o),
(470,613,o),
(470,629,cs),
(470,682.333,o),
(459.667,721.333,o),
(439,746,c),
(450,758,l),
(551,672,l),
(544.333,652.667,o),
(539.667,628.667,o),
(537,600,cs),
(510.333,294.667,o),
(449.167,120.667,o),
(324.5,6,cs),
(262.167,-51.333,o),
(177,-100,o),
(69,-140,c)
);
},
{
closed = 1;
nodes = (
(624.333,323.667,o),
(655.333,341,o),
(680,369,cs),
(683.333,373,o),
(687,373,o),
(691,369,cs),
(750,307,ls),
(754.667,302.333,o),
(754.667,297.667,o),
(750,293,cs),
(728,270,ls),
(723.333,265.333,o),
(720,258.667,o),
(718,250,cs),
(699.333,182,o),
(683.333,94.333,o),
(678,17,cs),
(674.667,-21,o),
(692.333,-40.667,o),
(731,-42,cs),
(751,-43.333,o),
(765.333,-44,o),
(774,-44,cs),
(800,-44,o),
(827.333,-41.333,o),
(856,-36,cs),
(873.333,-33.333,o),
(882.667,-24.333,o),
(884,-9,cs),
(891,190,l),
(914,190,l),
(930.667,56,o),
(946,-27.333,o),
(960,-60,cs),
(961.333,-64,o),
(962,-66.333,o),
(962,-67,cs),
(962,-70.333,o),
(960.333,-73,o),
(957,-75,cs),
(934.333,-87,o),
(901.333,-95.333,o),
(858,-100,cs),
(826,-104,o),
(794.667,-106,o),
(764,-106,cs),
(752.667,-106,o),
(735.667,-105.333,o),
(713,-104,cs),
(647.667,-100,o),
(615,-66.333,o),
(615,-3,cs),
(615,49.667,o),
(627,136,o),
(651,256,c),
(651,260,ls),
(651,268.667,o),
(647,272.333,o),
(639,271,cs),
(539,262.333,o),
(459.667,254.333,o),
(401,247,cs),
(368.333,243,o),
(335,237,o),
(301,229,c),
(220,282,l),
(225,295,l),
(246.333,293,o),
(268,292,o),
(290,292,cs),
(318.667,292,o),
(350.333,293.333,o),
(385,296,cs),
(461,301.333,o),
(564.333,313,o),
(587,317,cs)
);
},
{
closed = 1;
nodes = (
(56,196,l),
(138.667,324,o),
(200.333,483.667,o),
(223,629,cs),
(223.667,633,o),
(224,639.333,o),
(224,648,cs),
(224,676.667,o),
(217.667,701,o),
(205,721,c),
(215,732,l),
(311,653,l),
(299,635,o),
(289.333,612.333,o),
(282,585,cs),
(240.667,433,o),
(165.333,282,o),
(80,178,c)
);
}
);
width = 1000;
}
);
unicode = 101387;
}
{
glyphname = u18C0E;
layers = (
{
layerId = master01;
shapes = (
{
closed = 1;
nodes = (
(298,573,ls),
(316.667,573,o),
(341.333,574.333,o),
(372,577,cs),
(393,578,l),
(473,586,ls),
(558.333,594.667,o),
(616,601,o),
(646,605,cs),
(707.333,611.667,o),
(742.333,619,o),
(773,639,cs),
(775.667,641,o),
(778.667,641,o),
(782,639,cs),
(876,593,l),
(873,578,l),
(725,564,o),
(577,549,o),
(429,533,cs),
(399,529,o),
(358.667,521.333,o),
(308,510,c),
(256,546,l),
(267,574,l),
(267,574,l)
);
},
{
closed = 1;
nodes = (
(300,359,l),
(294,333,o),
(291,298.667,o),
(291,256,cs),
(291,47,l),
(278,41,l),
(219,109,ls),
(217,111,o),
(217,114,o),
(219,118,cs),
(229,139.333,o),
(234,161,o),
(234,183,cs),
(234,221,ls),
(234,262.333,o),
(233.667,293,o),
(233,313,cs),
(231.667,353,o),
(220,401,o),
(192,433,c),
(202,445,l),
(202,445,l)
);
},
{
closed = 1;
nodes = (
(256,370,l),
(465.333,383.333,o),
(614.333,396.667,o),
(703,410,cs),
(739,415.333,o),
(759,423,o),
(783,447,cs),
(786.333,450.333,o),
(790,450.333,o),
(794,447,cs),
(841,402,l),
(844.333,400,o),
(844.333,397,o),
(841,393,cs),
(825,373,ls),
(820.333,367.667,o),
(818,360.667,o),
(818,352,cs),
(816,280,ls),
(814.667,232,o),
(813,161,o),
(813,69,c),
(801,63,l),
(736,131,ls),
(735.333,131.667,o),
(735.167,133,o),
(735.5,135,cs),
(735.833,137,o),
(736,138.667,o),
(736,140,c),
(744,156.667,o),
(749,178.333,o),
(751,205,cs),
(755,243.667,o),
(757,289.333,o),
(757,342,cs),
(757,359.333,o),
(756,363.333,o),
(744,362,cs),
(724.667,360,o),
(701.833,358,o),
(675.5,356,cs),
(649.167,354,o),
(619.333,351.333,o),
(586,348,cs),
(431.333,335.333,o),
(321.667,325.667,o),
(257,319,c)
);
},
{
closed = 1;
nodes = (
(564,386,ls),
(564,199.333,o),
(515.333,64.333,o),
(374,-41,cs),
(303.333,-93.667,o),
(205.333,-136.667,o),
(80,-170,c),
(70,-141,l),
(298,-69,o),
(416.167,32.833,o),
(463.5,165.5,cs),
(487.167,231.833,o),
(499,311,o),
(499,403,cs),
(499,564,l),
(565,568,l),
(565,568,l)
);
},
{
closed = 1;
nodes = (
(560,139,ls),
(630.667,65.667,o),
(684.667,11.667,o),
(722,-23,cs),
(784.667,-81.667,o),
(843.333,-106.333,o),
(938,-117,c),
(938,-143,l),
(751,-156,l),
(747,-156,ls),
(740.333,-156,o),
(736,-154.333,o),
(734,-151,cs),
(676.667,-73.667,o),
(581.333,43.333,o),
(488,146,c),
(507,193,l),
(507,193,l)
);
},
{
closed = 1;
nodes = (
(92,315,l),
(166.667,412.333,o),
(237.667,551.333,o),
(267,658,cs),
(271,673.333,o),
(273,689.667,o),
(273,707,cs),
(273,723,o),
(271,738.333,o),
(267,753,c),
(279,759,l),
(356,668,l),
(341.333,649.333,o),
(323,615,o),
(319,607,cs),
(263,492.333,o),
(187.333,377,o),
(114,297,c)
);
}
);
width = 1000;
}
);
unicode = 101390;
}
{
glyphname = u18C0F;
layers = (
{
layerId = master01;
shapes = (
{
closed = 1;
nodes = (
(211.333,169.667,o),
(169.333,163.667,o),
(128,157,c),
(48,213,l),
(53,226,l),
(93,222,o),
(128,220,o),
(158,220,cs),
(172,220,o),
(191.667,220.667,o),
(217,222,cs),
(267,226,o),
(313.833,229.667,o),
(357.5,233,cs),
(401.167,236.333,o),
(443.333,239.667,o),
(484,243,cs),
(514,245,o),
(591.667,251,o),
(717,261,cs),
(782.333,265,o),
(819,273.333,o),
(855,292,c),
(857.667,292.667,o),
(860.333,292.333,o),
(863,291,cs),
(959,239,l),
(956,225,l),
(775.333,215.667,o),
(541.333,199,o),
(254,175,cs)
);
},
{
closed = 1;
nodes = (
(91,331,l),
(169.667,423,o),
(248.667,560.333,o),
(286,667,cs),
(292.667,687,o),
(296,706.667,o),
(296,726,cs),
(296,740,o),
(294.667,752,o),
(292,762,c),
(304,767,l),
(375,672,l),
(367.667,663.333,o),
(354.333,643.667,o),
(335,613,cs),
(269.667,499.667,o),
(186.667,388,o),
(112,312,c)
);
},
{
closed = 1;
nodes = (
(290,587,ls),
(512,600.333,o),
(648,610.667,o),
(698,618,cs),
(726,621.333,o),
(752,629,o),
(776,641,cs),
(778.667,642.333,o),
(780.667,642.5,o),
(782,641.5,cs),
(783.333,640.5,o),
(784.333,640,o),
(785,640,c),
(867,595,l),
(865,578,l),
(721,570,o),
(383.667,545.667,o),
(269,535,c),
(268,586,l),
(268,586,l)
);
},
{
closed = 1;
nodes = (
(541,574,l),
(535.667,270,o),
(472.333,87.833,o),
(339,-27.5,cs),
(272.333,-85.167,o),
(183,-132.667,o),
(71,-170,c),
(59,-140,l),
(273.667,-54.667,o),
(386.833,66.333,o),
(435.5,241,cs),
(459.833,328.333,o),
(472.667,437.333,o),
(474,568,c)
);
},
{
closed = 1;
nodes = (
(572,160,ls),
(637.333,92,o),
(668.667,60,o),
(726,8,cs),
(786,-45.333,o),
(830,-71.5,o),
(874,-85.5,cs),
(896,-92.5,o),
(923.333,-98.667,o),
(956,-104,c),
(955,-130,l),
(764,-141,ls),
(754.667,-141,o),
(749,-139.667,o),
(747,-137,cs),
(685.667,-49,o),
(574,93.667,o),
(466,219,c),
(506,228,l),
(506,228,l)
);
},
{
closed = 1;
nodes = (
(564,296,l),
(621.333,352,o),
(671.333,417.667,o),
(690,459,cs),
(700.667,483,o),
(704.667,502.333,o),
(702,537,c),
(717,543,l),
(776,440,l),
(756,425.333,o),
(739.333,411.333,o),
(726,398,cs),
(687.333,358,o),
(630,309,o),
(582,277,c)
);
},
{
closed = 1;
nodes = (
(239,481,l),
(293,439.667,o),
(337,401.333,o),
(371,366,cs),
(374.333,362.667,o),
(376,359.333,o),
(376,356,c),
(374,347,l),
(354,278,l),
(341,278,l),
(314.333,336.667,o),
(265.667,417.333,o),
(223,464,c)
);
}
);
width = 1000;
}
);
unicode = 101391;
}
{
glyphname = u18C11;
layers = (
{
layerId = master01;
shapes = (
{
closed = 1;
nodes = (
(253,521,l),
(317.667,526.333,o),
(411.667,535.667,o),
(535,549,cs),
(547,549.667,o),
(572.667,552.333,o),
(612,557,cs),
(677.333,565,o),
(709,572,o),
(741,592,cs),
(743.667,593.333,o),
(746.667,593,o),
(750,591,cs),
(844,540,l),
(841,525,l),
(681.667,513,o),
(488.333,494.333,o),
(261,469,cs),
(230,466,l),
(230,466,l)
);
},
{
closed = 1;
nodes = (
(321,204.667,o),
(289.667,215,o),
(253,215,cs),
(247.667,215,o),
(237.667,214.333,o),
(223,213,c),
(217,227,l),
(319,270,l),
(337,251.333,o),
(357.333,233.333,o),
(380,216,cs),
(416,190,o),
(472.333,150.333,o),
(549,97,cs),
(616,51,ls),
(740,-34.333,o),
(796.333,-66.167,o),
(851,-81.5,cs),
(878.333,-89.167,o),
(913,-95,o),
(955,-99,c),
(955,-125,l),
(784,-145,l),
(780,-145,ls),
(773.333,-145,o),
(767.333,-143,o),
(762,-139,cs),
(624.667,-25.667,o),
(547,34.667,o),
(347,184,cs)
);
},
{
closed = 1;
nodes = (
(506,462,o),
(502.667,391.667,o),
(504,363,cs),
(504,353,o),
(507.667,348,o),
(515,348,cs),
(533.667,348,o),
(558,349.667,o),
(588,353,cs),
(636,358.333,o),
(663.667,369.667,o),
(689,395,cs),
(693,399,o),
(696.667,399,o),
(700,395,cs),
(752,338,l),
(756,334.667,o),
(756,331,o),
(752,327,cs),
(732,309,ls),
(724,302.333,o),
(720.667,297,o),
(718,289,c),
(666,171.667,o),
(558.667,50.667,o),
(404,-48,cs),
(326.667,-97.333,o),
(240.333,-137,o),
(145,-167,c),
(133,-136,l),
(374.737,-42.102,o),
(580.356,129.39,o),
(645,291,cs),
(647,297,o),
(648,301.333,o),
(648,304,cs),
(648,309.333,o),
(644,311.333,o),
(636,310,cs),
(516,298,ls),
(508,296.667,o),
(500.667,294,o),
(494,290,cs),
(471,276,ls),
(465.667,272.667,o),
(462,272.667,o),
(460,276,c),
(413,334,ls),
(409.667,338,o),
(409.667,341.667,o),
(413,345,cs),
(434.333,362.333,o),
(441,375.333,o),
(445,402,cs),
(452.333,442.667,o),
(457,519.667,o),
(459,633,cs),
(460.333,671.667,o),
(446,722.667,o),
(418,756,c),
(429,767,l),
(527,679,l),
(520.333,653.667,o),
(516,618.667,o),
(514,574,cs)
);
},
{
closed = 1;
nodes = (
(785,275,l),
(837.667,219,o),
(881.667,166.333,o),
(917,117,cs),
(919.667,113.667,o),
(921,110.667,o),
(921,108,cs),
(921,105.333,o),
(920,102,o),
(918,98,cs),
(882,6,l),
(869,8,l),
(849,84,o),
(806.333,191,o),
(765,259,c)
);
},
{
closed = 1;
nodes = (
(64,165,l),
(160,310.333,o),
(231,479,o),
(255,619,cs),
(257,631,o),
(258,642.667,o),
(258,654,cs),
(258,678.667,o),
(253.333,701.333,o),
(244,722,c),
(255,730,l),
(347,645,l),
(334.333,622.333,o),
(324.667,601,o),
(318,581,cs),
(266,421,o),
(182,260,o),
(90,148,c)
);
}
);
width = 1000;
}
);
unicode = 101393;
}
{
glyphname = u18C15;
layers = (
{
layerId = master01;
shapes = (
{
closed = 1;
nodes = (
(293,-136,l),
(443.667,-30.667,o),
(518.167,81,o),
(549.5,221,cs),
(565.167,291,o),
(574.333,378.333,o),
(577,483,cs),
(577.667,510.333,o),
(578,559.667,o),
(578,631,cs),
(578,672.333,o),
(565.333,720,o),
(536,752,c),
(547,764,l),
(649,678,l),
(643.667,654,o),
(643,629.667,o),
(643,587,cs),
(643,543,o),
(642.667,506.333,o),
(642,477,cs),
(636.667,267.667,o),
(600.833,122,o),
(505.5,2,cs),
(457.833,-58,o),
(392.333,-112.333,o),
(309,-161,c)
);
},
{
closed = 1;
nodes = (
(496,340.333,o),
(470,336.5,o),
(446,331.5,cs),
(422,326.5,o),
(407.333,323.333,o),
(402,322,c),
(325,375,l),
(330,389,l),
(372.667,386.333,o),
(401,385,o),
(415,385,cs),
(431.667,385,o),
(456,386.333,o),
(488,389,cs),
(506.667,390.333,o),
(520.667,391.667,o),
(530,393,cs),
(619.333,400.333,o),
(682,406,o),
(718,410,cs),
(780.667,416.667,o),
(813,423,o),
(845,443,c),
(848.333,444.333,o),
(851.333,444,o),
(854,442,c),
(947,395,l),
(944,380,l),
(776,368,o),
(678.667,359,o),
(524,343,cs)
);
},
{
closed = 1;
nodes = (
(626,378,l),
(657.333,309.333,o),
(712.333,201.333,o),
(791,54,cs),
(827,-14,o),
(856.667,-45.333,o),
(894,-64,cs),
(912.667,-73.333,o),
(937.667,-81.667,o),
(969,-89,c),
(968,-115,l),
(811,-123,ls),
(801,-123,o),
(795,-120.667,o),
(793,-116,cs),
(747,-8,ls),
(681.667,148,o),
(627.667,270.667,o),
(585,360,c)
);
},
{
closed = 1;
nodes = (
(728,668,l),
(790,638,o),
(833.667,613.333,o),
(859,594,cs),
(865.667,588.667,o),
(866.333,585.333,o),
(865,576,cs),
(857,502,l),
(844,500,l),
(810.667,549.333,o),
(758,613.667,o),
(714,647,c)
);
},
{
closed = 1;
nodes = (
(19,270,l),
(133.667,383.333,o),
(247.667,543.333,o),
(301,658,cs),
(311,680,o),
(316,704.667,o),
(316,732,cs),
(316,739.333,o),
(315.333,749,o),
(314,761,c),
(326,766,l),
(396,662,l),
(386,652,o),
(371.333,633.667,o),
(352,607,c),
(270.667,479,o),
(142,333.333,o),
(38,248,c)
);
},
{
closed = 1;
nodes = (
(277,440,l),
(271,414.667,o),
(267.667,380.333,o),
(267,337,cs),
(263.667,189,o),
(262,26,o),
(262,-152,c),
(249,-158,l),
(183,-90,ls),
(181.667,-88.667,o),
(181.667,-85.667,o),
(183,-81,c),
(191,-64.333,o),
(196,-42.667,o),
(198,-16,cs),
(203.333,68,o),
(206,166,o),
(206,278,cs),
(206,310,o),
(205.333,348.667,o),
(204,394,cs),
(202.667,414.667,o),
(199.333,434.667,o),
(194,454,c),
(226,481,l),
(226,481,l)
);
}
);
width = 1000;
}
);
unicode = 101397;
}
{
glyphname = u18C17;
layers = (
{
layerId = master01;
shapes = (
{
closed = 1;
nodes = (
(518.333,-79.667,o),
(477.667,-86,o),
(429,-96,c),
(353,-41,l),
(358,-28,l),
(396.667,-31.333,o),
(427.333,-33,o),
(450,-33,cs),
(472,-33,o),
(494,-32,o),
(516,-30,cs),
(566,-27.333,o),
(614,-23.667,o),
(660,-19,cs),
(708,-15,ls),
(772,-9.667,o),
(805.333,-4,o),
(836,16,c),
(839.333,17.333,o),
(842.333,17,o),
(845,15,c),
(937,-34,l),
(934,-49,l),
(839.333,-54.333,o),
(725.333,-62.333,o),
(592,-73,cs),
(582,-74.333,o),
(568.333,-75.667,o),
(551,-77,cs)
);
},
{
closed = 1;
nodes = (
(488.333,266.333,o),
(447.667,260,o),
(399,250,c),
(323,305,l),
(328,318,l),
(366.667,314.667,o),
(397.333,313,o),
(420,313,cs),
(442,313,o),
(464,314,o),
(486,316,cs),
(550,320,o),
(610.333,325,o),
(667,331,cs),
(735,337,ls),
(799,342.333,o),
(832.333,348,o),
(863,368,c),
(866.333,369.333,o),
(869.333,369,o),
(872,367,c),
(964,318,l),
(961,303,l),
(778.333,291,o),
(683.667,283.667,o),
(521,269,cs)
);
},
{
closed = 1;
nodes = (
(754,637,l),
(816,589.667,o),
(859.667,553,o),
(885,527,cs),
(887.667,523.667,o),
(889,520.333,o),
(889,517,cs),
(889,513,o),
(888.667,510,o),
(888,508,cs),
(867,429,l),
(854,429,l),
(828.667,487.667,o),
(779.667,569.667,o),
(737,619,c)
);
},
{
closed = 1;
nodes = (
(288,440,l),
(282,414.667,o),
(278.667,380.333,o),
(278,337,cs),
(274.667,189,o),
(273,26,o),
(273,-152,c),
(260,-158,l),
(194,-90,ls),
(192.667,-88.667,o),
(192.667,-85.667,o),
(194,-81,c),
(202,-64.333,o),
(207,-42.667,o),
(209,-16,cs),
(214.333,68,o),
(217,166,o),
(217,278,cs),
(217,310,o),
(216.333,348.667,o),
(215,394,cs),
(213.667,420.667,o),
(208.667,445,o),
(200,467,c),
(224,492,l),
(224,492,l)
);
},
{
closed = 1;
nodes = (
(9,278,l),
(125,391.333,o),
(238,546,o),
(290,658,cs),
(300,680,o),
(305,704.667,o),
(305,732,cs),
(305,739.333,o),
(304.333,749,o),
(303,761,c),
(315,766,l),
(385,662,l),
(375,652,o),
(360.333,633.667,o),
(341,607,c),
(261,481.667,o),
(133.333,340,o),
(28,256,c)
);
},
{
closed = 1;
nodes = (
(590,-44,l),
(590.667,-40.667,o),
(591,-36,o),
(591,-30,cs),
(596.333,102,o),
(599,261.333,o),
(599,448,cs),
(599,534.667,o),
(598.333,596,o),
(597,632,cs),
(595.667,673.333,o),
(583.333,720,o),
(554,752,c),
(565,764,l),
(670,678,l),
(663.333,649.333,o),
(660,615,o),
(660,575,cs),
(660,372.333,o),
(658.333,212.667,o),
(657,106,cs),
(655.667,40.667,o),
(655,-7.333,o),
(655,-38,c)
);
}
);
width = 1000;
}
);
unicode = 101399;
}
{
glyphname = u18C18;
layers = (
{
layerId = master01;
shapes = (
{
closed = 1;
nodes = (
(517,394.667,o),
(476.333,387.333,o),
(427,376,c),
(350,430,l),
(355,443,l),
(383,441,o),
(408.667,440,o),
(432,440,cs),
(462.667,440,o),
(489.667,441.333,o),
(513,444,cs),
(580.333,450,o),
(637.667,455.667,o),
(685,461,cs),
(691.667,461.667,o),
(699.833,462.667,o),
(709.5,464,cs),
(719.167,465.333,o),
(731,466.667,o),
(745,468,cs),
(809,474.667,o),
(841,482,o),
(873,502,c),
(876.333,503.333,o),
(879.333,503,o),
(882,501,c),
(975,454,l),
(972,439,l),
(797.333,424.333,o),
(705,415.333,o),
(549,398,cs)
);
},
{
closed = 1;
nodes = (
(788,400.667,o),
(791,100,o),
(795,-4,cs),
(796.333,-28,o),
(795.333,-49.667,o),
(792,-69,cs),
(784,-113,o),
(776,-132,o),
(760,-156,cs),
(755.333,-164,o),
(750.667,-168,o),
(746,-168,cs),
(742.667,-168,o),
(738.667,-165.667,o),
(734,-161,cs),
(680,-111.667,o),
(627.333,-71.667,o),
(576,-41,c),
(589,-16,l),
(707,-55,ls),
(709,-55.667,o),
(711.333,-56,o),
(714,-56,cs),
(722,-56,o),
(724.667,-50,o),
(726,-38,cs),
(728.667,-8,o),
(730,61.667,o),
(730,171,cs),
(730,344.333,o),
(727.667,560.333,o),
(725,623,cs),
(723.667,665.667,o),
(709,726,o),
(681,758,c),
(693,770,l),
(797,684,l),
(791,652.667,o),
(788,618.667,o),
(788,582,cs)
);
},
{
closed = 1;
nodes = (
(482,301,ls),
(486.667,297,o),
(501.333,284.5,o),
(526,263.5,cs),
(550.667,242.5,o),
(571.667,222,o),
(589,202,cs),
(591.667,198.667,o),
(593,195.333,o),
(593,192,cs),
(593,190.667,o),
(592.333,187.333,o),
(591,182,cs),
(565,103,l),
(552,103,l),
(529.333,167,o),
(484.667,251.667,o),
(446,301,c),
(463,317,l),
(463,317,l)
);
},
{
closed = 1;
nodes = (
(302,432,l),
(296,406.667,o),
(292.667,372.333,o),
(292,329,cs),
(288.667,182.333,o),
(287,20,o),
(287,-158,c),
(274,-164,l),
(208,-96,ls),
(206.667,-94.667,o),
(206.667,-91.667,o),
(208,-87,c),
(216,-70.333,o),
(221,-48.667,o),
(223,-22,cs),
(228.333,62,o),
(231,159.667,o),
(231,271,cs),
(231,302.333,o),
(230.333,340.667,o),
(229,386,cs),
(227.667,412.667,o),
(222.667,437,o),
(214,459,c),
(238,484,l),
(238,484,l)
);
},
{
closed = 1;
nodes = (
(28,290,l),
(146.667,396.667,o),
(266.667,546,o),
(320,658,cs),
(332.667,683.333,o),
(339,709.333,o),
(339,736,cs),
(339,742,o),
(338.333,750.333,o),
(337,761,c),
(349,766,l),
(416,659,l),
(402.667,646.333,o),
(387.333,628.333,o),
(370,605,cs),
(284.667,479.667,o),
(166.333,354,o),
(49,266,c)
);
}
);
width = 1000;
}
);
unicode = 101400;
}
{
glyphname = u18C19;
layers = (
{
layerId = master01;
shapes = (
{
closed = 1;
nodes = (
(749,187,l),
(753,259.667,o),
(756,342,o),
(758,434,cs),
(758,451.333,o),
(757,455.333,o),
(745,454,cs),
(531,436,ls),
(499,432.667,o),
(465.667,426.667,o),
(431,418,c),
(354,474,l),
(359,487,l),
(383,483.667,o),
(410.667,482,o),
(442,482,cs),
(458,482,o),
(480.667,482.667,o),
(510,484,cs),
(566.667,486,o),
(629.333,491.333,o),
(698,500,cs),
(732.667,504,o),
(758,516,o),
(782,540,cs),
(785.333,543.333,o),
(789,543.333,o),
(793,540,cs),
(844,496,ls),
(846.667,494,o),
(846.667,491,o),
(844,487,cs),
(825,463,ls),
(820.333,457.667,o),
(818,450.667,o),
(818,442,cs),
(809,191,l),
(809,191,l)
);
},
{
closed = 1;
nodes = (
(532,148,ls),
(488,145.333,o),
(448.667,138,o),
(410,130,c),
(335,187,l),
(340,200,l),
(378,195.333,o),
(414,193,o),
(448,193,cs),
(458.667,193,o),
(475.333,193.667,o),
(498,195,cs),
(538.667,197,o),
(573.833,199.167,o),
(603.5,201.5,cs),
(633.167,203.833,o),
(653.667,205.333,o),
(665,206,cs),
(747,212,ls),
(809.667,216,o),
(844,222.333,o),
(876,241,c),
(879.333,242.333,o),
(882.333,242,o),
(885,240,cs),
(976,190,l),
(973,175,l),
(869,170.333,o),
(752.333,163.333,o),
(623,154,cs)
);
},
{
closed = 1;
nodes = (
(293,435,l),
(287,409.667,o),
(283.667,375.333,o),
(283,332,cs),
(279.667,184,o),
(278,21,o),
(278,-157,c),
(265,-163,l),
(199,-95,ls),
(197.667,-93.667,o),
(197.667,-90.667,o),
(199,-86,c),
(207,-69.333,o),
(212,-47.667,o),
(214,-21,cs),
(219.333,63,o),
(222,161,o),
(222,273,cs),
(222,305,o),
(221.333,343.667,o),
(220,389,cs),
(218.667,415.667,o),
(213.667,440,o),
(205,462,c),
(229,487,l),
(229,487,l)
);
},
{
closed = 1;
nodes = (
(12,291,l),
(132,401.667,o),
(249.667,552.333,o),
(303,663,cs),
(314.333,686.333,o),
(320,711.667,o),
(320,739,cs),
(320,745,o),
(319.333,754,o),
(318,766,c),
(330,770,l),
(398,665,l),
(383.333,650.333,o),
(368.333,632.333,o),
(353,611,cs),
(269,487,o),
(138.333,347,o),
(33,267,c)
);
},
{
closed = 1;
nodes = (
(617,683,l),
(611,657.667,o),
(607.667,623.333,o),
(607,580,cs),
(603.667,446.667,o),
(602,201.333,o),
(602,-156,c),
(589,-162,l),
(523,-94,ls),
(521.667,-92.667,o),
(521.667,-89.667,o),
(523,-85,c),
(531,-68.333,o),
(536,-46.667,o),
(538,-20,cs),
(544,67.333,o),
(547,201,o),
(547,381,cs),
(547,479,o),
(546,564.333,o),
(544,637,cs),
(540,690.333,o),
(529,722,o),
(501,758,c),
(512,770,l),
(512,770,l)
);
},
{
closed = 1;
nodes = (
(617,684,l),
(610.333,655.333,o),
(607,621,o),
(607,581,cs),
(607,502.333,o),
(606.333,379,o),
(605,211,cs),
(603,85,o),
(602,-38.667,o),
(602,-160,c),
(589,-166,l),
(526,-98,ls),
(524.667,-96.667,o),
(524.667,-93.667,o),
(526,-89,cs),
(534,-71,o),
(538.667,-49.333,o),
(540,-24,cs),
(544.667,119.333,o),
(547,265.667,o),
(547,415,cs),
(547,499.667,o),
(546,574,o),
(544,638,cs),
(542.667,679.333,o),
(530.333,726,o),
(501,758,c),
(512,770,l),
(512,770,l)
);
}
);
width = 1000;
}
);
unicode = 101401;
}
{
glyphname = u18C1C;
layers = (
{
layerId = master01;
shapes = (
{
closed = 1;
nodes = (
(572,577.333,o),
(539.333,570.667,o),
(508,562,c),
(429,620,l),
(435,632,l),
(465,628,o),
(492,626,o),
(516,626,cs),
(536,626,o),
(557,627,o),
(579,629,cs),
(643.667,634.333,o),
(712.667,642,o),
(786,652,cs),
(818,656,o),
(843.667,664.667,o),
(877,694,c),
(880.333,696,o),
(883,695.667,o),
(885,693,cs),
(940,627,ls),
(944,623,o),
(943,619.333,o),
(939,618,cs),
(919,614,o),
(904.667,603,o),
(882,583,cs),
(873.333,575,o),
(849.333,549,o),
(810,505,cs),
(743.333,431.667,o),
(699.667,384.667,o),
(679,364,c),
(658,382,l),
(720.667,461.333,o),
(770.333,533,o),
(807,597,c),
(811,602.333,o),
(808.667,607.333,o),
(802,606,cs),
(748,600,ls),
(669.333,590.667,o),
(622,584.667,o),
(606,582,cs)
);
},
{
closed = 1;
nodes = (
(728,366,l),
(722.667,343.333,o),
(720.667,332.333,o),
(722,295,cs),
(724,200.333,o),
(725,98.667,o),
(725,-10,cs),
(725,-32.667,o),
(723.667,-51.667,o),
(721,-67,cs),
(714.333,-104.333,o),
(703.667,-120.667,o),
(685,-150,c),
(681,-154.667,o),
(676.667,-155,o),
(672,-151,cs),
(614.667,-101.667,o),
(553.667,-58.333,o),
(489,-21,c),
(501,3,l),
(643,-51,l),
(647,-52,l),
(652.333,-52,o),
(655.333,-47,o),
(656,-37,cs),
(660.667,10.333,o),
(663,63,o),
(663,121,cs),
(663,192.333,o),
(661,252,o),
(657,300,cs),
(653,356,o),
(643.333,398,o),
(614,430,c),
(625,442,l),
(625,442,l)
);
},
{
closed = 1;
nodes = (
(296,435,l),
(290,409.667,o),
(286.667,375.333,o),
(286,332,cs),
(282.667,185.333,o),
(281,23,o),
(281,-155,c),
(268,-161,l),
(202,-93,ls),
(200.667,-91.667,o),
(200.667,-88.667,o),
(202,-84,c),
(210,-67.333,o),
(215,-45.667,o),
(217,-19,cs),
(222.333,65,o),
(225,162.667,o),
(225,274,cs),
(225,305.333,o),
(224.333,343.667,o),
(223,389,cs),
(221.667,415.667,o),
(216.667,440,o),
(208,462,c),
(232,487,l),
(232,487,l)
);
},
{
closed = 1;
nodes = (
(34,267,l),
(134,372.333,o),
(240.667,531.667,o),
(298,657,cs),
(309.333,680.333,o),
(315,705.667,o),
(315,733,cs),
(315,739,o),
(314.333,748,o),
(313,760,c),
(325,765,l),
(393,660,l),
(376.333,642.667,o),
(361.667,624.333,o),
(349,605,cs),
(253,458.333,o),
(133.333,312,o),
(56,244,c)
);
}
);
width = 1000;
}
);
unicode = 101404;
}
{
glyphname = u18C23;
layers = (
{
layerId = master01;
shapes = (
{
closed = 1;
nodes = (
(553,604,ls),
(553,648,o),
(538,691.333,o),
(510,726,c),
(521,738,l),
(627,651,l),
(620.333,625.667,o),
(617,591.667,o),
(617,549,cs),
(617,8,ls),
(617,-33.333,o),
(622.667,-44.667,o),
(652,-46,cs),
(678.667,-47.333,o),
(701.333,-48,o),
(720,-48,cs),
(775.333,-48,o),
(820.667,-45.333,o),
(856,-40,c),
(877.333,-38.667,o),
(881.667,-32.333,o),
(883,-11,cs),
(891,187,l),
(915,187,l),
(923,91,o),
(938.667,-20.333,o),
(956,-71,c),
(956.667,-71.667,o),
(957,-73,o),
(957,-75,cs),
(957,-78.333,o),
(955.333,-80.667,o),
(952,-82,cs),
(927.333,-92.667,o),
(890,-100.333,o),
(840,-105,cs),
(806,-109,o),
(768,-111,o),
(726,-111,cs),
(695.333,-111,o),
(666.333,-110,o),
(639,-108,cs),
(577.667,-105.333,o),
(553,-75.667,o),
(553,-5,cs)
);
},
{
closed = 1;
nodes = (
(334,435,l),
(328,409.667,o),
(324.667,375.333,o),
(324,332,cs),
(320.667,184,o),
(319,20.667,o),
(319,-158,c),
(306,-164,l),
(240,-96,ls),
(238.667,-94.667,o),
(238.667,-91.667,o),
(240,-87,c),
(248,-70.333,o),
(253,-48.667,o),
(255,-22,cs),
(260.333,62,o),
(263,160.333,o),
(263,273,cs),
(263,305,o),
(262.333,343.667,o),
(261,389,cs),
(259.667,415.667,o),
(254.667,440,o),
(246,462,c),
(270,487,l),
(270,487,l)
);
},
{
closed = 1;
nodes = (
(43,230,l),
(160.333,362,o),
(271.667,534.667,o),
(317,656,cs),
(325,678,o),
(329,700,o),
(329,722,cs),
(329,736.667,o),
(327.667,749.333,o),
(325,760,c),
(337,765,l),
(414,664,l),
(398,646,o),
(384,626.667,o),
(372,606,cs),
(282.667,456.667,o),
(158.667,294.667,o),
(64,208,c)
);
}
);
width = 1000;
}
);
unicode = 101411;
}
{
glyphname = u18C24;
layers = (
{
layerId = master01;
shapes = (
{
closed = 1;
nodes = (
(523,629,ls),
(523,673,o),
(508,716.333,o),
(480,751,c),
(491,763,l),
(597,676,l),
(590.333,650.667,o),
(587,616.667,o),
(587,574,cs),
(587,6,ls),
(587,-34,o),
(596.333,-45.333,o),
(627,-48,cs),
(648.333,-49.333,o),
(666.333,-50,o),
(681,-50,cs),
(741,-50,o),
(808.333,-45,o),
(851,-37,cs),
(873.667,-33,o),
(876.667,-28.333,o),
(878,-7,cs),
(891,184,l),
(915,184,l),
(923,88,o),
(938.667,-22.333,o),
(956,-73,c),
(956.667,-73.667,o),
(957,-75,o),
(957,-77,cs),
(957,-80.333,o),
(955.333,-82.667,o),
(952,-84,cs),
(927.333,-94.667,o),
(890,-102.333,o),
(840,-107,cs),
(782.667,-111.667,o),
(728.333,-114,o),
(677,-114,cs),
(650.333,-114,o),
(630.333,-113.667,o),
(617,-113,cs),
(551.667,-110.333,o),
(523,-79.333,o),
(523,-10,cs)
);
},
{
closed = 1;
nodes = (
(557,305,l),
(650.333,365,o),
(743.667,448,o),
(781,504,cs),
(801,535.333,o),
(811.333,565.667,o),
(812,595,c),
(826,598,l),
(868,470,l),
(860,465.333,o),
(841.667,452.333,o),
(813,431,cs),
(733,367,o),
(629.667,300,o),
(559,264,c)
);
},
{
closed = 1;
nodes = (
(324,435,l),
(318,409.667,o),
(314.667,375.333,o),
(314,332,cs),
(310.667,184,o),
(309,20.667,o),
(309,-158,c),
(296,-164,l),
(230,-96,ls),
(228.667,-94.667,o),
(228.667,-91.667,o),
(230,-87,c),
(238,-70.333,o),
(243,-48.667,o),
(245,-22,cs),
(250.333,62,o),
(253,160.333,o),
(253,273,cs),
(253,305,o),
(252.333,343.667,o),
(251,389,cs),
(249.667,415.667,o),
(244.667,440,o),
(236,462,c),
(260,487,l),
(260,487,l)
);
},
{
closed = 1;
nodes = (
(43,230,l),
(160.333,360.667,o),
(271.667,533.333,o),
(317,656,cs),
(325,678,o),
(329,700,o),
(329,722,cs),
(329,736.667,o),
(327.667,749.333,o),
(325,760,c),
(337,765,l),
(414,664,l),
(398,646,o),
(384,626.667,o),
(372,606,cs),
(282.667,456.667,o),
(158.667,294.667,o),
(64,208,c)
);
}
);
width = 1000;
}
);
unicode = 101412;
}
{
glyphname = u18C25;
layers = (
{
layerId = master01;
shapes = (
{
closed = 1;
nodes = (
(506,605,ls),
(506,649,o),
(491,692.333,o),
(463,727,c),
(474,739,l),
(578,652,l),
(571.333,626.667,o),
(568,592.667,o),
(568,550,cs),
(568,3,ls),
(568,-38.333,o),
(575.667,-49.667,o),
(605,-51,cs),
(624.333,-52.333,o),
(657.667,-53,o),
(705,-53,cs),
(773,-53,o),
(824,-50.333,o),
(858,-45,c),
(879.333,-43.667,o),
(883.667,-37.333,o),
(885,-16,cs),
(893,184,l),
(917,184,l),
(925,86.667,o),
(940.667,-25.333,o),
(958,-76,c),
(958.667,-76.667,o),
(959,-78,o),
(959,-80,cs),
(959,-83.333,o),
(957.333,-85.667,o),
(954,-87,cs),
(927.333,-98.333,o),
(883.667,-106,o),
(823,-110,cs),
(787,-114,o),
(745.667,-116,o),
(699,-116,cs),
(660.333,-116,o),
(624.667,-115,o),
(592,-113,cs),
(530.667,-110.333,o),
(506,-80.667,o),
(506,-10,cs)
);
},
{
closed = 1;
nodes = (
(538,378,l),
(624.667,434,o),
(703.333,501,o),
(738,553,cs),
(752.667,574.333,o),
(761,604,o),
(763,642,c),
(777,644,l),
(824,517,l),
(820.667,515,o),
(808.333,507,o),
(787,493,cs),
(767,480,ls),
(709.667,438.667,o),
(624.333,384.333,o),
(539,343,c)
);
},
{
closed = 1;
nodes = (
(547,331,l),
(652.333,272.333,o),
(740.667,216.333,o),
(812,163,cs),
(820,157.667,o),
(820,154.667,o),
(820,144,cs),
(823,44,l),
(810,40,l),
(744.667,125.333,o),
(630,241.667,o),
(534,311,c)
);
},
{
closed = 1;
nodes = (
(334,435,l),
(328,409.667,o),
(324.667,375.333,o),
(324,332,cs),
(320.667,184,o),
(319,20.667,o),
(319,-158,c),
(306,-164,l),
(240,-96,ls),
(238.667,-94.667,o),
(238.667,-91.667,o),
(240,-87,c),
(248,-70.333,o),
(253,-48.667,o),
(255,-22,cs),
(260.333,62,o),
(263,160.333,o),
(263,273,cs),
(263,305,o),
(262.333,343.667,o),
(261,389,cs),
(259.667,415.667,o),
(254.667,440,o),
(246,462,c),
(270,487,l),
(270,487,l)
);
},
{
closed = 1;
nodes = (
(50,223,l),
(166,357.667,o),
(272.333,532.333,o),
(315,655,cs),
(322.333,673.667,o),
(326,694.333,o),
(326,717,cs),
(326,729.667,o),
(324.333,743.667,o),
(321,759,c),
(333,764,l),
(412,665,l),
(397.333,647.667,o),
(383.667,628,o),
(371,606,cs),
(284.333,454,o),
(165.333,291.333,o),
(72,202,c)
);
}
);
width = 1000;
}
);
unicode = 101413;
}
{
glyphname = u18C2A;
layers = (
{
layerId = master01;
shapes = (
{
closed = 1;
nodes = (
(541,282,l),
(535,257.333,o),
(532,223,o),
(532,179,cs),
(532,101,o),
(533,40,o),
(535,-4,cs),
(536.333,-34,o),
(535.667,-57.667,o),
(533,-75,cs),
(526.333,-120.333,o),
(515.667,-145.333,o),
(497,-164,c),
(492.333,-167.333,o),
(488.667,-169,o),
(486,-169,cs),
(482.667,-169,o),
(479,-167,o),
(475,-163,cs),
(432.333,-119,o),
(365,-69.333,o),
(273,-14,c),
(284,9,l),
(452,-57,ls),
(454,-57.667,o),
(456.333,-58,o),
(459,-58,cs),
(465.667,-58,o),
(469.667,-52,o),
(471,-40,cs),
(472.333,-25.333,o),
(473,17.667,o),
(473,89,cs),
(473,173.667,o),
(472.667,217.667,o),
(472,221,c),
(470.667,255.667,o),
(460.667,303.667,o),
(442,337,c),
(472,341,l),
(472,341,l)
);
},
{
closed = 1;
nodes = (
(404.333,294.333,o),
(373.333,289.333,o),
(346,284,c),
(278,333,l),
(283,345,l),
(307.667,343,o),
(329.333,342,o),
(348,342,cs),
(363.333,342,o),
(382.333,342.667,o),
(405,344,cs),
(469,349.333,o),
(517.333,354.667,o),
(550,360,cs),
(572,363.333,o),
(591.667,370,o),
(609,380,cs),
(612.333,381.333,o),
(615.333,381.667,o),
(618,381,c),
(700,337,l),
(697,320,l),
(587,314,o),
(501,307,o),
(439,299,cs)
);
},
{
closed = 1;
nodes = (
(36,162,l),
(148,274,o),
(262.667,433.667,o),
(320,555,cs),
(330.667,579,o),
(336,604,o),
(336,630,cs),
(336,636.667,o),
(335.333,646,o),
(334,658,c),
(346,663,l),
(418,555,l),
(403.333,539,o),
(388.333,520.333,o),
(373,499,cs),
(281,360.333,o),
(153,215,o),
(57,139,c)
);
},
{
closed = 1;
nodes = (
(648,599,ls),
(702.667,515.667,o),
(748,450,o),
(784,402,cs),
(845.333,322,o),
(887.667,289,o),
(957,269,c),
(956,243,l),
(807,234,ls),
(797.667,234,o),
(791.667,236,o),
(789,240,cs),
(704.333,401.333,o),
(628.667,535.667,o),
(562,643,cs),
(540.667,677.667,o),
(516,696.667,o),
(468,714,c),
(468,730,l),
(570,732,l),
(578.667,709.333,o),
(593.667,681.333,o),
(615,648,cs)
);
},
{
closed = 1;
nodes = (
(610,194,l),
(688,138,o),
(744.333,94.667,o),
(779,64,cs),
(783.667,60,o),
(786,56.667,o),
(786,54,c),
(784,45,l),
(765,-46,l),
(751,-46,l),
(715,23.333,o),
(648,117,o),
(592,173,c)
);
}
);
width = 1000;
}
);
unicode = 101418;
}
{
glyphname = u18C2C;
layers = (
{
layerId = master01;
shapes = (
{
closed = 1;
nodes = (
(53,184,l),
(195.667,309.333,o),
(315.667,461.333,o),
(349,560,cs),
(351.667,568.667,o),
(353,580.667,o),
(353,596,cs),
(353,615.333,o),
(350,630.667,o),
(344,642,c),
(359,652,l),
(439,543,l),
(431,533,o),
(423.5,523.333,o),
(416.5,514,cs),
(409.5,504.667,o),
(403,496.333,o),
(397,489,cs),
(379,463,ls),
(305.667,364.333,o),
(189,243.333,o),
(77,158,c)
);
},
{
closed = 1;
nodes = (
(667,558.333,o),
(729,478,o),
(793,402,cs),
(857,326,o),
(898,297.333,o),
(962,288,c),
(961,260,l),
(817,245,l),
(815,245,ls),
(808.333,245,o),
(803,247.667,o),
(799,253,cs),
(764,309,ls),
(672,455.667,o),
(617,540.333,o),
(549,635,cs),
(521,672.333,o),
(501.333,690.333,o),
(448,701,c),
(448,717,l),
(557,729,l),
(566.333,702.333,o),
(576.333,687,o),
(607,643,cs)
);
},
{
closed = 1;
nodes = (
(398,232,ls),
(392.667,36,o),
(300.333,-80,o),
(83,-152,c),
(71,-126,l),
(251,-50,o),
(329.333,57,o),
(336,233,cs),
(336.667,241.667,o),
(337,251.5,o),
(337,262.5,cs),
(337,273.5,o),
(336.667,283,o),
(336,291,cs),
(332.667,344.333,o),
(318.667,384.667,o),
(294,412,c),
(305,424,l),
(409,337,l),
(402.333,317,o),
(399,294,o),
(399,268,cs)
);
},
{
closed = 1;
nodes = (
(660,350,l),
(653.333,321.333,o),
(650,287,o),
(650,247,cs),
(650,204.333,o),
(649.333,137,o),
(648,45,cs),
(646,-24.333,o),
(645,-92,o),
(645,-158,c),
(632,-164,l),
(569,-96,ls),
(567.667,-94.667,o),
(567.667,-91.667,o),
(569,-87,cs),
(577,-69,o),
(581.667,-47.333,o),
(583,-22,cs),
(586.333,66.667,o),
(588,151.333,o),
(588,232,cs),
(588,266,o),
(587.667,290,o),
(587,304,cs),
(585.667,345.333,o),
(573.333,392,o),
(544,424,c),
(555,436,l),
(555,436,l)
);
}
);
width = 1000;
}
);
unicode = 101420;
}
{
glyphname = u18C32;
layers = (
{
layerId = master01;
shapes = (
{
closed = 1;
nodes = (
(65,180,l),
(196.333,317.333,o),
(295,460.667,o),
(361,610,cs),
(371.667,634,o),
(377,659,o),
(377,685,cs),
(377,691.667,o),
(376.333,701,o),
(375,713,c),
(387,718,l),
(462,610,l),
(447.333,594,o),
(432.667,575,o),
(418,553,cs),
(316,390.333,o),
(205.333,258.333,o),
(86,157,c)
);
},
{
closed = 1;
nodes = (
(586,733,l),
(707.333,609,o),
(796,497.333,o),
(924,312,cs),
(926.667,308.667,o),
(927.333,305.333,o),
(926,302,cs),
(897,190,l),
(881,191,l),
(797,379,o),
(699.667,537,o),
(561,713,c)
);
},
{
closed = 1;
nodes = (
(406.333,178.333,o),
(365.667,172,o),
(317,162,c),
(241,217,l),
(246,230,l),
(284.667,226.667,o),
(315.333,225,o),
(338,225,cs),
(360,225,o),
(382,226,o),
(404,228,cs),
(456.667,231.333,o),
(501,234.667,o),
(537,238,cs),
(541.667,238,o),
(550.667,238.667,o),
(564,240,cs),
(628,245.333,o),
(661.333,251,o),
(692,271,c),
(695.333,272.333,o),
(698.333,272,o),
(701,270,c),
(793,221,l),
(790,206,l),
(660.667,199.333,o),
(568.333,193,o),
(439,181,cs)
);
},
{
closed = 1;
nodes = (
(566,307,ls),
(522,59,o),
(403.333,-82,o),
(170,-162,c),
(157,-132,l),
(377,-33.333,o),
(483.667,113,o),
(505,353,cs),
(509,391.667,o),
(498,445,o),
(470,481,c),
(483,493,l),
(588,409,l),
(578.667,386.333,o),
(572.333,345,o),
(571,337,cs)
);
},
{
closed = 1;
nodes = (
(520,222,l),
(524.667,214.667,o),
(532.667,204.333,o),
(544,191,cs),
(614,109,o),
(670,46,o),
(712,2,cs),
(789.333,-79.333,o),
(842,-102.667,o),
(930,-112,c),
(930,-140,l),
(741,-145,ls),
(731.667,-145,o),
(725.667,-142.667,o),
(723,-138,cs),
(636.333,-7.333,o),
(558.333,100,o),
(489,184,cs),
(486,188,l),
(486,188,l)
);
}
);
width = 1000;
}
);
unicode = 101426;
}
{
glyphname = u18C34;
layers = (
{
layerId = master01;
shapes = (
{
closed = 1;
nodes = (
(601,745,l),
(687.667,691.667,o),
(767.667,636.333,o),
(841,579,cs),
(845,576.333,o),
(847,572,o),
(847,566,cs),
(855,462,l),
(835,453,l),
(772.333,542.333,o),
(680.667,645,o),
(586,725,c)
);
},
{
closed = 1;
nodes = (
(115,442,l),
(228.333,528.667,o),
(320.333,617,o),
(359,689,cs),
(367.667,706.333,o),
(372,723,o),
(372,739,cs),
(372,745.667,o),
(371.667,751,o),
(371,755,c),
(386,760,l),
(441,663,l),
(434.333,657.667,o),
(428,652,o),
(422,646,cs),
(416,640,o),
(410.333,634.333,o),
(405,629,cs),
(380.333,604.333,o),
(368,592,o),
(368,592,c),
(299.333,527.333,o),
(220.667,469,o),
(132,417,c)
);
},
{
closed = 1;
nodes = (
(527,471,l),
(553.667,451,o),
(589.667,420.667,o),
(607,406,cs),
(619.667,396,o),
(635.333,383.5,o),
(654,368.5,cs),
(672.667,353.5,o),
(696,335,o),
(724,313,cs),
(800,254.333,o),
(833,230.167,o),
(885,209.5,cs),
(911,199.167,o),
(941,192.333,o),
(975,189,c),
(975,167,l),
(826,149,l),
(817,149,ls),
(809.667,149,o),
(804.333,151,o),
(801,155,cs),
(710.333,251.667,o),
(611.333,346.333,o),
(504,439,c)
);
},
{
closed = 1;
nodes = (
(24,94,l),
(220,212.667,o),
(403.333,382,o),
(478,510,cs),
(488.667,528,o),
(494,547,o),
(494,567,cs),
(494,574.333,o),
(493,582,o),
(491,590,c),
(506,595,l),
(570,483,l),
(527.333,440.333,o),
(494.667,407,o),
(472,383,cs),
(373.333,280.333,o),
(198.333,153.333,o),
(41,68,c)
);
},
{
closed = 1;
nodes = (
(496,-46,l),
(496,48.667,o),
(495.667,111,o),
(495,141,cs),
(493.667,179.667,o),
(479.333,229,o),
(450,261,c),
(461,273,l),
(567,187,l),
(561,155.667,o),
(558,121.333,o),
(558,84,cs),
(558,-40,l),
(558,-40,l)
);
},
{
closed = 1;
nodes = (
(292.667,-80.333,o),
(260.667,-84.333,o),
(220,-91,cs),
(193,-95,l),
(118,-38,l),
(123,-25,l),
(166.333,-29,o),
(204,-31,o),
(236,-31,cs),
(256,-31,o),
(271,-30.667,o),
(281,-30,cs),
(428.333,-22.667,o),
(551.333,-16,o),
(650,-10,cs),
(684,-8,ls),
(753.333,-1.333,o),
(780.333,2.333,o),
(811,21,c),
(815,21,o),
(818,20.333,o),
(820,19,cs),
(911,-35,l),
(908,-50,l),
(626.667,-59.333,o),
(553.333,-63,o),
(316,-79,cs)
);
}
);
width = 1000;
}
);
unicode = 101428;
}
{
glyphname = u18C35;
layers = (
{
layerId = master01;
shapes = (
{
closed = 1;
nodes = (
(637,691,l),
(710.333,636.333,o),
(802.333,554,o),
(865,486,cs),
(868.333,482.667,o),
(869.667,478.333,o),
(869,473,cs),
(850,378,l),
(828,371,l),
(784,465.667,o),
(699,588.333,o),
(619,671,c)
);
},
{
closed = 1;
nodes = (
(83,338,l),
(180.333,444.667,o),
(252.667,556.333,o),
(278,639,c),
(280.667,652.333,o),
(282,662.667,o),
(282,670,cs),
(282,682,o),
(279.667,694,o),
(275,706,c),
(289,714,l),
(363,630,l),
(355,622,o),
(342.333,601.333,o),
(337,592,cs),
(329,578.667,o),
(318.667,563.333,o),
(306,546,cs),
(258,474,o),
(183.667,389.333,o),
(105,316,c)
);
},
{
closed = 1;
nodes = (
(207.333,103,o),
(165.333,96.667,o),
(118,88,c),
(37,146,l),
(42,159,l),
(72,155.667,o),
(104.333,154,o),
(139,154,cs),
(155,154,o),
(177.667,154.667,o),
(207,156,cs),
(292.333,162.667,o),
(370.5,168.667,o),
(441.5,174,cs),
(512.5,179.333,o),
(582.667,185,o),
(652,191,cs),
(719,197,ls),
(787,202.333,o),
(823.333,209.333,o),
(858,228,cs),
(860,229.333,o),
(862.667,229,o),
(866,227,cs),
(963,174,l),
(960,160,l),
(676,142,o),
(437.333,124.333,o),
(244,107,cs)
);
},
{
closed = 1;
nodes = (
(387.333,342.333,o),
(346.667,335.667,o),
(302,325,c),
(226,380,l),
(231,393,l),
(259.667,390.333,o),
(288,389,o),
(316,389,cs),
(340.667,389,o),
(365,390,o),
(389,392,cs),
(431,395.333,o),
(479.333,399.667,o),
(534,405,cs),
(600.667,411.667,o),
(631.667,416,o),
(661,436,c),
(664.333,437.333,o),
(667.333,437,o),
(670,435,c),
(763,386,l),
(760,371,l),
(672.667,365.667,o),
(590.333,359.667,o),
(513,353,cs),
(509.667,352.333,o),
(480,349.667,o),
(424,345,cs)
);
},
{
closed = 1;
nodes = (
(538,684,l),
(531.333,655.333,o),
(528,621,o),
(528,581,cs),
(528,502.333,o),
(527.333,379,o),
(526,211,cs),
(524,85,o),
(523,-38.667,o),
(523,-160,c),
(510,-166,l),
(447,-98,ls),
(445.667,-96.667,o),
(445.667,-93.667,o),
(447,-89,cs),
(455,-71,o),
(459.667,-49.333,o),
(461,-24,cs),
(465.667,119.333,o),
(468,265.667,o),
(468,415,cs),
(468,499.667,o),
(467,574,o),
(465,638,cs),
(463.667,679.333,o),
(451.333,726,o),
(422,758,c),
(433,770,l),
(433,770,l)
);
}
);
width = 1000;
}
);
unicode = 101429;
}
{
glyphname = u18C41;
layers = (
{
layerId = master01;
shapes = (
{
closed = 1;
nodes = (
(25,289,l),
(229,425,o),
(407.333,591,o),
(466,699,cs),
(475.333,715,o),
(480,730.667,o),
(480,746,cs),
(480,752.667,o),
(479,759,o),
(477,765,c),
(491,772,l),
(562,680,l),
(540,664,o),
(516,641,o),
(490,611,cs),
(384.667,493.667,o),
(203,351.667,o),
(43,261,c)
);
},
{
closed = 1;
nodes = (
(565,631,ls),
(608.333,597,o),
(659,558.667,o),
(717,516,cs),
(837,429.333,o),
(881,405.667,o),
(977,391,c),
(977,368,l),
(827,349,ls),
(824.333,348.333,o),
(820.667,348,o),
(816,348,cs),
(810,348,o),
(805.333,350,o),
(802,354,cs),
(672.667,482,o),
(570.333,576.667,o),
(495,638,c),
(518,667,l),
(518,667,l)
);
},
{
closed = 1;
nodes = (
(540,458,l),
(534,432.667,o),
(530.667,398.333,o),
(530,355,cs),
(526.667,237,o),
(525,62.667,o),
(525,-168,c),
(513,-174,l),
(449,-106,ls),
(447.667,-104.667,o),
(447.667,-101.667,o),
(449,-97,cs),
(456.333,-79.667,o),
(461,-58,o),
(463,-32,cs),
(468.333,41.333,o),
(472,183,o),
(472,303,cs),
(472,354.333,o),
(471.667,390.667,o),
(471,412,cs),
(469.667,449.333,o),
(459.667,485.333,o),
(441,520,c),
(456,531,l),
(456,531,l)
);
},
{
closed = 1;
nodes = (
(254,373,l),
(323.333,319.667,o),
(367,284,o),
(403,244,cs),
(405.667,241.333,o),
(407,238,o),
(407,234,cs),
(407,231.333,o),
(406.333,227.333,o),
(405,222,cs),
(382,149,l),
(367,149,l),
(337.667,214.333,o),
(284,301.667,o),
(236,355,c)
);
},
{
closed = 1;
nodes = (
(535,122,l),
(594.333,205.333,o),
(633.333,277.667,o),
(652,339,cs),
(656,352.333,o),
(658,365.667,o),
(658,379,cs),
(658,391,o),
(656.667,402.333,o),
(654,413,c),
(668,421,l),
(742,325,l),
(717.333,299,o),
(695,273.333,o),
(675,248,cs),
(644.333,210,o),
(606.667,165.667,o),
(562,115,c)
);
},
{
closed = 1;
nodes = (
(229,68.333,o),
(188,63.333,o),
(144,56,c),
(68,113,l),
(73,125,l),
(112.333,120.333,o),
(149,118,o),
(183,118,cs),
(193.667,118,o),
(210.333,118.667,o),
(233,120,cs),
(325.667,124,o),
(445.667,131.667,o),
(593,143,cs),
(703,151,ls),
(775,156.333,o),
(802,159.333,o),
(834,178,cs),
(836.667,179.333,o),
(839.667,179,o),
(843,177,cs),
(934,127,l),
(931,112,l),
(744.333,103.333,o),
(523,89.667,o),
(267,71,cs)
);
}
);
width = 1000;
}
);
unicode = 101441;
}
{
glyphname = u18C43;
layers = (
{
layerId = master01;
shapes = (
{
closed = 1;
nodes = (
(565,593,ls),
(601,565.667,o),
(648.333,530.667,o),
(707,488,cs),
(804.333,418.667,o),
(866.333,390.333,o),
(961,381,c),
(961,354,l),
(800,328,ls),
(797.333,327.333,o),
(793.667,327,o),
(789,327,cs),
(783,327,o),
(778.333,329,o),
(775,333,cs),
(662.333,446.333,o),
(561,541.333,o),
(471,618,c),
(493,647,l),
(493,647,l)
);
},
{
closed = 1;
nodes = (
(59,276,l),
(265,416.667,o),
(400,554.333,o),
(464,689,cs),
(470.667,703.667,o),
(474,719.667,o),
(474,737,cs),
(474,749.667,o),
(472.333,761,o),
(469,771,c),
(483,777,l),
(564,669,l),
(553.333,660.333,o),
(533.333,637.667,o),
(504,601,cs),
(396,465.667,o),
(253,347.667,o),
(75,247,c)
);
},
{
closed = 1;
nodes = (
(300,109,l),
(430.667,71.667,o),
(553.667,30.333,o),
(669,-15,c),
(673,-17.667,o),
(675.333,-21,o),
(676,-25,cs),
(703,-128,l),
(689,-139,l),
(570.333,-49.667,o),
(464.667,9.333,o),
(290,84,c)
);
},
{
closed = 1;
nodes = (
(376,361,l),
(480.667,326.333,o),
(560,296,o),
(614,270,cs),
(618.667,267.333,o),
(621.333,263.667,o),
(622,259,cs),
(635,164,l),
(617,150,l),
(550.333,215.333,o),
(457,286,o),
(365,338,c)
);
}
);
width = 1000;
}
);
unicode = 101443;
}
